<svg width="24" height="24" viewBox="0 0 79 24" fill="none" xmlns="http://www.w3.org/2000/svg">
<path opacity="0.6" d="M6.08 17.192C4.98133 17.192 4.032 16.952 3.232 16.472C2.44267 15.9813 1.82933 15.304 1.392 14.44C0.965333 13.5653 0.752 12.552 0.752 11.4C0.752 10.2587 0.965333 9.25067 1.392 8.376C1.82933 7.50133 2.44267 6.824 3.232 6.344C4.032 5.85333 4.98133 5.608 6.08 5.608C7.392 5.608 8.45333 5.92267 9.264 6.552C10.0853 7.18133 10.608 8.06667 10.832 9.208H9.072C8.912 8.54667 8.58133 8.01867 8.08 7.624C7.58933 7.22933 6.92267 7.032 6.08 7.032C5.32267 7.032 4.66667 7.208 4.112 7.56C3.55733 7.912 3.13067 8.41333 2.832 9.064C2.53333 9.71467 2.384 10.4933 2.384 11.4C2.384 12.3067 2.53333 13.0907 2.832 13.752C3.13067 14.4027 3.55733 14.904 4.112 15.256C4.66667 15.5973 5.32267 15.768 6.08 15.768C6.92267 15.768 7.58933 15.5813 8.08 15.208C8.58133 14.824 8.912 14.3067 9.072 13.656H10.832C10.608 14.7653 10.0853 15.6347 9.264 16.264C8.45333 16.8827 7.392 17.192 6.08 17.192ZM16.3461 17.192C15.5888 17.192 14.9061 17.016 14.2981 16.664C13.7008 16.312 13.2261 15.8213 12.8741 15.192C12.5328 14.552 12.3621 13.816 12.3621 12.984C12.3621 12.1307 12.5381 11.3893 12.8901 10.76C13.2421 10.12 13.7221 9.624 14.3301 9.272C14.9381 8.92 15.6208 8.744 16.3781 8.744C17.1461 8.744 17.8288 8.92 18.4261 9.272C19.0235 9.624 19.4928 10.1147 19.8341 10.744C20.1861 11.3733 20.3621 12.1147 20.3621 12.968C20.3621 13.8213 20.1861 14.5627 19.8341 15.192C19.4928 15.8213 19.0181 16.312 18.4101 16.664C17.8021 17.016 17.1141 17.192 16.3461 17.192ZM16.3461 15.816C16.7835 15.816 17.1781 15.7093 17.5301 15.496C17.8928 15.2827 18.1808 14.968 18.3941 14.552C18.6181 14.1253 18.7301 13.5973 18.7301 12.968C18.7301 12.3387 18.6235 11.816 18.4101 11.4C18.1968 10.9733 17.9088 10.6533 17.5461 10.44C17.1941 10.2267 16.8048 10.12 16.3781 10.12C15.9515 10.12 15.5568 10.2267 15.1941 10.44C14.8315 10.6533 14.5381 10.9733 14.3141 11.4C14.1008 11.816 13.9941 12.3387 13.9941 12.968C13.9941 13.5973 14.1008 14.1253 14.3141 14.552C14.5381 14.968 14.8261 15.2827 15.1781 15.496C15.5408 15.7093 15.9301 15.816 16.3461 15.816ZM25.2043 17.192C24.5749 17.192 24.0256 17.064 23.5563 16.808C23.0976 16.552 22.7403 16.168 22.4843 15.656C22.2389 15.144 22.1163 14.4987 22.1163 13.72V8.936H23.7163V13.544C23.7163 14.3013 23.8816 14.872 24.2123 15.256C24.5429 15.64 25.0176 15.832 25.6363 15.832C26.0523 15.832 26.4256 15.7307 26.7563 15.528C27.0976 15.3253 27.3643 15.032 27.5563 14.648C27.7483 14.264 27.8443 13.7947 27.8443 13.24V8.936H29.4443V17H28.0203L27.9083 15.624C27.6629 16.1147 27.3056 16.4987 26.8363 16.776C26.3669 17.0533 25.8229 17.192 25.2043 17.192ZM31.6349 17V8.936H33.0749L33.2189 10.456C33.4002 10.0933 33.6349 9.78933 33.9229 9.544C34.2109 9.288 34.5469 9.09067 34.9309 8.952C35.3255 8.81333 35.7735 8.744 36.2749 8.744V10.44H35.6989C35.3682 10.44 35.0535 10.4827 34.7549 10.568C34.4562 10.6427 34.1895 10.776 33.9549 10.968C33.7309 11.16 33.5549 11.4213 33.4269 11.752C33.2989 12.0827 33.2349 12.4933 33.2349 12.984V17H31.6349ZM40.8643 17.192C40.1816 17.192 39.5843 17.08 39.0723 16.856C38.5603 16.632 38.1549 16.3173 37.8563 15.912C37.5576 15.5067 37.3763 15.032 37.3123 14.488H38.9443C38.9976 14.744 39.0989 14.9787 39.2483 15.192C39.4083 15.4053 39.6216 15.576 39.8883 15.704C40.1656 15.832 40.4909 15.896 40.8643 15.896C41.2163 15.896 41.5043 15.848 41.7283 15.752C41.9629 15.6453 42.1336 15.5067 42.2403 15.336C42.3469 15.1547 42.4003 14.9627 42.4003 14.76C42.4003 14.4613 42.3256 14.2373 42.1763 14.088C42.0376 13.928 41.8243 13.8053 41.5363 13.72C41.2589 13.624 40.9229 13.5387 40.5283 13.464C40.1549 13.4 39.7923 13.3147 39.4403 13.208C39.0989 13.0907 38.7896 12.9467 38.5123 12.776C38.2456 12.6053 38.0323 12.392 37.8723 12.136C37.7123 11.8693 37.6323 11.544 37.6323 11.16C37.6323 10.7013 37.7549 10.2907 38.0003 9.928C38.2456 9.55467 38.5923 9.26667 39.0403 9.064C39.4989 8.85067 40.0376 8.744 40.6562 8.744C41.5523 8.744 42.2723 8.95733 42.8163 9.384C43.3603 9.81067 43.6803 10.4133 43.7763 11.192H42.2243C42.1816 10.8293 42.0216 10.552 41.7443 10.36C41.4669 10.1573 41.0989 10.056 40.6403 10.056C40.1816 10.056 39.8296 10.1467 39.5843 10.328C39.3389 10.5093 39.2163 10.7493 39.2163 11.048C39.2163 11.24 39.2856 11.4107 39.4243 11.56C39.5629 11.7093 39.7656 11.8373 40.0323 11.944C40.3096 12.04 40.6456 12.1307 41.0403 12.216C41.6056 12.3227 42.1123 12.456 42.5603 12.616C43.0083 12.776 43.3656 13.0107 43.6323 13.32C43.8989 13.6293 44.0323 14.072 44.0323 14.648C44.0429 15.1493 43.9149 15.592 43.6483 15.976C43.3923 16.36 43.0243 16.6587 42.5443 16.872C42.0749 17.0853 41.5149 17.192 40.8643 17.192ZM49.5641 17.192C48.7961 17.192 48.1135 17.016 47.5161 16.664C46.9188 16.312 46.4495 15.8213 46.1081 15.192C45.7775 14.5627 45.6121 13.832 45.6121 13C45.6121 12.1467 45.7775 11.4053 46.1081 10.776C46.4495 10.136 46.9188 9.64 47.5161 9.288C48.1135 8.92533 48.8068 8.744 49.5961 8.744C50.3855 8.744 51.0628 8.92 51.6281 9.272C52.1935 9.624 52.6308 10.0933 52.9401 10.68C53.2495 11.256 53.4041 11.896 53.4041 12.6C53.4041 12.7067 53.3988 12.824 53.3881 12.952C53.3881 13.0693 53.3828 13.2027 53.3721 13.352H46.7801V12.216H51.8041C51.7721 11.544 51.5481 11.0213 51.1321 10.648C50.7161 10.264 50.1988 10.072 49.5801 10.072C49.1428 10.072 48.7428 10.1733 48.3801 10.376C48.0175 10.568 47.7241 10.856 47.5001 11.24C47.2868 11.6133 47.1801 12.088 47.1801 12.664V13.112C47.1801 13.7093 47.2868 14.216 47.5001 14.632C47.7241 15.0373 48.0175 15.3467 48.3801 15.56C48.7428 15.7627 49.1375 15.864 49.5641 15.864C50.0761 15.864 50.4975 15.752 50.8281 15.528C51.1588 15.304 51.4041 15 51.5641 14.616H53.1641C53.0255 15.1067 52.7908 15.5493 52.4601 15.944C52.1295 16.328 51.7188 16.632 51.2281 16.856C50.7481 17.08 50.1935 17.192 49.5641 17.192ZM58.3018 17.192C57.6191 17.192 57.0218 17.08 56.5098 16.856C55.9978 16.632 55.5924 16.3173 55.2938 15.912C54.9951 15.5067 54.8138 15.032 54.7498 14.488H56.3818C56.4351 14.744 56.5364 14.9787 56.6858 15.192C56.8458 15.4053 57.0591 15.576 57.3258 15.704C57.6031 15.832 57.9284 15.896 58.3018 15.896C58.6538 15.896 58.9418 15.848 59.1658 15.752C59.4004 15.6453 59.5711 15.5067 59.6778 15.336C59.7844 15.1547 59.8378 14.9627 59.8378 14.76C59.8378 14.4613 59.7631 14.2373 59.6138 14.088C59.4751 13.928 59.2618 13.8053 58.9738 13.72C58.6964 13.624 58.3604 13.5387 57.9658 13.464C57.5924 13.4 57.2298 13.3147 56.8778 13.208C56.5364 13.0907 56.2271 12.9467 55.9498 12.776C55.6831 12.6053 55.4698 12.392 55.3098 12.136C55.1498 11.8693 55.0698 11.544 55.0698 11.16C55.0698 10.7013 55.1924 10.2907 55.4378 9.928C55.6831 9.55467 56.0298 9.26667 56.4778 9.064C56.9364 8.85067 57.4751 8.744 58.0938 8.744C58.9898 8.744 59.7098 8.95733 60.2538 9.384C60.7978 9.81067 61.1178 10.4133 61.2138 11.192H59.6618C59.6191 10.8293 59.4591 10.552 59.1818 10.36C58.9044 10.1573 58.5364 10.056 58.0778 10.056C57.6191 10.056 57.2671 10.1467 57.0218 10.328C56.7764 10.5093 56.6538 10.7493 56.6538 11.048C56.6538 11.24 56.7231 11.4107 56.8618 11.56C57.0004 11.7093 57.2031 11.8373 57.4698 11.944C57.7471 12.04 58.0831 12.1307 58.4778 12.216C59.0431 12.3227 59.5498 12.456 59.9978 12.616C60.4458 12.776 60.8031 13.0107 61.0698 13.32C61.3364 13.6293 61.4698 14.072 61.4698 14.648C61.4804 15.1493 61.3524 15.592 61.0858 15.976C60.8298 16.36 60.4618 16.6587 59.9818 16.872C59.5124 17.0853 58.9524 17.192 58.3018 17.192Z" fill="white"/>
<g opacity="0.6">
<path d="M76.96 10.4746L73.7 13.7346C73.315 14.1196 72.685 14.1196 72.3 13.7346L69.04 10.4746" stroke="white" stroke-width="1.5" stroke-miterlimit="10" stroke-linecap="round" stroke-linejoin="round"/>
</g>
</svg>
