<svg width="440" height="48" viewBox="0 0 440 48" fill="none" xmlns="http://www.w3.org/2000/svg">
<rect width="440" height="48" rx="12" fill="white"/>
<path d="M164.852 27.6225L165.145 29.9925C165.22 30.615 164.552 31.05 164.02 30.7275L160.877 28.86C160.532 28.86 160.195 28.8375 159.865 28.7925C160.42 28.14 160.75 27.315 160.75 26.4225C160.75 24.2925 158.905 22.5675 156.625 22.5675C155.755 22.5675 154.952 22.815 154.285 23.25C154.262 23.0625 154.255 22.875 154.255 22.68C154.255 19.2675 157.217 16.5 160.877 16.5C164.537 16.5 167.5 19.2675 167.5 22.68C167.5 24.705 166.457 26.4975 164.852 27.6225Z" stroke="#374151" stroke-width="1.5" stroke-linecap="round" stroke-linejoin="round"/>
<path d="M160.75 26.4226C160.75 27.3151 160.42 28.1401 159.865 28.7926C159.123 29.6926 157.945 30.2701 156.625 30.2701L154.667 31.4326C154.337 31.6351 153.917 31.3576 153.962 30.9751L154.15 29.4976C153.145 28.8001 152.5 27.6826 152.5 26.4226C152.5 25.1026 153.205 23.9401 154.285 23.2501C154.953 22.8151 155.755 22.5676 156.625 22.5676C158.905 22.5676 160.75 24.2926 160.75 26.4226Z" stroke="#374151" stroke-width="1.5" stroke-linecap="round" stroke-linejoin="round"/>
<path d="M186.575 22.1293H185.024C184.964 21.7978 184.853 21.5062 184.691 21.2543C184.529 21.0024 184.33 20.7886 184.094 20.6129C183.859 20.4373 183.596 20.3047 183.304 20.2152C183.016 20.1257 182.709 20.081 182.384 20.081C181.798 20.081 181.272 20.2285 180.808 20.5234C180.348 20.8184 179.983 21.2509 179.714 21.821C179.449 22.3911 179.317 23.0871 179.317 23.9091C179.317 24.7377 179.449 25.437 179.714 26.0071C179.983 26.5772 180.349 27.008 180.813 27.2997C181.277 27.5914 181.799 27.7372 182.379 27.7372C182.701 27.7372 183.006 27.6941 183.294 27.608C183.586 27.5185 183.849 27.3875 184.085 27.2152C184.32 27.0429 184.519 26.8324 184.681 26.5838C184.847 26.3319 184.961 26.0436 185.024 25.7188L186.575 25.7237C186.492 26.2242 186.332 26.6849 186.093 27.1058C185.858 27.5234 185.554 27.8847 185.183 28.1896C184.815 28.4912 184.394 28.7249 183.92 28.8906C183.446 29.0563 182.929 29.1392 182.369 29.1392C181.488 29.1392 180.702 28.9304 180.013 28.5128C179.323 28.0919 178.78 27.4903 178.382 26.7081C177.988 25.9259 177.79 24.9929 177.79 23.9091C177.79 22.822 177.989 21.889 178.387 21.1101C178.785 20.3279 179.328 19.728 180.018 19.3104C180.707 18.8894 181.491 18.679 182.369 18.679C182.91 18.679 183.413 18.7569 183.881 18.9126C184.351 19.0651 184.774 19.2905 185.148 19.5888C185.523 19.8838 185.833 20.245 186.078 20.6726C186.323 21.0968 186.489 21.5824 186.575 22.1293ZM191.511 29.1541C190.795 29.1541 190.17 28.9901 189.637 28.6619C189.103 28.3338 188.689 27.8748 188.394 27.2848C188.099 26.6948 187.951 26.0054 187.951 25.2166C187.951 24.4245 188.099 23.7318 188.394 23.1385C188.689 22.5452 189.103 22.0845 189.637 21.7564C190.17 21.4283 190.795 21.2642 191.511 21.2642C192.227 21.2642 192.852 21.4283 193.385 21.7564C193.919 22.0845 194.333 22.5452 194.628 23.1385C194.923 23.7318 195.07 24.4245 195.07 25.2166C195.07 26.0054 194.923 26.6948 194.628 27.2848C194.333 27.8748 193.919 28.3338 193.385 28.6619C192.852 28.9901 192.227 29.1541 191.511 29.1541ZM191.516 27.9062C191.98 27.9062 192.364 27.7836 192.669 27.5384C192.974 27.2931 193.2 26.9666 193.345 26.5589C193.494 26.1513 193.569 25.7022 193.569 25.2116C193.569 24.7244 193.494 24.277 193.345 23.8693C193.2 23.4583 192.974 23.1286 192.669 22.88C192.364 22.6314 191.98 22.5071 191.516 22.5071C191.048 22.5071 190.661 22.6314 190.352 22.88C190.048 23.1286 189.82 23.4583 189.671 23.8693C189.526 24.277 189.453 24.7244 189.453 25.2116C189.453 25.7022 189.526 26.1513 189.671 26.5589C189.82 26.9666 190.048 27.2931 190.352 27.5384C190.661 27.7836 191.048 27.9062 191.516 27.9062ZM198.216 24.4659V29H196.73V21.3636H198.157V22.6065H198.251C198.427 22.2022 198.702 21.8774 199.076 21.6321C199.454 21.3868 199.93 21.2642 200.503 21.2642C201.024 21.2642 201.479 21.3736 201.87 21.5923C202.261 21.8078 202.565 22.1293 202.78 22.5568C202.996 22.9844 203.103 23.513 203.103 24.1428V29H201.617V24.3217C201.617 23.7682 201.473 23.3357 201.184 23.0241C200.896 22.7093 200.5 22.5518 199.996 22.5518C199.651 22.5518 199.345 22.6264 199.076 22.7756C198.811 22.9247 198.601 23.1435 198.445 23.4318C198.292 23.7169 198.216 24.0616 198.216 24.4659ZM208.662 21.3636V22.5568H204.49V21.3636H208.662ZM205.609 19.5341H207.096V26.7578C207.096 27.0462 207.139 27.2633 207.225 27.4091C207.311 27.5516 207.422 27.6494 207.558 27.7024C207.697 27.7521 207.848 27.777 208.01 27.777C208.13 27.777 208.234 27.7687 208.324 27.7521C208.413 27.7356 208.483 27.7223 208.532 27.7124L208.801 28.9403C208.715 28.9735 208.592 29.0066 208.433 29.0398C208.274 29.0762 208.075 29.0961 207.836 29.0994C207.445 29.1061 207.081 29.0365 206.743 28.8906C206.404 28.7448 206.131 28.5194 205.922 28.2145C205.713 27.9096 205.609 27.5268 205.609 27.0661V19.5341ZM212.528 29.169C212.044 29.169 211.607 29.0795 211.216 28.9006C210.825 28.7183 210.515 28.4548 210.286 28.1101C210.061 27.7654 209.948 27.3428 209.948 26.8423C209.948 26.4115 210.031 26.0568 210.197 25.7784C210.362 25.5 210.586 25.2796 210.868 25.1172C211.149 24.9548 211.464 24.8321 211.812 24.7493C212.16 24.6664 212.515 24.6035 212.876 24.5604C213.334 24.5073 213.705 24.4643 213.99 24.4311C214.275 24.3946 214.482 24.3366 214.611 24.2571C214.741 24.1776 214.805 24.0483 214.805 23.8693V23.8345C214.805 23.4003 214.683 23.0639 214.437 22.8253C214.195 22.5866 213.834 22.4673 213.354 22.4673C212.853 22.4673 212.459 22.5784 212.17 22.8004C211.885 23.0192 211.688 23.2628 211.579 23.5312L210.182 23.2131C210.347 22.7491 210.589 22.3745 210.907 22.0895C211.229 21.8011 211.599 21.5923 212.016 21.4631C212.434 21.3305 212.873 21.2642 213.334 21.2642C213.639 21.2642 213.962 21.3007 214.303 21.3736C214.648 21.4432 214.969 21.5724 215.268 21.7614C215.569 21.9503 215.816 22.2204 216.008 22.5717C216.201 22.9197 216.297 23.3722 216.297 23.929V29H214.845V27.956H214.785C214.689 28.1482 214.545 28.3371 214.353 28.5227C214.161 28.7083 213.914 28.8625 213.612 28.9851C213.31 29.1077 212.949 29.169 212.528 29.169ZM212.851 27.9759C213.262 27.9759 213.614 27.8946 213.905 27.7322C214.2 27.5698 214.424 27.3577 214.577 27.0959C214.732 26.8307 214.81 26.5473 214.81 26.2457V25.2614C214.757 25.3144 214.654 25.3641 214.502 25.4105C214.353 25.4536 214.182 25.4917 213.99 25.5249C213.798 25.5547 213.61 25.5829 213.428 25.6094C213.246 25.6326 213.093 25.6525 212.971 25.669C212.682 25.7055 212.419 25.7668 212.18 25.853C211.945 25.9392 211.756 26.0634 211.613 26.2259C211.474 26.3849 211.405 26.5971 211.405 26.8622C211.405 27.2301 211.541 27.5085 211.812 27.6974C212.084 27.883 212.43 27.9759 212.851 27.9759ZM221.493 29.1541C220.754 29.1541 220.118 28.9867 219.584 28.652C219.054 28.3139 218.646 27.8482 218.361 27.255C218.076 26.6617 217.934 25.9822 217.934 25.2166C217.934 24.4411 218.079 23.7566 218.371 23.1634C218.663 22.5668 219.074 22.1011 219.604 21.7663C220.134 21.4316 220.759 21.2642 221.478 21.2642C222.058 21.2642 222.575 21.3719 223.029 21.5874C223.484 21.7995 223.85 22.0978 224.128 22.4822C224.41 22.8667 224.577 23.3158 224.63 23.8295H223.184C223.104 23.4716 222.922 23.1634 222.637 22.9048C222.355 22.6463 221.977 22.517 221.503 22.517C221.089 22.517 220.726 22.6264 220.414 22.8452C220.106 23.0606 219.866 23.3688 219.694 23.7699C219.521 24.1676 219.435 24.6383 219.435 25.1818C219.435 25.7386 219.52 26.2192 219.689 26.6236C219.858 27.0279 220.096 27.3411 220.404 27.5632C220.716 27.7853 221.082 27.8963 221.503 27.8963C221.785 27.8963 222.04 27.8449 222.269 27.7422C222.501 27.6361 222.695 27.4853 222.85 27.2898C223.01 27.0942 223.121 26.8589 223.184 26.5838H224.63C224.577 27.0777 224.417 27.5185 224.148 27.9062C223.88 28.294 223.52 28.599 223.069 28.821C222.622 29.0431 222.096 29.1541 221.493 29.1541ZM229.785 21.3636V22.5568H225.613V21.3636H229.785ZM226.732 19.5341H228.219V26.7578C228.219 27.0462 228.262 27.2633 228.348 27.4091C228.434 27.5516 228.545 27.6494 228.681 27.7024C228.82 27.7521 228.971 27.777 229.133 27.777C229.253 27.777 229.357 27.7687 229.447 27.7521C229.536 27.7356 229.606 27.7223 229.655 27.7124L229.924 28.9403C229.838 28.9735 229.715 29.0066 229.556 29.0398C229.397 29.0762 229.198 29.0961 228.959 29.0994C228.568 29.1061 228.204 29.0365 227.866 28.8906C227.528 28.7448 227.254 28.5194 227.045 28.2145C226.836 27.9096 226.732 27.5268 226.732 27.0661V19.5341ZM240.807 21.4929C240.754 21.0223 240.535 20.6577 240.15 20.3991C239.766 20.1373 239.282 20.0064 238.699 20.0064C238.281 20.0064 237.92 20.0727 237.615 20.2053C237.31 20.3345 237.073 20.5135 236.904 20.7422C236.738 20.9676 236.655 21.2244 236.655 21.5128C236.655 21.7547 236.712 21.9635 236.824 22.1392C236.94 22.3149 237.091 22.4624 237.277 22.5817C237.466 22.6977 237.668 22.7955 237.883 22.875C238.099 22.9512 238.306 23.0142 238.505 23.0639L239.499 23.3224C239.824 23.402 240.157 23.5097 240.498 23.6456C240.84 23.7815 241.156 23.9605 241.448 24.1825C241.74 24.4046 241.975 24.6797 242.154 25.0078C242.336 25.3359 242.427 25.7287 242.427 26.1861C242.427 26.7628 242.278 27.2749 241.98 27.7223C241.685 28.1697 241.256 28.5227 240.692 28.7812C240.132 29.0398 239.454 29.169 238.659 29.169C237.897 29.169 237.237 29.0481 236.68 28.8061C236.123 28.5642 235.688 28.2211 235.373 27.777C235.058 27.3295 234.884 26.7992 234.851 26.1861H236.392C236.422 26.554 236.541 26.8606 236.75 27.1058C236.962 27.3478 237.232 27.5284 237.56 27.6477C237.892 27.7637 238.255 27.8217 238.649 27.8217C239.083 27.8217 239.469 27.7538 239.807 27.6179C240.149 27.4787 240.417 27.2865 240.613 27.0412C240.808 26.7926 240.906 26.5026 240.906 26.1712C240.906 25.8696 240.82 25.6226 240.648 25.4304C240.479 25.2382 240.248 25.0791 239.956 24.9531C239.668 24.8272 239.342 24.7161 238.977 24.62L237.774 24.2919C236.959 24.0698 236.312 23.7434 235.835 23.3125C235.361 22.8816 235.124 22.3116 235.124 21.6023C235.124 21.0156 235.283 20.5036 235.601 20.0661C235.92 19.6286 236.35 19.2888 236.894 19.0469C237.438 18.8016 238.051 18.679 238.733 18.679C239.423 18.679 240.031 18.8 240.558 19.0419C241.088 19.2839 241.506 19.617 241.811 20.0412C242.116 20.4621 242.275 20.946 242.288 21.4929H240.807ZM248.981 25.8331V21.3636H250.473V29H249.011V27.6776H248.931C248.756 28.0852 248.474 28.425 248.086 28.6967C247.702 28.9652 247.223 29.0994 246.65 29.0994C246.159 29.0994 245.725 28.9917 245.347 28.7763C244.972 28.5575 244.677 28.2344 244.462 27.8068C244.25 27.3793 244.144 26.8506 244.144 26.2209V21.3636H245.63V26.0419C245.63 26.5623 245.775 26.9766 246.063 27.2848C246.351 27.593 246.726 27.7472 247.186 27.7472C247.465 27.7472 247.742 27.6776 248.017 27.5384C248.295 27.3991 248.525 27.1887 248.708 26.907C248.893 26.6252 248.984 26.2673 248.981 25.8331ZM252.47 31.8636V21.3636H253.922V22.6016H254.046C254.132 22.4425 254.256 22.2585 254.419 22.0497C254.581 21.8409 254.807 21.6586 255.095 21.5028C255.383 21.3438 255.765 21.2642 256.238 21.2642C256.855 21.2642 257.405 21.42 257.889 21.7315C258.373 22.0431 258.752 22.4922 259.028 23.0788C259.306 23.6655 259.445 24.3714 259.445 25.1967C259.445 26.022 259.308 26.7296 259.032 27.3196C258.757 27.9062 258.38 28.3587 257.899 28.6768C257.418 28.9917 256.87 29.1491 256.253 29.1491C255.789 29.1491 255.41 29.0713 255.115 28.9155C254.823 28.7597 254.595 28.5774 254.429 28.3686C254.263 28.1598 254.135 27.9742 254.046 27.8118H253.956V31.8636H252.47ZM253.927 25.1818C253.927 25.7187 254.005 26.1894 254.16 26.5938C254.316 26.9981 254.541 27.3146 254.836 27.5433C255.131 27.7687 255.493 27.8814 255.92 27.8814C256.364 27.8814 256.736 27.7637 257.034 27.5284C257.332 27.2898 257.558 26.9666 257.71 26.5589C257.866 26.1513 257.944 25.6922 257.944 25.1818C257.944 24.678 257.867 24.2256 257.715 23.8246C257.566 23.4235 257.34 23.107 257.039 22.875C256.741 22.643 256.368 22.527 255.92 22.527C255.489 22.527 255.125 22.638 254.827 22.8601C254.532 23.0821 254.308 23.392 254.155 23.7898C254.003 24.1875 253.927 24.6515 253.927 25.1818ZM261.111 31.8636V21.3636H262.562V22.6016H262.687C262.773 22.4425 262.897 22.2585 263.059 22.0497C263.222 21.8409 263.447 21.6586 263.736 21.5028C264.024 21.3438 264.405 21.2642 264.879 21.2642C265.496 21.2642 266.046 21.42 266.53 21.7315C267.014 22.0431 267.393 22.4922 267.668 23.0788C267.947 23.6655 268.086 24.3714 268.086 25.1967C268.086 26.022 267.948 26.7296 267.673 27.3196C267.398 27.9062 267.02 28.3587 266.54 28.6768C266.059 28.9917 265.51 29.1491 264.894 29.1491C264.43 29.1491 264.05 29.0713 263.756 28.9155C263.464 28.7597 263.235 28.5774 263.069 28.3686C262.904 28.1598 262.776 27.9742 262.687 27.8118H262.597V31.8636H261.111ZM262.567 25.1818C262.567 25.7187 262.645 26.1894 262.801 26.5938C262.957 26.9981 263.182 27.3146 263.477 27.5433C263.772 27.7687 264.133 27.8814 264.561 27.8814C265.005 27.8814 265.376 27.7637 265.675 27.5284C265.973 27.2898 266.198 26.9666 266.351 26.5589C266.506 26.1513 266.584 25.6922 266.584 25.1818C266.584 24.678 266.508 24.2256 266.356 23.8246C266.206 23.4235 265.981 23.107 265.68 22.875C265.381 22.643 265.008 22.527 264.561 22.527C264.13 22.527 263.765 22.638 263.467 22.8601C263.172 23.0821 262.948 23.392 262.796 23.7898C262.644 24.1875 262.567 24.6515 262.567 25.1818ZM272.968 29.1541C272.252 29.1541 271.627 28.9901 271.094 28.6619C270.56 28.3338 270.146 27.8748 269.851 27.2848C269.556 26.6948 269.408 26.0054 269.408 25.2166C269.408 24.4245 269.556 23.7318 269.851 23.1385C270.146 22.5452 270.56 22.0845 271.094 21.7564C271.627 21.4283 272.252 21.2642 272.968 21.2642C273.684 21.2642 274.309 21.4283 274.842 21.7564C275.376 22.0845 275.79 22.5452 276.085 23.1385C276.38 23.7318 276.528 24.4245 276.528 25.2166C276.528 26.0054 276.38 26.6948 276.085 27.2848C275.79 27.8748 275.376 28.3338 274.842 28.6619C274.309 28.9901 273.684 29.1541 272.968 29.1541ZM272.973 27.9062C273.437 27.9062 273.821 27.7836 274.126 27.5384C274.431 27.2931 274.657 26.9666 274.802 26.5589C274.952 26.1513 275.026 25.7022 275.026 25.2116C275.026 24.7244 274.952 24.277 274.802 23.8693C274.657 23.4583 274.431 23.1286 274.126 22.88C273.821 22.6314 273.437 22.5071 272.973 22.5071C272.506 22.5071 272.118 22.6314 271.809 22.88C271.505 23.1286 271.278 23.4583 271.128 23.8693C270.983 24.277 270.91 24.7244 270.91 25.2116C270.91 25.7022 270.983 26.1513 271.128 26.5589C271.278 26.9666 271.505 27.2931 271.809 27.5384C272.118 27.7836 272.506 27.9062 272.973 27.9062ZM278.187 29V21.3636H279.624V22.5767H279.703C279.842 22.1657 280.088 21.8426 280.439 21.6072C280.794 21.3686 281.195 21.2493 281.642 21.2493C281.735 21.2493 281.844 21.2526 281.97 21.2592C282.099 21.2659 282.201 21.2741 282.273 21.2841V22.706C282.214 22.6894 282.108 22.6712 281.955 22.6513C281.803 22.6281 281.65 22.6165 281.498 22.6165C281.147 22.6165 280.833 22.6911 280.558 22.8402C280.286 22.986 280.071 23.1899 279.912 23.4517C279.753 23.7102 279.673 24.0052 279.673 24.3366V29H278.187ZM287.576 21.3636V22.5568H283.404V21.3636H287.576ZM284.523 19.5341H286.01V26.7578C286.01 27.0462 286.053 27.2633 286.139 27.4091C286.225 27.5516 286.336 27.6494 286.472 27.7024C286.611 27.7521 286.762 27.777 286.924 27.777C287.044 27.777 287.148 27.7687 287.238 27.7521C287.327 27.7356 287.397 27.7223 287.446 27.7124L287.715 28.9403C287.629 28.9735 287.506 29.0066 287.347 29.0398C287.188 29.0762 286.989 29.0961 286.75 29.0994C286.359 29.1061 285.995 29.0365 285.657 28.8906C285.319 28.7448 285.045 28.5194 284.836 28.2145C284.627 27.9096 284.523 27.5268 284.523 27.0661V19.5341Z" fill="#374151"/>
</svg>
