<svg width="18" height="19" viewBox="0 0 18 19" fill="none" xmlns="http://www.w3.org/2000/svg">
<path d="M1.5 6.75C1.5 7.75633 7.57118 10.5 8.98958 10.5C10.4079 10.5 16.4792 7.75633 16.4792 6.75C16.4792 5.74367 10.4079 3 8.98958 3C7.57118 3 1.5 5.74367 1.5 6.75Z" stroke="#A3A3A3" stroke-width="1.125" stroke-linecap="round" stroke-linejoin="round"/>
<path d="M4.49561 9L4.67944 13.2224C4.68311 13.307 4.69226 13.3916 4.71676 13.4726C4.79249 13.723 4.93206 13.9505 5.145 14.1033C6.8111 15.2989 11.1676 15.2989 12.8336 14.1033C13.0467 13.9505 13.1862 13.723 13.2619 13.4726C13.2864 13.3916 13.2955 13.307 13.2993 13.2224L13.483 9" stroke="#A3A3A3" stroke-width="1.125" stroke-linecap="round" stroke-linejoin="round"/>
<path d="M15.355 7.875V13.125M15.355 13.125C14.761 14.2097 14.4984 14.7909 14.2316 15.75C14.1737 16.0913 14.2197 16.2632 14.4549 16.4159C14.5504 16.4779 14.6653 16.5 14.7791 16.5H15.9194C16.0407 16.5 16.163 16.4747 16.2628 16.4059C16.4815 16.2551 16.5377 16.0898 16.4785 15.75C16.2446 14.8595 15.9467 14.2506 15.355 13.125Z" stroke="#A3A3A3" stroke-width="1.125" stroke-linecap="round" stroke-linejoin="round"/>
</svg>
