<svg width="74" height="32" viewBox="0 0 74 32" fill="none" xmlns="http://www.w3.org/2000/svg">
<path fill-rule="evenodd" clip-rule="evenodd" d="M14.2794 0.704258C11.4617 0.87884 9.04761 1.52156 7.35146 2.54881C6.78944 2.88917 5.68903 3.73 5.11847 4.25489C2.87045 6.32332 1.32501 9.00641 0.619462 12.0658C0.279101 13.5416 0.139802 14.9935 0.176652 16.6812C0.232101 19.2232 0.642855 21.1776 1.56384 23.2814C2.22492 24.7915 2.92655 25.8947 4.01676 27.1381C4.79348 28.024 5.38809 28.5788 6.30608 29.2743C7.146 29.9107 7.56133 30.1667 8.30974 30.5093C10.3373 31.4375 12.8738 31.882 16.161 31.8852L17.152 31.8862L17.1519 30.0085L17.1519 28.1309L15.7908 28.1272C14.3696 28.1233 13.6753 28.0626 12.6518 27.8526C8.87421 27.0775 5.99899 24.6905 4.7065 21.2561C4.13759 19.7446 3.86775 18.1318 3.86775 16.2434C3.86775 14.355 4.13759 12.7423 4.7065 11.2307C5.99899 7.79637 8.87421 5.40932 12.6518 4.63425C13.6792 4.42345 14.3695 4.36302 15.7908 4.35939L17.1519 4.35591L17.1519 2.50315L17.152 0.650391L16.0304 0.657852C15.4135 0.661931 14.6255 0.68282 14.2794 0.704258ZM19.8526 16.2683V31.8862H21.5277H23.2028L23.2187 25.5569C23.2344 19.2946 23.2356 19.2218 23.3297 18.6612C23.5701 17.2291 24.064 16.091 24.8191 15.2287C25.395 14.5711 25.983 14.1846 26.7778 13.9411C27.1487 13.8275 27.2741 13.8141 27.9761 13.8135C28.6224 13.8129 28.8303 13.8313 29.1597 13.9183C30.4833 14.2682 31.4415 15.1867 31.9639 16.6064C32.1267 17.049 32.2931 17.8472 32.3516 18.4673C32.381 18.7784 32.3973 21.2513 32.3973 25.4182V31.8862H34.0742H35.7512L35.7511 25.5072C35.7509 18.9559 35.7418 18.5429 35.5713 17.3625C35.4029 16.1963 35.1837 15.377 34.7864 14.428C33.8795 12.2621 32.4101 10.8638 30.4739 10.324C29.312 10 27.9046 9.97079 26.8001 10.2477C25.7259 10.5169 24.5451 11.2118 23.6142 12.1226L23.2283 12.5L23.2172 6.57519L23.2062 0.650391H21.5294H19.8526V16.2683ZM40.5036 2.17154C39.9342 2.34632 39.4604 2.80322 39.1982 3.43003C39.0433 3.80048 39.0398 3.82187 39.0398 4.40565C39.0398 4.99216 39.0427 5.00927 39.2022 5.39087C39.7225 6.63498 40.9982 7.12709 42.0342 6.48323C42.3108 6.31133 42.725 5.8034 42.8631 5.46672C43.2415 4.54397 43.0884 3.45146 42.484 2.76129C41.9852 2.19174 41.1996 1.95777 40.5036 2.17154ZM70.7763 2.17154C70.207 2.34632 69.7331 2.80322 69.4709 3.43003C69.316 3.80048 69.3126 3.82187 69.3126 4.40565C69.3126 4.99216 69.3154 5.00927 69.4749 5.39087C69.9952 6.63498 71.271 7.12709 72.3069 6.48323C72.5836 6.31133 72.9977 5.8034 73.1358 5.46672C73.5142 4.54397 73.3611 3.45146 72.7567 2.76129C72.2579 2.19174 71.4723 1.95777 70.7763 2.17154ZM46.3793 14.746C46.3793 21.3216 46.3948 24.8371 46.4251 25.1786C46.7037 28.3119 48.0953 30.3688 50.56 31.2905C51.6157 31.6852 52.5187 31.8306 54.1653 31.8708L55.3958 31.9008V30.0593V28.2179L54.3613 28.1925C53.3321 28.1673 52.8609 28.1057 52.3032 27.9237C50.7977 27.4322 49.973 26.2327 49.778 24.2513C49.7514 23.9803 49.7339 21.8948 49.7336 18.9666L49.7333 14.1295H52.5646H55.3958V12.3141V10.4986H52.5646H49.7333V7.66352V4.82842H48.0563H46.3793V14.746ZM57.8786 14.746C57.8786 21.3216 57.894 24.8371 57.9244 25.1786C58.203 28.3119 59.5946 30.3688 62.0593 31.2905C63.115 31.6852 64.018 31.8306 65.6646 31.8708L66.8951 31.9008V30.0593V28.2179L65.8606 28.1925C64.8314 28.1673 64.3602 28.1057 63.8025 27.9237C62.297 27.4322 61.4722 26.2327 61.2773 24.2513C61.2507 23.9803 61.2331 21.8948 61.2329 18.9666L61.2326 14.1295H64.0638H66.8951V12.3141V10.4986H64.0638H61.2326V7.66352V4.82842H59.5556H57.8786V14.746ZM39.3665 21.1924V31.8862H41.0435H42.7205V21.1924V10.4986H41.0435H39.3665V21.1924ZM69.6393 21.1924V31.8862H71.3162H72.9932V21.1924V10.4986H71.3162H69.6393V21.1924Z" fill="black"/>
</svg>
