<svg width="18" height="19" viewBox="0 0 18 19" fill="none" xmlns="http://www.w3.org/2000/svg">
<g clip-path="url(#clip0_3775_16336)">
<path d="M9.00201 14.5069C11.7678 14.5069 14.0097 12.2648 14.0097 9.49908C14.0097 6.73334 11.7678 4.49121 9.00201 4.49121C6.23627 4.49121 3.99414 6.73334 3.99414 9.49908C3.99414 12.2648 6.2362 14.5069 9.00194 14.5069" fill="white"/>
<path d="M2.5234 7.03842C2.14981 6.39131 1.71069 5.71216 1.20603 5.00098C0.415977 6.36907 2.68367e-05 7.92106 1.29856e-09 9.50089C-2.68341e-05 11.0807 0.41587 12.6327 1.20588 14.0009C1.99588 15.369 3.13215 16.505 4.50045 17.2947C5.86874 18.0844 7.42083 18.5 9.00066 18.4996C9.82899 17.3378 10.3914 16.5002 10.6879 15.9867C11.2573 15.0003 11.9938 13.5882 12.8973 11.7503V11.7492C12.5026 12.4336 11.9346 13.002 11.2505 13.3972C10.5665 13.7924 9.79038 14.0005 9.00034 14.0007C8.2103 14.0008 7.43415 13.7929 6.74995 13.3979C6.06575 13.0029 5.49761 12.4347 5.10268 11.7504C3.87558 9.46188 3.01583 7.89117 2.5234 7.03842Z" fill="#229342"/>
<path d="M9.00162 18.4998C10.1835 18.5 11.3539 18.2674 12.4459 17.8152C13.5379 17.3629 14.5301 16.7 15.3658 15.8642C16.2015 15.0285 16.8644 14.0362 17.3166 12.9442C17.7687 11.8522 18.0013 10.6818 18.0011 9.49991C18.0007 7.92006 17.5845 6.36813 16.7943 5.00012C15.0893 4.83207 13.8311 4.74805 13.0195 4.74805C12.0992 4.74805 10.7597 4.83207 9.00098 5.00012L9 5.00082C9.79006 5.00043 10.5663 5.20808 11.2506 5.60289C11.935 5.9977 12.5033 6.56575 12.8984 7.24991C13.2936 7.93406 13.5016 8.7102 13.5016 9.50027C13.5016 10.2903 13.2935 11.0665 12.8983 11.7506L9.00162 18.4998Z" fill="#FBC116"/>
<path d="M9.00024 13.063C10.9679 13.063 12.5629 11.4679 12.5629 9.50023C12.5629 7.53254 10.9679 5.9375 9.00016 5.9375C7.03261 5.9375 5.4375 7.53261 5.4375 9.50023C5.4375 11.4679 7.03261 13.063 9.00024 13.063Z" fill="#1A73E8"/>
<path d="M9.00103 5.00031H16.7943C16.0046 3.63199 14.8685 2.49571 13.5004 1.70573C12.1322 0.91574 10.5802 0.499893 9.00034 0.5C7.42049 0.500107 5.86852 0.916164 4.50048 1.70634C3.13244 2.49651 1.99655 3.63294 1.20703 5.00136L5.10368 11.7507L5.10473 11.7512C4.7094 11.0672 4.50115 10.2911 4.50092 9.50107C4.50069 8.71101 4.70848 7.93482 5.10341 7.25056C5.49834 6.56629 6.06647 5.99808 6.75068 5.60305C7.43489 5.20803 8.21105 5.00012 9.0011 5.00024L9.00103 5.00031Z" fill="#E33B2E"/>
</g>
<defs>
<clipPath id="clip0_3775_16336">
<rect width="18" height="18" fill="white" transform="translate(0 0.5)"/>
</clipPath>
</defs>
</svg>
