<svg width="34" height="35" viewBox="0 0 34 35" fill="none" xmlns="http://www.w3.org/2000/svg">
<path d="M0.5 8.5C0.5 4.35786 3.85786 1 8 1H26C30.1421 1 33.5 4.35786 33.5 8.5V26.5C33.5 30.6421 30.1421 34 26 34H8C3.85786 34 0.5 30.6421 0.5 26.5V8.5Z" fill="#171717"/>
<path d="M0.5 8.5C0.5 4.35786 3.85786 1 8 1H26C30.1421 1 33.5 4.35786 33.5 8.5V26.5C33.5 30.6421 30.1421 34 26 34H8C3.85786 34 0.5 30.6421 0.5 26.5V8.5Z" stroke="#262626"/>
<path d="M18.5 18.625H20.375L21.125 15.625H18.5V14.125C18.5 13.3525 18.5 12.625 20 12.625H21.125V10.105C20.8805 10.0728 19.9572 10 18.9822 10C16.946 10 15.5 11.2427 15.5 13.525V15.625H13.25V18.625H15.5V25H18.5V18.625Z" fill="#D4D4D4"/>
</svg>
