<svg width="226" height="170" viewBox="0 0 226 170" fill="none" xmlns="http://www.w3.org/2000/svg">
<g clip-path="url(#clip0_16067_2016)">
<g filter="url(#filter0_di_16067_2016)">
<path d="M12 31C15.85 31 19 27.85 19 24C19 20.15 15.85 17 12 17C8.15 17 5 20.15 5 24C5 27.85 8.15 31 12 31Z" fill="url(#paint0_linear_16067_2016)"/>
<path d="M12 31C15.85 31 19 27.85 19 24C19 20.15 15.85 17 12 17C8.15 17 5 20.15 5 24C5 27.85 8.15 31 12 31Z" stroke="url(#paint1_linear_16067_2016)" stroke-linecap="round" stroke-linejoin="round"/>
</g>
<g filter="url(#filter1_di_16067_2016)">
<path d="M20.8375 68.2708C20.0635 70.3301 21.115 72.6483 23.1743 73.4224C25.2336 74.1965 27.5519 73.1449 28.326 71.0856C29.1001 69.0263 28.0485 66.7081 25.9892 65.934C23.9299 65.1599 21.6116 66.2115 20.8375 68.2708Z" fill="url(#paint2_linear_16067_2016)"/>
<path d="M20.8375 68.2708C20.0635 70.3301 21.115 72.6483 23.1743 73.4224C25.2336 74.1965 27.5519 73.1449 28.326 71.0856C29.1001 69.0263 28.0485 66.7081 25.9892 65.934C23.9299 65.1599 21.6116 66.2115 20.8375 68.2708Z" stroke="url(#paint3_linear_16067_2016)" stroke-linecap="round" stroke-linejoin="round"/>
</g>
<g filter="url(#filter2_di_16067_2016)">
<path d="M216.157 102.59C218.357 102.59 220.157 100.79 220.157 98.59C220.157 96.39 218.357 94.5896 216.157 94.5896C213.957 94.5896 212.157 96.39 212.157 98.59C212.157 100.79 213.957 102.59 216.157 102.59Z" fill="url(#paint4_linear_16067_2016)"/>
<path d="M216.157 102.59C218.357 102.59 220.157 100.79 220.157 98.59C220.157 96.39 218.357 94.5896 216.157 94.5896C213.957 94.5896 212.157 96.39 212.157 98.59C212.157 100.79 213.957 102.59 216.157 102.59Z" stroke="url(#paint5_linear_16067_2016)" stroke-linecap="round" stroke-linejoin="round"/>
</g>
<g filter="url(#filter3_di_16067_2016)">
<path d="M68.1887 25.9253C67.765 23.7665 65.652 22.3469 63.4932 22.7706C61.3344 23.1943 59.9147 25.3073 60.3385 27.4661C60.7622 29.6249 62.8752 31.0445 65.034 30.6208C67.1928 30.1971 68.6124 28.0841 68.1887 25.9253Z" fill="url(#paint6_linear_16067_2016)"/>
<path d="M68.1887 25.9253C67.765 23.7665 65.652 22.3469 63.4932 22.7706C61.3344 23.1943 59.9147 25.3073 60.3385 27.4661C60.7622 29.6249 62.8752 31.0445 65.034 30.6208C67.1928 30.1971 68.6124 28.0841 68.1887 25.9253Z" stroke="url(#paint7_linear_16067_2016)" stroke-linecap="round" stroke-linejoin="round"/>
</g>
<g filter="url(#filter4_di_16067_2016)">
<path d="M190.93 144.673C190.476 145.675 190.925 146.866 191.927 147.32C192.929 147.774 194.12 147.325 194.574 146.323C195.027 145.321 194.579 144.13 193.576 143.676C192.574 143.223 191.383 143.671 190.93 144.673Z" fill="url(#paint8_linear_16067_2016)"/>
<path d="M190.93 144.673C190.476 145.675 190.925 146.866 191.927 147.32C192.929 147.774 194.12 147.325 194.574 146.323C195.027 145.321 194.579 144.13 193.576 143.676C192.574 143.223 191.383 143.671 190.93 144.673Z" stroke="url(#paint9_linear_16067_2016)" stroke-linecap="round" stroke-linejoin="round"/>
</g>
<g filter="url(#filter5_di_16067_2016)">
<path d="M180.931 74.6734C180.477 75.6755 180.926 76.8666 181.928 77.3203C182.93 77.774 184.121 77.3253 184.574 76.3233C185.028 75.3212 184.58 74.1301 183.577 73.6764C182.575 73.2227 181.384 73.6713 180.931 74.6734Z" fill="url(#paint10_linear_16067_2016)"/>
<path d="M180.931 74.6734C180.477 75.6755 180.926 76.8666 181.928 77.3203C182.93 77.774 184.121 77.3253 184.574 76.3233C185.028 75.3212 184.58 74.1301 183.577 73.6764C182.575 73.2227 181.384 73.6713 180.931 74.6734Z" stroke="url(#paint11_linear_16067_2016)" stroke-linecap="round" stroke-linejoin="round"/>
</g>
<g filter="url(#filter6_di_16067_2016)">
<path d="M38.2277 145.364C37.3396 144.715 36.0819 144.911 35.4329 145.799C34.7839 146.687 34.9796 147.945 35.8678 148.594C36.7559 149.243 38.0136 149.047 38.6626 148.159C39.3116 147.271 39.1159 146.013 38.2277 145.364Z" fill="url(#paint12_linear_16067_2016)"/>
<path d="M38.2277 145.364C37.3396 144.715 36.0819 144.911 35.4329 145.799C34.7839 146.687 34.9796 147.945 35.8678 148.594C36.7559 149.243 38.0136 149.047 38.6626 148.159C39.3116 147.271 39.1159 146.013 38.2277 145.364Z" stroke="url(#paint13_linear_16067_2016)" stroke-linecap="round" stroke-linejoin="round"/>
</g>
<g filter="url(#filter7_di_16067_2016)">
<path d="M219 38C220.1 38 221 37.1 221 36C221 34.9 220.1 34 219 34C217.9 34 217 34.9 217 36C217 37.1 217.9 38 219 38Z" fill="url(#paint14_linear_16067_2016)"/>
<path d="M219 38C220.1 38 221 37.1 221 36C221 34.9 220.1 34 219 34C217.9 34 217 34.9 217 36C217 37.1 217.9 38 219 38Z" stroke="url(#paint15_linear_16067_2016)" stroke-linecap="round" stroke-linejoin="round"/>
</g>
<g filter="url(#filter8_di_16067_2016)">
<path d="M114.044 26.2873C113.832 25.2079 112.775 24.4981 111.696 24.71C110.617 24.9218 109.907 25.9783 110.119 27.0577C110.331 28.1371 111.387 28.8469 112.466 28.6351C113.546 28.4232 114.256 27.3667 114.044 26.2873Z" fill="url(#paint16_linear_16067_2016)"/>
<path d="M114.044 26.2873C113.832 25.2079 112.775 24.4981 111.696 24.71C110.617 24.9218 109.907 25.9783 110.119 27.0577C110.331 28.1371 111.387 28.8469 112.466 28.6351C113.546 28.4232 114.256 27.3667 114.044 26.2873Z" stroke="url(#paint17_linear_16067_2016)" stroke-linecap="round" stroke-linejoin="round"/>
</g>
<g filter="url(#filter9_di_16067_2016)">
<path d="M157.98 137.439C157.754 137.94 157.978 138.535 158.479 138.762C158.98 138.989 159.576 138.765 159.802 138.264C160.029 137.763 159.805 137.167 159.304 136.94C158.803 136.713 158.207 136.938 157.98 137.439Z" fill="url(#paint18_linear_16067_2016)"/>
<path d="M157.98 137.439C157.754 137.94 157.978 138.535 158.479 138.762C158.98 138.989 159.576 138.765 159.802 138.264C160.029 137.763 159.805 137.167 159.304 136.94C158.803 136.713 158.207 136.938 157.98 137.439Z" stroke="url(#paint19_linear_16067_2016)" stroke-linecap="round" stroke-linejoin="round"/>
</g>
<g filter="url(#filter10_di_16067_2016)">
<path d="M42.044 114.59C41.6 114.266 40.9711 114.363 40.6466 114.808C40.3221 115.252 40.42 115.88 40.8641 116.205C41.3081 116.529 41.937 116.432 42.2615 115.988C42.586 115.543 42.4881 114.915 42.044 114.59Z" fill="url(#paint20_linear_16067_2016)"/>
<path d="M42.044 114.59C41.6 114.266 40.9711 114.363 40.6466 114.808C40.3221 115.252 40.42 115.88 40.8641 116.205C41.3081 116.529 41.937 116.432 42.2615 115.988C42.586 115.543 42.4881 114.915 42.044 114.59Z" stroke="url(#paint21_linear_16067_2016)" stroke-linecap="round" stroke-linejoin="round"/>
</g>
<g filter="url(#filter11_di_16067_2016)">
<path d="M142.568 3C143.118 3 143.568 2.55 143.568 2C143.568 1.45 143.118 1 142.568 1C142.018 1 141.568 1.45 141.568 2C141.568 2.55 142.018 3 142.568 3Z" fill="url(#paint22_linear_16067_2016)"/>
<path d="M142.568 3C143.118 3 143.568 2.55 143.568 2C143.568 1.45 143.118 1 142.568 1C142.018 1 141.568 1.45 141.568 2C141.568 2.55 142.018 3 142.568 3Z" stroke="url(#paint23_linear_16067_2016)" stroke-linecap="round" stroke-linejoin="round"/>
</g>
<g filter="url(#filter12_d_16067_2016)">
<path d="M155 106C155 81.6995 135.301 62 111 62C86.6995 62 67 81.6995 67 106C67 130.301 86.6995 150 111 150C135.301 150 155 130.301 155 106Z" fill="white"/>
<path d="M111 139.333C129.334 139.333 144.334 124.333 144.334 106C144.334 87.6667 129.334 72.6667 111 72.6667C92.667 72.6667 77.667 87.6667 77.667 106C77.667 124.333 92.667 139.333 111 139.333Z" fill="url(#paint24_linear_16067_2016)"/>
<g filter="url(#filter13_di_16067_2016)">
<path d="M101.566 115.433L120.433 96.5669" stroke="white" stroke-width="5" stroke-linecap="round" stroke-linejoin="round"/>
<path d="M120.433 115.433L101.566 96.5669" stroke="white" stroke-width="5" stroke-linecap="round" stroke-linejoin="round"/>
</g>
</g>
</g>
<defs>
<filter id="filter0_di_16067_2016" x="0.5" y="16.5" width="23" height="23" filterUnits="userSpaceOnUse" color-interpolation-filters="sRGB">
<feFlood flood-opacity="0" result="BackgroundImageFix"/>
<feColorMatrix in="SourceAlpha" type="matrix" values="0 0 0 0 0 0 0 0 0 0 0 0 0 0 0 0 0 0 127 0" result="hardAlpha"/>
<feOffset dy="4"/>
<feGaussianBlur stdDeviation="2"/>
<feComposite in2="hardAlpha" operator="out"/>
<feColorMatrix type="matrix" values="0 0 0 0 0 0 0 0 0 0 0 0 0 0 0 0 0 0 0.06 0"/>
<feBlend mode="normal" in2="BackgroundImageFix" result="effect1_dropShadow_16067_2016"/>
<feBlend mode="normal" in="SourceGraphic" in2="effect1_dropShadow_16067_2016" result="shape"/>
<feColorMatrix in="SourceAlpha" type="matrix" values="0 0 0 0 0 0 0 0 0 0 0 0 0 0 0 0 0 0 127 0" result="hardAlpha"/>
<feOffset dx="2" dy="2"/>
<feGaussianBlur stdDeviation="2"/>
<feComposite in2="hardAlpha" operator="arithmetic" k2="-1" k3="1"/>
<feColorMatrix type="matrix" values="0 0 0 0 1 0 0 0 0 1 0 0 0 0 1 0 0 0 0.28 0"/>
<feBlend mode="normal" in2="shape" result="effect2_innerShadow_16067_2016"/>
</filter>
<filter id="filter1_di_16067_2016" x="16.083" y="65.1792" width="16.998" height="16.998" filterUnits="userSpaceOnUse" color-interpolation-filters="sRGB">
<feFlood flood-opacity="0" result="BackgroundImageFix"/>
<feColorMatrix in="SourceAlpha" type="matrix" values="0 0 0 0 0 0 0 0 0 0 0 0 0 0 0 0 0 0 127 0" result="hardAlpha"/>
<feOffset dy="4"/>
<feGaussianBlur stdDeviation="2"/>
<feComposite in2="hardAlpha" operator="out"/>
<feColorMatrix type="matrix" values="0 0 0 0 0 0 0 0 0 0 0 0 0 0 0 0 0 0 0.06 0"/>
<feBlend mode="normal" in2="BackgroundImageFix" result="effect1_dropShadow_16067_2016"/>
<feBlend mode="normal" in="SourceGraphic" in2="effect1_dropShadow_16067_2016" result="shape"/>
<feColorMatrix in="SourceAlpha" type="matrix" values="0 0 0 0 0 0 0 0 0 0 0 0 0 0 0 0 0 0 127 0" result="hardAlpha"/>
<feOffset dx="2" dy="2"/>
<feGaussianBlur stdDeviation="2"/>
<feComposite in2="hardAlpha" operator="arithmetic" k2="-1" k3="1"/>
<feColorMatrix type="matrix" values="0 0 0 0 1 0 0 0 0 1 0 0 0 0 1 0 0 0 0.28 0"/>
<feBlend mode="normal" in2="shape" result="effect2_innerShadow_16067_2016"/>
</filter>
<filter id="filter2_di_16067_2016" x="207.657" y="94.0896" width="17" height="17.0005" filterUnits="userSpaceOnUse" color-interpolation-filters="sRGB">
<feFlood flood-opacity="0" result="BackgroundImageFix"/>
<feColorMatrix in="SourceAlpha" type="matrix" values="0 0 0 0 0 0 0 0 0 0 0 0 0 0 0 0 0 0 127 0" result="hardAlpha"/>
<feOffset dy="4"/>
<feGaussianBlur stdDeviation="2"/>
<feComposite in2="hardAlpha" operator="out"/>
<feColorMatrix type="matrix" values="0 0 0 0 0 0 0 0 0 0 0 0 0 0 0 0 0 0 0.06 0"/>
<feBlend mode="normal" in2="BackgroundImageFix" result="effect1_dropShadow_16067_2016"/>
<feBlend mode="normal" in="SourceGraphic" in2="effect1_dropShadow_16067_2016" result="shape"/>
<feColorMatrix in="SourceAlpha" type="matrix" values="0 0 0 0 0 0 0 0 0 0 0 0 0 0 0 0 0 0 127 0" result="hardAlpha"/>
<feOffset dx="2" dy="2"/>
<feGaussianBlur stdDeviation="2"/>
<feComposite in2="hardAlpha" operator="arithmetic" k2="-1" k3="1"/>
<feColorMatrix type="matrix" values="0 0 0 0 1 0 0 0 0 1 0 0 0 0 1 0 0 0 0.28 0"/>
<feBlend mode="normal" in2="shape" result="effect2_innerShadow_16067_2016"/>
</filter>
<filter id="filter3_di_16067_2016" x="55.7637" y="22.1958" width="17" height="17" filterUnits="userSpaceOnUse" color-interpolation-filters="sRGB">
<feFlood flood-opacity="0" result="BackgroundImageFix"/>
<feColorMatrix in="SourceAlpha" type="matrix" values="0 0 0 0 0 0 0 0 0 0 0 0 0 0 0 0 0 0 127 0" result="hardAlpha"/>
<feOffset dy="4"/>
<feGaussianBlur stdDeviation="2"/>
<feComposite in2="hardAlpha" operator="out"/>
<feColorMatrix type="matrix" values="0 0 0 0 0 0 0 0 0 0 0 0 0 0 0 0 0 0 0.06 0"/>
<feBlend mode="normal" in2="BackgroundImageFix" result="effect1_dropShadow_16067_2016"/>
<feBlend mode="normal" in="SourceGraphic" in2="effect1_dropShadow_16067_2016" result="shape"/>
<feColorMatrix in="SourceAlpha" type="matrix" values="0 0 0 0 0 0 0 0 0 0 0 0 0 0 0 0 0 0 127 0" result="hardAlpha"/>
<feOffset dx="2" dy="2"/>
<feGaussianBlur stdDeviation="2"/>
<feComposite in2="hardAlpha" operator="arithmetic" k2="-1" k3="1"/>
<feColorMatrix type="matrix" values="0 0 0 0 1 0 0 0 0 1 0 0 0 0 1 0 0 0 0.28 0"/>
<feBlend mode="normal" in2="shape" result="effect2_innerShadow_16067_2016"/>
</filter>
<filter id="filter4_di_16067_2016" x="186.253" y="142.999" width="12.998" height="12.998" filterUnits="userSpaceOnUse" color-interpolation-filters="sRGB">
<feFlood flood-opacity="0" result="BackgroundImageFix"/>
<feColorMatrix in="SourceAlpha" type="matrix" values="0 0 0 0 0 0 0 0 0 0 0 0 0 0 0 0 0 0 127 0" result="hardAlpha"/>
<feOffset dy="4"/>
<feGaussianBlur stdDeviation="2"/>
<feComposite in2="hardAlpha" operator="out"/>
<feColorMatrix type="matrix" values="0 0 0 0 0 0 0 0 0 0 0 0 0 0 0 0 0 0 0.06 0"/>
<feBlend mode="normal" in2="BackgroundImageFix" result="effect1_dropShadow_16067_2016"/>
<feBlend mode="normal" in="SourceGraphic" in2="effect1_dropShadow_16067_2016" result="shape"/>
<feColorMatrix in="SourceAlpha" type="matrix" values="0 0 0 0 0 0 0 0 0 0 0 0 0 0 0 0 0 0 127 0" result="hardAlpha"/>
<feOffset dx="2" dy="2"/>
<feGaussianBlur stdDeviation="2"/>
<feComposite in2="hardAlpha" operator="arithmetic" k2="-1" k3="1"/>
<feColorMatrix type="matrix" values="0 0 0 0 1 0 0 0 0 1 0 0 0 0 1 0 0 0 0.28 0"/>
<feBlend mode="normal" in2="shape" result="effect2_innerShadow_16067_2016"/>
</filter>
<filter id="filter5_di_16067_2016" x="176.254" y="72.9993" width="12.998" height="12.9983" filterUnits="userSpaceOnUse" color-interpolation-filters="sRGB">
<feFlood flood-opacity="0" result="BackgroundImageFix"/>
<feColorMatrix in="SourceAlpha" type="matrix" values="0 0 0 0 0 0 0 0 0 0 0 0 0 0 0 0 0 0 127 0" result="hardAlpha"/>
<feOffset dy="4"/>
<feGaussianBlur stdDeviation="2"/>
<feComposite in2="hardAlpha" operator="out"/>
<feColorMatrix type="matrix" values="0 0 0 0 0 0 0 0 0 0 0 0 0 0 0 0 0 0 0.06 0"/>
<feBlend mode="normal" in2="BackgroundImageFix" result="effect1_dropShadow_16067_2016"/>
<feBlend mode="normal" in="SourceGraphic" in2="effect1_dropShadow_16067_2016" result="shape"/>
<feColorMatrix in="SourceAlpha" type="matrix" values="0 0 0 0 0 0 0 0 0 0 0 0 0 0 0 0 0 0 127 0" result="hardAlpha"/>
<feOffset dx="2" dy="2"/>
<feGaussianBlur stdDeviation="2"/>
<feComposite in2="hardAlpha" operator="arithmetic" k2="-1" k3="1"/>
<feColorMatrix type="matrix" values="0 0 0 0 1 0 0 0 0 1 0 0 0 0 1 0 0 0 0.28 0"/>
<feBlend mode="normal" in2="shape" result="effect2_innerShadow_16067_2016"/>
</filter>
<filter id="filter6_di_16067_2016" x="30.5498" y="144.481" width="12.9961" height="12.9961" filterUnits="userSpaceOnUse" color-interpolation-filters="sRGB">
<feFlood flood-opacity="0" result="BackgroundImageFix"/>
<feColorMatrix in="SourceAlpha" type="matrix" values="0 0 0 0 0 0 0 0 0 0 0 0 0 0 0 0 0 0 127 0" result="hardAlpha"/>
<feOffset dy="4"/>
<feGaussianBlur stdDeviation="2"/>
<feComposite in2="hardAlpha" operator="out"/>
<feColorMatrix type="matrix" values="0 0 0 0 0 0 0 0 0 0 0 0 0 0 0 0 0 0 0.06 0"/>
<feBlend mode="normal" in2="BackgroundImageFix" result="effect1_dropShadow_16067_2016"/>
<feBlend mode="normal" in="SourceGraphic" in2="effect1_dropShadow_16067_2016" result="shape"/>
<feColorMatrix in="SourceAlpha" type="matrix" values="0 0 0 0 0 0 0 0 0 0 0 0 0 0 0 0 0 0 127 0" result="hardAlpha"/>
<feOffset dx="2" dy="2"/>
<feGaussianBlur stdDeviation="2"/>
<feComposite in2="hardAlpha" operator="arithmetic" k2="-1" k3="1"/>
<feColorMatrix type="matrix" values="0 0 0 0 1 0 0 0 0 1 0 0 0 0 1 0 0 0 0.28 0"/>
<feBlend mode="normal" in2="shape" result="effect2_innerShadow_16067_2016"/>
</filter>
<filter id="filter7_di_16067_2016" x="212.5" y="33.5" width="13" height="13" filterUnits="userSpaceOnUse" color-interpolation-filters="sRGB">
<feFlood flood-opacity="0" result="BackgroundImageFix"/>
<feColorMatrix in="SourceAlpha" type="matrix" values="0 0 0 0 0 0 0 0 0 0 0 0 0 0 0 0 0 0 127 0" result="hardAlpha"/>
<feOffset dy="4"/>
<feGaussianBlur stdDeviation="2"/>
<feComposite in2="hardAlpha" operator="out"/>
<feColorMatrix type="matrix" values="0 0 0 0 0 0 0 0 0 0 0 0 0 0 0 0 0 0 0.06 0"/>
<feBlend mode="normal" in2="BackgroundImageFix" result="effect1_dropShadow_16067_2016"/>
<feBlend mode="normal" in="SourceGraphic" in2="effect1_dropShadow_16067_2016" result="shape"/>
<feColorMatrix in="SourceAlpha" type="matrix" values="0 0 0 0 0 0 0 0 0 0 0 0 0 0 0 0 0 0 127 0" result="hardAlpha"/>
<feOffset dx="2" dy="2"/>
<feGaussianBlur stdDeviation="2"/>
<feComposite in2="hardAlpha" operator="arithmetic" k2="-1" k3="1"/>
<feColorMatrix type="matrix" values="0 0 0 0 1 0 0 0 0 1 0 0 0 0 1 0 0 0 0.28 0"/>
<feBlend mode="normal" in2="shape" result="effect2_innerShadow_16067_2016"/>
</filter>
<filter id="filter8_di_16067_2016" x="105.582" y="24.1726" width="13" height="13" filterUnits="userSpaceOnUse" color-interpolation-filters="sRGB">
<feFlood flood-opacity="0" result="BackgroundImageFix"/>
<feColorMatrix in="SourceAlpha" type="matrix" values="0 0 0 0 0 0 0 0 0 0 0 0 0 0 0 0 0 0 127 0" result="hardAlpha"/>
<feOffset dy="4"/>
<feGaussianBlur stdDeviation="2"/>
<feComposite in2="hardAlpha" operator="out"/>
<feColorMatrix type="matrix" values="0 0 0 0 0 0 0 0 0 0 0 0 0 0 0 0 0 0 0.06 0"/>
<feBlend mode="normal" in2="BackgroundImageFix" result="effect1_dropShadow_16067_2016"/>
<feBlend mode="normal" in="SourceGraphic" in2="effect1_dropShadow_16067_2016" result="shape"/>
<feColorMatrix in="SourceAlpha" type="matrix" values="0 0 0 0 0 0 0 0 0 0 0 0 0 0 0 0 0 0 127 0" result="hardAlpha"/>
<feOffset dx="2" dy="2"/>
<feGaussianBlur stdDeviation="2"/>
<feComposite in2="hardAlpha" operator="arithmetic" k2="-1" k3="1"/>
<feColorMatrix type="matrix" values="0 0 0 0 1 0 0 0 0 1 0 0 0 0 1 0 0 0 0.28 0"/>
<feBlend mode="normal" in2="shape" result="effect2_innerShadow_16067_2016"/>
</filter>
<filter id="filter9_di_16067_2016" x="153.392" y="136.351" width="10.999" height="10.9995" filterUnits="userSpaceOnUse" color-interpolation-filters="sRGB">
<feFlood flood-opacity="0" result="BackgroundImageFix"/>
<feColorMatrix in="SourceAlpha" type="matrix" values="0 0 0 0 0 0 0 0 0 0 0 0 0 0 0 0 0 0 127 0" result="hardAlpha"/>
<feOffset dy="4"/>
<feGaussianBlur stdDeviation="2"/>
<feComposite in2="hardAlpha" operator="out"/>
<feColorMatrix type="matrix" values="0 0 0 0 0 0 0 0 0 0 0 0 0 0 0 0 0 0 0.06 0"/>
<feBlend mode="normal" in2="BackgroundImageFix" result="effect1_dropShadow_16067_2016"/>
<feBlend mode="normal" in="SourceGraphic" in2="effect1_dropShadow_16067_2016" result="shape"/>
<feColorMatrix in="SourceAlpha" type="matrix" values="0 0 0 0 0 0 0 0 0 0 0 0 0 0 0 0 0 0 127 0" result="hardAlpha"/>
<feOffset dx="2" dy="2"/>
<feGaussianBlur stdDeviation="2"/>
<feComposite in2="hardAlpha" operator="arithmetic" k2="-1" k3="1"/>
<feColorMatrix type="matrix" values="0 0 0 0 1 0 0 0 0 1 0 0 0 0 1 0 0 0 0.28 0"/>
<feBlend mode="normal" in2="shape" result="effect2_innerShadow_16067_2016"/>
</filter>
<filter id="filter10_di_16067_2016" x="35.9551" y="113.899" width="10.998" height="10.9978" filterUnits="userSpaceOnUse" color-interpolation-filters="sRGB">
<feFlood flood-opacity="0" result="BackgroundImageFix"/>
<feColorMatrix in="SourceAlpha" type="matrix" values="0 0 0 0 0 0 0 0 0 0 0 0 0 0 0 0 0 0 127 0" result="hardAlpha"/>
<feOffset dy="4"/>
<feGaussianBlur stdDeviation="2"/>
<feComposite in2="hardAlpha" operator="out"/>
<feColorMatrix type="matrix" values="0 0 0 0 0 0 0 0 0 0 0 0 0 0 0 0 0 0 0.06 0"/>
<feBlend mode="normal" in2="BackgroundImageFix" result="effect1_dropShadow_16067_2016"/>
<feBlend mode="normal" in="SourceGraphic" in2="effect1_dropShadow_16067_2016" result="shape"/>
<feColorMatrix in="SourceAlpha" type="matrix" values="0 0 0 0 0 0 0 0 0 0 0 0 0 0 0 0 0 0 127 0" result="hardAlpha"/>
<feOffset dx="2" dy="2"/>
<feGaussianBlur stdDeviation="2"/>
<feComposite in2="hardAlpha" operator="arithmetic" k2="-1" k3="1"/>
<feColorMatrix type="matrix" values="0 0 0 0 1 0 0 0 0 1 0 0 0 0 1 0 0 0 0.28 0"/>
<feBlend mode="normal" in2="shape" result="effect2_innerShadow_16067_2016"/>
</filter>
<filter id="filter11_di_16067_2016" x="137.068" y="0.5" width="11" height="11" filterUnits="userSpaceOnUse" color-interpolation-filters="sRGB">
<feFlood flood-opacity="0" result="BackgroundImageFix"/>
<feColorMatrix in="SourceAlpha" type="matrix" values="0 0 0 0 0 0 0 0 0 0 0 0 0 0 0 0 0 0 127 0" result="hardAlpha"/>
<feOffset dy="4"/>
<feGaussianBlur stdDeviation="2"/>
<feComposite in2="hardAlpha" operator="out"/>
<feColorMatrix type="matrix" values="0 0 0 0 0 0 0 0 0 0 0 0 0 0 0 0 0 0 0.06 0"/>
<feBlend mode="normal" in2="BackgroundImageFix" result="effect1_dropShadow_16067_2016"/>
<feBlend mode="normal" in="SourceGraphic" in2="effect1_dropShadow_16067_2016" result="shape"/>
<feColorMatrix in="SourceAlpha" type="matrix" values="0 0 0 0 0 0 0 0 0 0 0 0 0 0 0 0 0 0 127 0" result="hardAlpha"/>
<feOffset dx="2" dy="2"/>
<feGaussianBlur stdDeviation="2"/>
<feComposite in2="hardAlpha" operator="arithmetic" k2="-1" k3="1"/>
<feColorMatrix type="matrix" values="0 0 0 0 1 0 0 0 0 1 0 0 0 0 1 0 0 0 0.28 0"/>
<feBlend mode="normal" in2="shape" result="effect2_innerShadow_16067_2016"/>
</filter>
<filter id="filter12_d_16067_2016" x="47" y="42" width="128" height="128" filterUnits="userSpaceOnUse" color-interpolation-filters="sRGB">
<feFlood flood-opacity="0" result="BackgroundImageFix"/>
<feColorMatrix in="SourceAlpha" type="matrix" values="0 0 0 0 0 0 0 0 0 0 0 0 0 0 0 0 0 0 127 0" result="hardAlpha"/>
<feOffset/>
<feGaussianBlur stdDeviation="10"/>
<feComposite in2="hardAlpha" operator="out"/>
<feColorMatrix type="matrix" values="0 0 0 0 0 0 0 0 0 0 0 0 0 0 0 0 0 0 0.06 0"/>
<feBlend mode="normal" in2="BackgroundImageFix" result="effect1_dropShadow_16067_2016"/>
<feBlend mode="normal" in="SourceGraphic" in2="effect1_dropShadow_16067_2016" result="shape"/>
</filter>
<filter id="filter13_di_16067_2016" x="93.0664" y="92.0669" width="35.8672" height="35.8662" filterUnits="userSpaceOnUse" color-interpolation-filters="sRGB">
<feFlood flood-opacity="0" result="BackgroundImageFix"/>
<feColorMatrix in="SourceAlpha" type="matrix" values="0 0 0 0 0 0 0 0 0 0 0 0 0 0 0 0 0 0 127 0" result="hardAlpha"/>
<feOffset dy="4"/>
<feGaussianBlur stdDeviation="3"/>
<feComposite in2="hardAlpha" operator="out"/>
<feColorMatrix type="matrix" values="0 0 0 0 0 0 0 0 0 0 0 0 0 0 0 0 0 0 0.1 0"/>
<feBlend mode="normal" in2="BackgroundImageFix" result="effect1_dropShadow_16067_2016"/>
<feBlend mode="normal" in="SourceGraphic" in2="effect1_dropShadow_16067_2016" result="shape"/>
<feColorMatrix in="SourceAlpha" type="matrix" values="0 0 0 0 0 0 0 0 0 0 0 0 0 0 0 0 0 0 127 0" result="hardAlpha"/>
<feOffset dy="10"/>
<feGaussianBlur stdDeviation="7.5"/>
<feComposite in2="hardAlpha" operator="arithmetic" k2="-1" k3="1"/>
<feColorMatrix type="matrix" values="0 0 0 0 0 0 0 0 0 0 0 0 0 0 0 0 0 0 0.1 0"/>
<feBlend mode="normal" in2="shape" result="effect2_innerShadow_16067_2016"/>
</filter>
<linearGradient id="paint0_linear_16067_2016" x1="5" y1="17" x2="19" y2="31" gradientUnits="userSpaceOnUse">
<stop stop-color="#DC2626"/>
<stop offset="1" stop-color="#AE1919"/>
</linearGradient>
<linearGradient id="paint1_linear_16067_2016" x1="5" y1="17" x2="19.07" y2="31.07" gradientUnits="userSpaceOnUse">
<stop stop-opacity="0.24"/>
<stop offset="1" stop-color="white" stop-opacity="0"/>
</linearGradient>
<linearGradient id="paint2_linear_16067_2016" x1="29.7334" y1="67.3414" x2="19.4301" y2="72.015" gradientUnits="userSpaceOnUse">
<stop stop-color="#DC2626"/>
<stop offset="1" stop-color="#AE1919"/>
</linearGradient>
<linearGradient id="paint3_linear_16067_2016" x1="29.7334" y1="67.3414" x2="19.3786" y2="72.0384" gradientUnits="userSpaceOnUse">
<stop stop-opacity="0.24"/>
<stop offset="1" stop-color="white" stop-opacity="0"/>
</linearGradient>
<linearGradient id="paint4_linear_16067_2016" x1="212.157" y1="94.5896" x2="220.157" y2="102.59" gradientUnits="userSpaceOnUse">
<stop stop-color="#DC2626"/>
<stop offset="1" stop-color="#AE1919"/>
</linearGradient>
<linearGradient id="paint5_linear_16067_2016" x1="212.157" y1="94.5896" x2="220.197" y2="102.63" gradientUnits="userSpaceOnUse">
<stop stop-opacity="0.24"/>
<stop offset="1" stop-color="white" stop-opacity="0"/>
</linearGradient>
<linearGradient id="paint6_linear_16067_2016" x1="61.1089" y1="31.3912" x2="67.4183" y2="22.0002" gradientUnits="userSpaceOnUse">
<stop stop-color="#DC2626"/>
<stop offset="1" stop-color="#AE1919"/>
</linearGradient>
<linearGradient id="paint7_linear_16067_2016" x1="61.1089" y1="31.3912" x2="67.4498" y2="21.9532" gradientUnits="userSpaceOnUse">
<stop stop-opacity="0.24"/>
<stop offset="1" stop-color="white" stop-opacity="0"/>
</linearGradient>
<linearGradient id="paint8_linear_16067_2016" x1="195.398" y1="144.501" x2="190.105" y2="146.495" gradientUnits="userSpaceOnUse">
<stop stop-color="#DC2626"/>
<stop offset="1" stop-color="#AE1919"/>
</linearGradient>
<linearGradient id="paint9_linear_16067_2016" x1="195.398" y1="144.501" x2="190.078" y2="146.505" gradientUnits="userSpaceOnUse">
<stop stop-opacity="0.24"/>
<stop offset="1" stop-color="white" stop-opacity="0"/>
</linearGradient>
<linearGradient id="paint10_linear_16067_2016" x1="185.399" y1="74.5013" x2="180.106" y2="76.4954" gradientUnits="userSpaceOnUse">
<stop stop-color="#DC2626"/>
<stop offset="1" stop-color="#AE1919"/>
</linearGradient>
<linearGradient id="paint11_linear_16067_2016" x1="185.399" y1="74.5013" x2="180.079" y2="76.5053" gradientUnits="userSpaceOnUse">
<stop stop-opacity="0.24"/>
<stop offset="1" stop-color="white" stop-opacity="0"/>
</linearGradient>
<linearGradient id="paint12_linear_16067_2016" x1="37.4826" y1="149.774" x2="36.6129" y2="144.184" gradientUnits="userSpaceOnUse">
<stop stop-color="#DC2626"/>
<stop offset="1" stop-color="#AE1919"/>
</linearGradient>
<linearGradient id="paint13_linear_16067_2016" x1="37.4826" y1="149.774" x2="36.6086" y2="144.156" gradientUnits="userSpaceOnUse">
<stop stop-opacity="0.24"/>
<stop offset="1" stop-color="white" stop-opacity="0"/>
</linearGradient>
<linearGradient id="paint14_linear_16067_2016" x1="217" y1="34" x2="221" y2="38" gradientUnits="userSpaceOnUse">
<stop stop-color="#DC2626"/>
<stop offset="1" stop-color="#AE1919"/>
</linearGradient>
<linearGradient id="paint15_linear_16067_2016" x1="217" y1="34" x2="221.02" y2="38.02" gradientUnits="userSpaceOnUse">
<stop stop-opacity="0.24"/>
<stop offset="1" stop-color="white" stop-opacity="0"/>
</linearGradient>
<linearGradient id="paint16_linear_16067_2016" x1="110.504" y1="29.0203" x2="113.659" y2="24.3247" gradientUnits="userSpaceOnUse">
<stop stop-color="#DC2626"/>
<stop offset="1" stop-color="#AE1919"/>
</linearGradient>
<linearGradient id="paint17_linear_16067_2016" x1="110.504" y1="29.0203" x2="113.674" y2="24.3013" gradientUnits="userSpaceOnUse">
<stop stop-opacity="0.24"/>
<stop offset="1" stop-color="white" stop-opacity="0"/>
</linearGradient>
<linearGradient id="paint18_linear_16067_2016" x1="160.215" y1="137.353" x2="157.568" y2="138.35" gradientUnits="userSpaceOnUse">
<stop stop-color="#DC2626"/>
<stop offset="1" stop-color="#AE1919"/>
</linearGradient>
<linearGradient id="paint19_linear_16067_2016" x1="160.215" y1="137.353" x2="157.555" y2="138.355" gradientUnits="userSpaceOnUse">
<stop stop-opacity="0.24"/>
<stop offset="1" stop-color="white" stop-opacity="0"/>
</linearGradient>
<linearGradient id="paint20_linear_16067_2016" x1="41.6715" y1="116.795" x2="41.2366" y2="114" gradientUnits="userSpaceOnUse">
<stop stop-color="#DC2626"/>
<stop offset="1" stop-color="#AE1919"/>
</linearGradient>
<linearGradient id="paint21_linear_16067_2016" x1="41.6715" y1="116.795" x2="41.2344" y2="113.986" gradientUnits="userSpaceOnUse">
<stop stop-opacity="0.24"/>
<stop offset="1" stop-color="white" stop-opacity="0"/>
</linearGradient>
<linearGradient id="paint22_linear_16067_2016" x1="141.568" y1="1" x2="143.568" y2="3" gradientUnits="userSpaceOnUse">
<stop stop-color="#DC2626"/>
<stop offset="1" stop-color="#AE1919"/>
</linearGradient>
<linearGradient id="paint23_linear_16067_2016" x1="141.568" y1="1" x2="143.578" y2="3.01" gradientUnits="userSpaceOnUse">
<stop stop-opacity="0.24"/>
<stop offset="1" stop-color="white" stop-opacity="0"/>
</linearGradient>
<linearGradient id="paint24_linear_16067_2016" x1="77.667" y1="72.6667" x2="144.334" y2="139.333" gradientUnits="userSpaceOnUse">
<stop stop-color="#DC2626"/>
<stop offset="1" stop-color="#AE1919"/>
</linearGradient>
<clipPath id="clip0_16067_2016">
<rect width="226" height="170" fill="white"/>
</clipPath>
</defs>
</svg>
