<svg width="18" height="19" viewBox="0 0 18 19" fill="none" xmlns="http://www.w3.org/2000/svg">
<path d="M9.77143 2.00092C10.3187 1.99882 10.866 2.00432 11.4132 2.01742L11.5587 2.02267C11.7267 2.02867 11.8924 2.03617 12.0927 2.04517C12.8907 2.08267 13.4352 2.20867 13.9129 2.39392C14.4079 2.58442 14.8249 2.84242 15.2419 3.25942C15.6232 3.63413 15.9183 4.08738 16.1067 4.58767C16.2919 5.06542 16.4179 5.61067 16.4554 6.40867C16.4644 6.60817 16.4719 6.77467 16.4779 6.94267L16.4824 7.08817C16.4958 7.63507 16.5015 8.18212 16.4997 8.72917L16.5004 9.28867V10.2712C16.5023 10.8185 16.4965 11.3658 16.4832 11.9129L16.4787 12.0584C16.4727 12.2264 16.4652 12.3922 16.4562 12.5924C16.4187 13.3904 16.2912 13.9349 16.1067 14.4127C15.9189 14.9135 15.6238 15.3671 15.2419 15.7417C14.8669 16.1229 14.4134 16.418 13.9129 16.6064C13.4352 16.7917 12.8907 16.9177 12.0927 16.9552C11.8924 16.9642 11.7267 16.9717 11.5587 16.9777L11.4132 16.9822C10.866 16.9955 10.3187 17.0013 9.77143 16.9994L9.21193 17.0002H8.23018C7.68288 17.002 7.13558 16.9963 6.58843 16.9829L6.44293 16.9784C6.26489 16.972 6.08689 16.9645 5.90893 16.9559C5.11093 16.9184 4.56643 16.7909 4.08793 16.6064C3.58745 16.4184 3.13411 16.1233 2.75968 15.7417C2.37797 15.3669 2.0826 14.9133 1.89418 14.4127C1.70893 13.9349 1.58293 13.3904 1.54543 12.5924C1.53708 12.4145 1.52958 12.2365 1.52293 12.0584L1.51918 11.9129C1.50536 11.3658 1.4991 10.8185 1.50043 10.2712V8.72917C1.49834 8.18212 1.50384 7.63507 1.51693 7.08817L1.52218 6.94267C1.52818 6.77467 1.53568 6.60817 1.54468 6.40867C1.58218 5.60992 1.70818 5.06617 1.89343 4.58767C2.08196 4.08714 2.37791 3.63401 2.76043 3.26017C3.1346 2.87824 3.58765 2.5826 4.08793 2.39392C4.56643 2.20867 5.11018 2.08267 5.90893 2.04517L6.44293 2.02267L6.58843 2.01892C7.13532 2.0051 7.68237 1.99885 8.22943 2.00017L9.77143 2.00092ZM9.00043 5.75092C8.50356 5.7439 8.01025 5.83569 7.54917 6.02097C7.08808 6.20626 6.66842 6.48133 6.31457 6.83021C5.96072 7.1791 5.67973 7.59483 5.48795 8.05325C5.29616 8.51166 5.1974 9.00363 5.1974 9.50055C5.1974 9.99747 5.29616 10.4894 5.48795 10.9479C5.67973 11.4063 5.96072 11.822 6.31457 12.1709C6.66842 12.5198 7.08808 12.7948 7.54917 12.9801C8.01025 13.1654 8.50356 13.2572 9.00043 13.2502C9.995 13.2502 10.9488 12.8551 11.6521 12.1518C12.3553 11.4486 12.7504 10.4947 12.7504 9.50017C12.7504 8.50561 12.3553 7.55178 11.6521 6.84852C10.9488 6.14526 9.995 5.75092 9.00043 5.75092ZM9.00043 7.25092C9.29931 7.24542 9.5963 7.29952 9.87403 7.41008C10.1518 7.52064 10.4047 7.68543 10.618 7.89483C10.8313 8.10423 11.0008 8.35405 11.1165 8.62968C11.2322 8.90531 11.2918 9.20123 11.2919 9.50017C11.2919 9.7991 11.2324 10.095 11.1168 10.3707C11.0012 10.6464 10.8318 10.8963 10.6186 11.1057C10.4053 11.3152 10.1524 11.4801 9.87473 11.5907C9.59703 11.7014 9.30007 11.7556 9.00118 11.7502C8.40445 11.7502 7.83215 11.5131 7.41019 11.0912C6.98824 10.6692 6.75118 10.0969 6.75118 9.50017C6.75118 8.90344 6.98824 8.33114 7.41019 7.90918C7.83215 7.48723 8.40445 7.25017 9.00118 7.25017L9.00043 7.25092ZM12.9379 4.62592C12.696 4.63561 12.4672 4.73854 12.2994 4.91315C12.1316 5.08777 12.0379 5.32052 12.0379 5.56267C12.0379 5.80482 12.1316 6.03758 12.2994 6.21219C12.4672 6.38681 12.696 6.48974 12.9379 6.49942C13.1866 6.49942 13.425 6.40065 13.6008 6.22484C13.7767 6.04902 13.8754 5.81056 13.8754 5.56192C13.8754 5.31328 13.7767 5.07483 13.6008 4.89901C13.425 4.7232 13.1866 4.62442 12.9379 4.62442V4.62592Z" fill="#D4D4D4"/>
</svg>
