<svg width="18" height="19" viewBox="0 0 18 19" fill="none" xmlns="http://www.w3.org/2000/svg">
<path d="M5.25 7.03448H8.625M8.625 7.03448H10.875M8.625 7.03448V6M12.75 7.03448H10.875M10.875 7.03448C10.4794 8.4492 9.65092 9.78652 8.70532 10.9618M8.70532 10.9618C7.92232 11.935 7.05904 12.7971 6.29465 13.5M8.70532 10.9618C8.22322 10.3966 7.54823 9.48195 7.35536 9.06818M8.70532 10.9618L10.1518 12.4655" stroke="#A3A3A3" stroke-width="1.125" stroke-linecap="round" stroke-linejoin="round"/>
<path d="M1.875 9.75C1.875 6.39124 1.875 4.71187 2.91843 3.66843C3.96187 2.625 5.64124 2.625 9 2.625C12.3587 2.625 14.0381 2.625 15.0816 3.66843C16.125 4.71187 16.125 6.39124 16.125 9.75C16.125 13.1087 16.125 14.7881 15.0816 15.8316C14.0381 16.875 12.3587 16.875 9 16.875C5.64124 16.875 3.96187 16.875 2.91843 15.8316C1.875 14.7881 1.875 13.1087 1.875 9.75Z" stroke="#A3A3A3" stroke-width="1.125"/>
</svg>
