<svg width="18" height="19" viewBox="0 0 18 19" fill="none" xmlns="http://www.w3.org/2000/svg">
<path d="M5.20508 4.24977C5.20488 4.6476 5.04665 5.02905 4.76521 5.31021C4.48376 5.59138 4.10215 5.74922 3.70433 5.74902C3.3065 5.74882 2.92505 5.5906 2.64389 5.30915C2.36272 5.02771 2.20488 4.6461 2.20508 4.24827C2.20528 3.85045 2.3635 3.469 2.64495 3.18783C2.92639 2.90667 3.308 2.74882 3.70583 2.74902C4.10365 2.74922 4.48511 2.90745 4.76627 3.18889C5.04743 3.47034 5.20528 3.85195 5.20508 4.24977ZM5.25008 6.85977H2.25008V16.2498H5.25008V6.85977ZM9.99008 6.85977H7.00508V16.2498H9.96008V11.3223C9.96008 8.57727 13.5376 8.32227 13.5376 11.3223V16.2498H16.5001V10.3023C16.5001 5.67477 11.2051 5.84727 9.96008 8.11977L9.99008 6.85977Z" fill="#D4D4D4"/>
</svg>
