<svg width="204" height="21" viewBox="0 0 204 21" fill="none" xmlns="http://www.w3.org/2000/svg">
<path d="M5.026 16.668C4.22333 16.668 3.50933 16.5 2.884 16.164C2.268 15.828 1.78267 15.366 1.428 14.778C1.07333 14.19 0.896 13.5227 0.896 12.776V6.07H2.8V12.678C2.8 13.1073 2.89333 13.4947 3.08 13.84C3.276 14.1853 3.542 14.456 3.878 14.652C4.214 14.8387 4.59667 14.932 5.026 14.932C5.46467 14.932 5.84733 14.8387 6.174 14.652C6.51 14.456 6.77133 14.1853 6.958 13.84C7.154 13.4947 7.252 13.1073 7.252 12.678V6.07H9.156V12.776C9.156 13.5227 8.97867 14.19 8.624 14.778C8.26933 15.366 7.77933 15.828 7.154 16.164C6.538 16.5 5.82867 16.668 5.026 16.668ZM11.6168 16.5V6.07H15.5088C16.2182 6.07 16.8435 6.20067 17.3848 6.462C17.9355 6.714 18.3648 7.08733 18.6728 7.582C18.9808 8.06733 19.1348 8.66 19.1348 9.36C19.1348 10.0507 18.9762 10.6433 18.6588 11.138C18.3508 11.6233 17.9262 11.9967 17.3848 12.258C16.8435 12.5193 16.2182 12.65 15.5088 12.65H13.5208V16.5H11.6168ZM13.5208 10.97H15.5368C15.8822 10.97 16.1808 10.9047 16.4328 10.774C16.6848 10.634 16.8808 10.4427 17.0208 10.2C17.1608 9.95733 17.2308 9.67733 17.2308 9.36C17.2308 9.03333 17.1608 8.75333 17.0208 8.52C16.8808 8.27733 16.6848 8.09067 16.4328 7.96C16.1808 7.82 15.8822 7.75 15.5368 7.75H13.5208V10.97ZM23.103 16.5V7.75H20.401V6.07H27.681V7.75H25.021V16.5H23.103ZM34.117 16.668C33.3517 16.668 32.6377 16.5327 31.975 16.262C31.3123 15.9913 30.7337 15.6133 30.239 15.128C29.7443 14.6427 29.357 14.0733 29.077 13.42C28.8063 12.7573 28.671 12.0433 28.671 11.278C28.671 10.5033 28.8063 9.78933 29.077 9.136C29.3477 8.48267 29.7303 7.91333 30.225 7.428C30.7197 6.94267 31.2983 6.56933 31.961 6.308C32.6237 6.03733 33.3423 5.902 34.117 5.902C34.8917 5.902 35.6103 6.03733 36.273 6.308C36.9357 6.57867 37.5143 6.95667 38.009 7.442C38.5037 7.918 38.8863 8.48267 39.157 9.136C39.437 9.78933 39.577 10.5033 39.577 11.278C39.577 12.0433 39.437 12.7573 39.157 13.42C38.877 14.0733 38.4897 14.6427 37.995 15.128C37.5003 15.6133 36.9217 15.9913 36.259 16.262C35.6057 16.5327 34.8917 16.668 34.117 16.668ZM34.117 14.932C34.6303 14.932 35.1017 14.8433 35.531 14.666C35.9603 14.4793 36.3337 14.2227 36.651 13.896C36.9777 13.5693 37.225 13.182 37.393 12.734C37.5703 12.286 37.659 11.8007 37.659 11.278C37.659 10.7553 37.5703 10.2747 37.393 9.836C37.225 9.388 36.9777 9.00067 36.651 8.674C36.3337 8.338 35.9603 8.08133 35.531 7.904C35.1017 7.72667 34.6303 7.638 34.117 7.638C33.613 7.638 33.1463 7.72667 32.717 7.904C32.2877 8.08133 31.9097 8.338 31.583 8.674C31.2657 9.00067 31.0183 9.388 30.841 9.836C30.6637 10.2747 30.575 10.7553 30.575 11.278C30.575 11.8007 30.6637 12.286 30.841 12.734C31.0183 13.182 31.2657 13.5693 31.583 13.896C31.9097 14.2227 32.2877 14.4793 32.717 14.666C33.1463 14.8433 33.613 14.932 34.117 14.932ZM41.83 16.5V6.07H45.708C46.4174 6.07 47.0427 6.20067 47.584 6.462C48.1347 6.714 48.564 7.08733 48.872 7.582C49.18 8.06733 49.334 8.66 49.334 9.36C49.334 10.0787 49.1614 10.69 48.816 11.194C48.48 11.698 48.0227 12.0713 47.444 12.314L49.838 16.5H47.682L45.12 11.922L46.352 12.65H43.734V16.5H41.83ZM43.734 10.97H45.736C46.0814 10.97 46.38 10.9047 46.632 10.774C46.884 10.634 47.08 10.4427 47.22 10.2C47.36 9.95733 47.43 9.67733 47.43 9.36C47.43 9.03333 47.36 8.75333 47.22 8.52C47.08 8.27733 46.884 8.09067 46.632 7.96C46.38 7.82 46.0814 7.75 45.736 7.75H43.734V10.97Z" fill="white"/>
<path d="M60.276 15.668C59.6973 15.668 59.2167 15.57 58.834 15.374C58.4513 15.178 58.1667 14.9167 57.98 14.59C57.7933 14.2633 57.7 13.9087 57.7 13.526C57.7 12.8167 57.9707 12.2707 58.512 11.888C59.0533 11.5053 59.7907 11.314 60.724 11.314H62.6V11.23C62.6 10.6233 62.4413 10.166 62.124 9.858C61.8067 9.54067 61.382 9.382 60.85 9.382C60.3927 9.382 59.996 9.49867 59.66 9.732C59.3333 9.956 59.128 10.2873 59.044 10.726H57.84C57.8867 10.222 58.0547 9.79733 58.344 9.452C58.6427 9.10667 59.0113 8.84533 59.45 8.668C59.8887 8.48133 60.3553 8.388 60.85 8.388C61.8207 8.388 62.5487 8.64933 63.034 9.172C63.5287 9.68533 63.776 10.3713 63.776 11.23V15.5H62.726L62.656 14.254C62.46 14.646 62.1707 14.982 61.788 15.262C61.4147 15.5327 60.9107 15.668 60.276 15.668ZM60.458 14.674C60.906 14.674 61.2887 14.5573 61.606 14.324C61.9327 14.0907 62.18 13.7873 62.348 13.414C62.516 13.0407 62.6 12.6487 62.6 12.238V12.224H60.822C60.1313 12.224 59.6413 12.3453 59.352 12.588C59.072 12.8213 58.932 13.1153 58.932 13.47C58.932 13.834 59.0627 14.128 59.324 14.352C59.5947 14.5667 59.9727 14.674 60.458 14.674ZM69.3153 15.5V5.7H72.5353C73.3006 5.7 73.9306 5.826 74.4253 6.078C74.92 6.33 75.284 6.67067 75.5173 7.1C75.76 7.52933 75.8813 8.01467 75.8813 8.556C75.8813 9.088 75.7646 9.56867 75.5313 9.998C75.298 10.4273 74.934 10.7727 74.4393 11.034C73.9446 11.286 73.31 11.412 72.5353 11.412H70.4913V15.5H69.3153ZM70.4913 10.418H72.5073C73.2913 10.418 73.8466 10.2547 74.1733 9.928C74.5093 9.592 74.6773 9.13467 74.6773 8.556C74.6773 7.968 74.5093 7.51067 74.1733 7.184C73.8466 6.848 73.2913 6.68 72.5073 6.68H70.4913V10.418ZM77.3527 15.5V8.556H78.4167L78.5147 9.886C78.7294 9.42867 79.0561 9.06467 79.4947 8.794C79.9334 8.52333 80.4747 8.388 81.1187 8.388V9.62H80.7967C80.3861 9.62 80.0081 9.69467 79.6627 9.844C79.3174 9.984 79.0421 10.2267 78.8367 10.572C78.6314 10.9173 78.5287 11.3933 78.5287 12V15.5H77.3527ZM85.3429 15.668C84.6896 15.668 84.1016 15.5187 83.5789 15.22C83.0562 14.9213 82.6409 14.5013 82.3329 13.96C82.0342 13.4093 81.8849 12.7653 81.8849 12.028C81.8849 11.2907 82.0389 10.6513 82.3469 10.11C82.6549 9.55933 83.0702 9.13467 83.5929 8.836C84.1249 8.53733 84.7176 8.388 85.3709 8.388C86.0242 8.388 86.6122 8.53733 87.1349 8.836C87.6576 9.13467 88.0682 9.55933 88.3669 10.11C88.6749 10.6513 88.8289 11.2907 88.8289 12.028C88.8289 12.7653 88.6749 13.4093 88.3669 13.96C88.0589 14.5013 87.6389 14.9213 87.1069 15.22C86.5842 15.5187 85.9962 15.668 85.3429 15.668ZM85.3429 14.66C85.7442 14.66 86.1176 14.562 86.4629 14.366C86.8082 14.17 87.0882 13.876 87.3029 13.484C87.5176 13.092 87.6249 12.6067 87.6249 12.028C87.6249 11.4493 87.5176 10.964 87.3029 10.572C87.0976 10.18 86.8222 9.886 86.4769 9.69C86.1316 9.494 85.7629 9.396 85.3709 9.396C84.9696 9.396 84.5962 9.494 84.2509 9.69C83.9056 9.886 83.6256 10.18 83.4109 10.572C83.1962 10.964 83.0889 11.4493 83.0889 12.028C83.0889 12.6067 83.1962 13.092 83.4109 13.484C83.6256 13.876 83.9009 14.17 84.2369 14.366C84.5822 14.562 84.9509 14.66 85.3429 14.66ZM93.614 15.668C92.9234 15.668 92.3167 15.5093 91.794 15.192C91.2807 14.8747 90.8794 14.4407 90.59 13.89C90.31 13.3393 90.17 12.714 90.17 12.014C90.17 11.314 90.3147 10.6933 90.604 10.152C90.8934 9.60133 91.2947 9.172 91.808 8.864C92.3214 8.54667 92.928 8.388 93.628 8.388C94.1974 8.388 94.7014 8.50467 95.14 8.738C95.5787 8.97133 95.9194 9.298 96.162 9.718V5.42H97.338V15.5H96.274L96.162 14.352C95.938 14.688 95.616 14.9913 95.196 15.262C94.776 15.5327 94.2487 15.668 93.614 15.668ZM93.74 14.646C94.2067 14.646 94.6174 14.5387 94.972 14.324C95.336 14.1 95.616 13.792 95.812 13.4C96.0174 13.008 96.12 12.5507 96.12 12.028C96.12 11.5053 96.0174 11.048 95.812 10.656C95.616 10.264 95.336 9.96067 94.972 9.746C94.6174 9.522 94.2067 9.41 93.74 9.41C93.2827 9.41 92.872 9.522 92.508 9.746C92.1534 9.96067 91.8734 10.264 91.668 10.656C91.472 11.048 91.374 11.5053 91.374 12.028C91.374 12.5507 91.472 13.008 91.668 13.4C91.8734 13.792 92.1534 14.1 92.508 14.324C92.872 14.5387 93.2827 14.646 93.74 14.646ZM101.789 15.668C100.968 15.668 100.314 15.4207 99.8291 14.926C99.3437 14.422 99.1011 13.652 99.1011 12.616V8.556H100.277V12.49C100.277 13.9367 100.87 14.66 102.055 14.66C102.662 14.66 103.161 14.4453 103.553 14.016C103.954 13.5773 104.155 12.9567 104.155 12.154V8.556H105.331V15.5H104.267L104.183 14.254C103.968 14.6927 103.646 15.038 103.217 15.29C102.797 15.542 102.321 15.668 101.789 15.668ZM110.459 15.668C109.796 15.668 109.199 15.5187 108.667 15.22C108.144 14.912 107.729 14.4873 107.421 13.946C107.122 13.3953 106.973 12.756 106.973 12.028C106.973 11.3 107.122 10.6653 107.421 10.124C107.729 9.57333 108.144 9.14867 108.667 8.85C109.199 8.542 109.796 8.388 110.459 8.388C111.28 8.388 111.971 8.60267 112.531 9.032C113.1 9.46133 113.459 10.0353 113.609 10.754H112.405C112.311 10.3247 112.083 9.99333 111.719 9.76C111.355 9.51733 110.93 9.396 110.445 9.396C110.053 9.396 109.684 9.494 109.339 9.69C108.993 9.886 108.713 10.18 108.499 10.572C108.284 10.964 108.177 11.4493 108.177 12.028C108.177 12.6067 108.284 13.092 108.499 13.484C108.713 13.876 108.993 14.1747 109.339 14.38C109.684 14.576 110.053 14.674 110.445 14.674C110.93 14.674 111.355 14.5573 111.719 14.324C112.083 14.0813 112.311 13.7407 112.405 13.302H113.609C113.469 14.002 113.114 14.5713 112.545 15.01C111.975 15.4487 111.28 15.668 110.459 15.668ZM117.804 15.5C117.169 15.5 116.67 15.346 116.306 15.038C115.942 14.73 115.76 14.1747 115.76 13.372V9.55H114.556V8.556H115.76L115.914 6.89H116.936V8.556H118.98V9.55H116.936V13.372C116.936 13.8107 117.024 14.1093 117.202 14.268C117.379 14.4173 117.692 14.492 118.14 14.492H118.868V15.5H117.804ZM127.343 15.668C126.69 15.668 126.102 15.5187 125.579 15.22C125.056 14.9213 124.641 14.5013 124.333 13.96C124.034 13.4093 123.885 12.7653 123.885 12.028C123.885 11.2907 124.039 10.6513 124.347 10.11C124.655 9.55933 125.07 9.13467 125.593 8.836C126.125 8.53733 126.718 8.388 127.371 8.388C128.024 8.388 128.612 8.53733 129.135 8.836C129.658 9.13467 130.068 9.55933 130.367 10.11C130.675 10.6513 130.829 11.2907 130.829 12.028C130.829 12.7653 130.675 13.4093 130.367 13.96C130.059 14.5013 129.639 14.9213 129.107 15.22C128.584 15.5187 127.996 15.668 127.343 15.668ZM127.343 14.66C127.744 14.66 128.118 14.562 128.463 14.366C128.808 14.17 129.088 13.876 129.303 13.484C129.518 13.092 129.625 12.6067 129.625 12.028C129.625 11.4493 129.518 10.964 129.303 10.572C129.098 10.18 128.822 9.886 128.477 9.69C128.132 9.494 127.763 9.396 127.371 9.396C126.97 9.396 126.596 9.494 126.251 9.69C125.906 9.886 125.626 10.18 125.411 10.572C125.196 10.964 125.089 11.4493 125.089 12.028C125.089 12.6067 125.196 13.092 125.411 13.484C125.626 13.876 125.901 14.17 126.237 14.366C126.582 14.562 126.951 14.66 127.343 14.66ZM132.842 15.5V9.55H131.792V8.556H132.842V7.352C132.842 6.68 133.01 6.19 133.346 5.882C133.682 5.574 134.172 5.42 134.816 5.42H135.516V6.428H134.998C134.643 6.428 134.391 6.50267 134.242 6.652C134.093 6.792 134.018 7.03467 134.018 7.38V8.556H135.726V9.55H134.018V15.5H132.842Z" fill="#A3A3A3"/>
<g clip-path="url(#clip0_3775_16289)">
<path d="M191.995 14.2944C192.015 13.9816 191.917 13.8927 191.592 13.8948C189.437 13.9095 187.282 13.8983 185.128 13.9074C184.865 13.9085 184.764 13.848 184.775 13.5732C184.797 13.0432 184.802 12.5107 184.774 11.981C184.756 11.6576 184.868 11.587 185.183 11.5891C187.234 11.6028 189.286 11.5905 191.337 11.6032C191.624 11.6049 191.724 11.5371 191.705 11.2482C191.68 10.845 191.675 10.438 191.703 10.0356C191.726 9.70767 191.6 9.64511 191.289 9.64721C189.251 9.66127 187.212 9.64721 185.174 9.66338C184.842 9.66584 184.76 9.56743 184.775 9.25883C184.801 8.75447 184.81 8.24588 184.773 7.74292C184.746 7.36298 184.883 7.28882 185.247 7.29163C187.376 7.30815 189.504 7.29339 191.633 7.30463C191.918 7.30604 192.016 7.24488 191.998 6.95316C191.969 6.51241 191.969 6.0678 191.993 5.62669C192.009 5.34481 191.897 5.29877 191.64 5.29982C188.815 5.30896 185.989 5.31212 183.164 5.30158C182.866 5.30053 182.799 5.38839 182.801 5.66536C182.814 7.3085 182.807 8.952 182.807 10.5951C182.807 12.2383 182.815 13.8818 182.8 15.5249C182.797 15.83 182.891 15.9073 183.192 15.8992C183.952 15.8789 184.714 15.8926 185.475 15.8922C187.526 15.8922 189.578 15.8866 191.629 15.8978C191.912 15.8992 192.017 15.8388 191.997 15.5443C191.969 15.1288 191.97 14.7092 191.995 14.2937V14.2944Z" fill="white"/>
<path d="M203.983 12.2095C203.897 11.2103 203.374 10.5172 202.39 10.1361C201.717 9.87557 201.013 9.73737 200.299 9.63441C199.211 9.4772 198.109 9.4195 197.031 9.19665C196.66 9.11961 196.286 9.04083 195.973 8.81832C195.497 8.48008 195.481 7.90827 195.928 7.5403C196.219 7.30018 196.576 7.21829 196.941 7.16992C198.555 6.95536 200.125 7.08113 201.657 7.65086C201.991 7.77525 202.281 8.21473 202.616 8.03057C202.909 7.86922 203.049 7.45669 203.255 7.15403C203.82 6.32516 203.826 6.30962 202.846 5.89743C200.706 4.99842 198.489 4.90825 196.227 5.38228C195.855 5.46036 195.502 5.59753 195.166 5.77028C194.098 6.31998 193.557 7.16163 193.603 8.32183C193.651 9.51866 194.284 10.3227 195.448 10.7656C196.469 11.1536 197.542 11.3042 198.625 11.42C199.575 11.5212 200.534 11.5927 201.426 11.9555C202.138 12.245 202.225 13.0774 201.599 13.5182C201.384 13.6696 201.14 13.7663 200.879 13.8012C198.743 14.0866 196.663 14.0078 194.754 12.9063C194.584 12.8082 194.497 12.794 194.397 12.9758C194.276 13.1955 194.127 13.4011 193.991 13.6136C193.618 14.1982 193.752 14.654 194.393 14.9811C195.796 15.7001 197.321 15.877 198.482 15.8991C199.844 15.907 200.794 15.8238 201.709 15.5232C203.377 14.9756 204.127 13.8762 203.983 12.2095H203.983Z" fill="white"/>
<path d="M163.844 13.8988C162.071 13.9111 160.297 13.8942 158.524 13.9146C158.172 13.9188 158.102 13.8075 158.103 13.4705C158.116 10.8687 158.106 8.26651 158.116 5.66469C158.117 5.38887 158.063 5.28241 157.774 5.30209C157.37 5.3302 156.96 5.33582 156.556 5.3063C156.242 5.28347 156.198 5.41347 156.2 5.69561C156.212 7.32487 156.206 8.95412 156.206 10.5837C156.206 12.2509 156.21 13.9181 156.202 15.5853C156.201 15.8004 156.23 15.9005 156.476 15.8998C158.964 15.891 161.452 15.8917 163.939 15.8998C164.168 15.9005 164.2 15.8077 164.195 15.6099C164.184 15.1556 164.172 14.6996 164.198 14.2463C164.216 13.9487 164.11 13.8963 163.844 13.8981V13.8988Z" fill="white"/>
<path d="M153.278 7.84974C153.278 8.05872 153.279 8.26806 153.277 8.47705C153.276 8.69762 153.237 8.89958 153.539 9.01057C153.781 9.09978 153.735 9.50546 153.476 9.56658C153.259 9.61751 153.276 9.72955 153.277 9.87988C153.278 11.1247 153.279 12.3698 153.277 13.6146C153.275 16.3187 151.057 18.5189 148.339 18.5146C145.647 18.5104 143.439 16.304 143.434 13.6096C143.431 12.3649 143.432 11.1197 143.435 9.87496C143.435 9.7299 143.44 9.61434 143.251 9.5736C143.104 9.54164 143.036 9.41871 143.038 9.25503C143.04 9.10295 143.107 8.9895 143.241 8.96105C143.45 8.91679 143.432 8.77981 143.435 8.62597C143.452 7.9105 143.385 7.19328 143.513 6.48027C143.947 4.06308 146.373 2.25176 148.817 2.52783C151.443 2.82462 153.278 4.87829 153.278 7.52098V7.84974ZM151.535 4.64683L151.54 4.6528C151.52 4.62013 151.501 4.58712 151.481 4.55445C151.409 4.43784 151.31 4.34933 151.2 4.27066H151.199C151.176 4.25204 151.152 4.23272 151.129 4.21376L151.136 4.22078C151.111 4.1983 151.086 4.17547 151.061 4.15299C150.981 4.08942 150.902 4.02585 150.822 3.96227C150.805 3.95279 150.789 3.94295 150.773 3.93347L150.772 3.93207C150.559 3.75083 150.319 3.61912 150.056 3.52604H150.054C150.037 3.51936 150.019 3.51234 150.001 3.50567C149.817 3.39362 149.613 3.33988 149.403 3.30511L149.401 3.30687C149.374 3.30019 149.347 3.29387 149.321 3.2872C149.249 3.27245 149.176 3.2577 149.104 3.24294L149.099 3.24435C149.073 3.24013 149.047 3.23592 149.021 3.2317C148.981 3.22714 148.94 3.22257 148.9 3.218C148.521 3.14495 148.142 3.14881 147.763 3.22398C147.536 3.22292 147.321 3.27912 147.11 3.35464C145.891 3.71781 145.043 4.51231 144.48 5.62958C144.006 6.56808 144.081 7.58421 144.079 8.58909C144.079 8.7201 144.144 8.74609 144.248 8.7194C145.284 8.45492 146.347 8.38327 147.407 8.2937C147.447 8.2937 147.487 8.29335 147.528 8.293C147.766 8.29159 148.006 8.29054 148.245 8.28913C148.522 8.29405 148.8 8.29862 149.078 8.30353C149.358 8.3225 149.638 8.34182 149.918 8.36079C150.297 8.40153 150.675 8.44192 151.054 8.48267C151.551 8.56872 152.048 8.65477 152.545 8.74117C152.658 8.73064 152.62 8.64177 152.621 8.58206C152.624 8.10544 152.644 7.62776 152.62 7.15219C152.575 6.24776 152.242 5.45081 151.657 4.75852C151.643 4.74131 151.629 4.7241 151.615 4.70689C151.588 4.68687 151.562 4.6665 151.535 4.64648V4.64683ZM152.625 11.9711C152.625 11.1173 152.618 10.4102 152.63 9.70356C152.634 9.51038 152.588 9.42749 152.388 9.3892C151.007 9.12402 149.617 8.9621 148.209 8.96034C146.891 8.95859 145.588 9.07625 144.301 9.37059C144.158 9.4036 144.079 9.44435 144.08 9.61821C144.09 11.0024 144.061 12.387 144.097 13.7702C144.154 15.9127 145.914 17.6942 148.074 17.8434C150.223 17.9923 152.197 16.4483 152.559 14.329C152.7 13.4983 152.586 12.6588 152.625 11.9711H152.625Z" fill="#060605"/>
<path d="M152.626 11.9717C152.587 12.6595 152.701 13.4989 152.559 14.3296C152.198 16.4489 150.224 17.993 148.075 17.844C145.915 17.6944 144.155 15.9133 144.098 13.7708C144.062 12.3876 144.091 11.0027 144.081 9.61882C144.08 9.44496 144.158 9.40422 144.302 9.3712C145.589 9.07687 146.892 8.9592 148.21 8.96096C149.618 8.96271 151.008 9.12463 152.388 9.38982C152.588 9.4281 152.635 9.51099 152.631 9.70417C152.618 10.4109 152.626 11.1182 152.626 11.9717H152.626ZM150.433 12.1554C150.539 12.2745 150.66 12.3335 150.816 12.2503C151.02 12.1955 151.104 12.0399 151.107 11.8509C151.117 11.3933 151.127 10.9349 151.106 10.4779C151.088 10.1039 150.784 9.96689 150.458 10.1608C150.33 10.2447 150.289 10.3729 150.289 10.5155C150.287 10.9479 150.287 11.3803 150.288 11.813C150.288 11.9454 150.319 12.0659 150.43 12.1523L150.433 12.1558L150.433 12.1554ZM146.391 11.9496C146.434 11.4312 146.432 10.9128 146.392 10.3943C146.354 10.1566 146.197 10.041 145.975 10.0621C145.734 10.0849 145.61 10.2588 145.606 10.4962C145.599 10.9444 145.6 11.3929 145.606 11.8411C145.609 12.0792 145.734 12.252 145.972 12.2787C146.194 12.3037 146.35 12.1853 146.39 11.9496H146.391ZM148.349 16.7373C148.359 16.7373 148.369 16.7373 148.379 16.7373C150.006 16.7362 151.384 15.4725 151.526 13.8558C151.537 13.7262 151.531 13.6113 151.39 13.5628C151.303 13.533 151.21 13.5344 151.149 13.6225C151.089 13.7082 151.095 13.8112 151.081 13.9092C150.939 14.8614 150.438 15.573 149.591 16.0131C147.891 16.8964 145.827 15.77 145.623 13.8614C145.606 13.7065 145.599 13.5453 145.388 13.553C145.173 13.5611 145.177 13.7209 145.19 13.8779C145.197 13.9569 145.198 14.0374 145.212 14.1153C145.49 15.6358 146.809 16.7376 148.349 16.7373Z" fill="#FCFCFC"/>
<path d="M151.13 4.21387C151.13 4.2164 151.131 4.21784 151.132 4.22001C151.134 4.22001 151.135 4.22109 151.137 4.22109C151.137 4.22109 151.13 4.21387 151.131 4.21387H151.13Z" fill="#F8E260"/>
<path d="M152.545 8.74184C152.659 8.73131 152.621 8.64244 152.622 8.58273C152.625 8.10611 152.645 7.62843 152.621 7.15286C152.576 6.24843 152.242 5.45147 151.658 4.75919C151.644 4.74198 151.63 4.72477 151.616 4.70756C151.59 4.68824 151.565 4.66927 151.539 4.64996C151.52 4.61835 151.501 4.58638 151.482 4.55477C151.411 4.43816 151.311 4.34965 151.201 4.27097L151.2 4.27133C151.159 4.27589 151.137 4.25763 151.132 4.22004C151.093 4.21513 151.071 4.19195 151.062 4.15366C150.982 4.09009 150.903 4.02651 150.823 3.96294C150.806 3.95311 150.79 3.94362 150.774 3.93414C150.763 3.94397 150.752 3.95416 150.741 3.96399C150.752 3.95346 150.763 3.94327 150.773 3.93273C150.561 3.7515 150.32 3.61978 150.057 3.52671H150.056C150.031 3.54813 150.009 3.58115 149.973 3.54567C149.971 3.54427 149.992 3.52003 150.002 3.50634C149.818 3.39429 149.614 3.34055 149.404 3.30578L149.402 3.30754C149.376 3.30086 149.349 3.29454 149.322 3.28787C149.25 3.27312 149.178 3.25836 149.106 3.24361L149.101 3.24502C149.075 3.2408 149.049 3.23659 149.023 3.23237C148.982 3.22781 148.942 3.22324 148.901 3.21867C148.522 3.14562 148.143 3.14948 147.765 3.22464C147.538 3.22359 147.323 3.27979 147.111 3.3553C145.893 3.71848 145.044 4.51298 144.481 5.63025C144.008 6.56875 144.082 7.58488 144.08 8.58976C144.08 8.72077 144.146 8.74676 144.249 8.72007C145.286 8.45559 146.348 8.38393 147.408 8.29437C147.449 8.29437 147.489 8.29402 147.529 8.29367C147.768 8.29226 148.007 8.29121 148.246 8.2898C148.524 8.29472 148.802 8.29929 149.079 8.3042C149.359 8.32317 149.64 8.34249 149.92 8.36146C150.298 8.4022 150.676 8.44259 151.055 8.48333C151.552 8.56939 152.049 8.65544 152.546 8.74184" fill="#F8E260"/>
<path d="M150.054 3.52721C150.03 3.54863 150.008 3.58165 149.972 3.54617C149.97 3.54477 149.991 3.52053 150.001 3.50684C150.019 3.51351 150.036 3.52053 150.054 3.52721Z" fill="#F9E98B"/>
<path d="M150.773 3.93402C150.762 3.94386 150.751 3.95404 150.741 3.96388C150.751 3.95334 150.762 3.94315 150.773 3.93262L150.773 3.93367L150.773 3.93402Z" fill="#F9EC9C"/>
<path d="M151.136 4.22111C151.094 4.2176 151.07 4.19371 151.061 4.15332C151.086 4.1758 151.111 4.19863 151.136 4.22111Z" fill="#FAEFAE"/>
<path d="M151.199 4.2721C151.156 4.27701 151.133 4.25734 151.129 4.21484C151.153 4.23381 151.176 4.25313 151.199 4.2721Z" fill="#FAEFAE"/>
<path d="M148.349 16.7379C146.809 16.7382 145.49 15.6364 145.212 14.1159C145.198 14.0379 145.196 13.9578 145.19 13.8785C145.176 13.7215 145.173 13.5616 145.388 13.5536C145.599 13.5458 145.606 13.7071 145.622 13.8619C145.827 15.7709 147.891 16.897 149.591 16.0136C150.438 15.5732 150.939 14.8619 151.081 13.9097C151.095 13.8121 151.089 13.7088 151.148 13.6231C151.21 13.5349 151.303 13.5335 151.39 13.5634C151.532 13.6115 151.537 13.7267 151.526 13.8563C151.384 15.4731 150.006 16.7365 148.379 16.7379C148.369 16.7379 148.359 16.7379 148.349 16.7379Z" fill="#0A0A0A"/>
<path d="M146.392 10.3943C146.354 10.1565 146.196 10.0409 145.975 10.062C145.734 10.0848 145.61 10.2587 145.606 10.4961C145.599 10.9443 145.6 11.3928 145.606 11.841C145.609 12.0792 145.734 12.252 145.972 12.2787C146.194 12.3036 146.35 12.1852 146.39 11.9496C146.433 11.4311 146.431 10.9127 146.391 10.3943H146.392Z" fill="#060605"/>
<path d="M151.106 10.4781C151.088 10.1041 150.784 9.96709 150.458 10.161C150.33 10.2449 150.289 10.3731 150.289 10.5157C150.286 10.9481 150.287 11.3805 150.288 11.8132C150.288 11.9456 150.318 12.0661 150.429 12.1525L150.433 12.156C150.538 12.2751 150.659 12.3341 150.815 12.2508C151.019 12.196 151.103 12.0404 151.107 11.8515C151.117 11.3938 151.127 10.9354 151.105 10.4785L151.106 10.4781Z" fill="#262122"/>
<path d="M165.867 15.8796C166.31 15.8603 166.754 15.8638 167.197 15.8778C167.42 15.8848 167.525 15.8326 167.59 15.5924C167.949 14.2682 168.334 12.9509 168.71 11.6312C168.908 10.9352 169.107 10.2396 169.313 9.517C169.494 9.61272 169.536 9.75226 169.603 9.86586C170.734 11.7757 171.861 13.6875 172.99 15.598C173.226 15.9974 173.358 15.9998 173.589 15.6086C174.371 14.2836 175.149 12.9565 175.928 11.6301C176.336 10.9366 176.743 10.2424 177.162 9.52717C177.318 9.64042 177.312 9.76699 177.342 9.86937C177.898 11.7655 178.452 13.662 178.993 15.5623C179.059 15.794 179.149 15.8911 179.403 15.8789C179.858 15.8571 180.315 15.8701 180.771 15.8761C180.951 15.8785 181.047 15.8792 180.977 15.6324C180.034 12.2897 179.101 8.94375 178.175 5.59574C178.113 5.36959 178.016 5.30824 177.786 5.30017C177.54 5.29176 177.457 5.42885 177.357 5.59504C176.078 7.72431 174.796 9.85254 173.514 11.9808C173.297 12.3401 173.294 12.3401 173.076 11.9797C172.703 11.3651 172.334 10.7487 171.961 10.1337C171.041 8.61207 170.113 7.09531 169.209 5.56454C169.06 5.31209 168.876 5.30368 168.642 5.30999C168.393 5.31665 168.428 5.52316 168.387 5.66376C168.214 6.25559 168.052 6.85094 167.888 7.44522C167.138 10.1499 166.394 12.8559 165.635 15.5581C165.563 15.814 165.587 15.8919 165.867 15.8796H165.867Z" fill="white"/>
</g>
<defs>
<clipPath id="clip0_3775_16289">
<rect width="61" height="16" fill="white" transform="translate(143 2.5)"/>
</clipPath>
</defs>
</svg>
