<svg width="18" height="19" viewBox="0 0 18 19" fill="none" xmlns="http://www.w3.org/2000/svg">
<path d="M5.25 14.25C3.8783 14.5588 3 15.0332 3 15.5653C3 16.4957 5.68629 17.25 9 17.25C12.3137 17.25 15 16.4957 15 15.5653C15 15.0332 14.1217 14.5588 12.75 14.25" stroke="#A3A3A3" stroke-width="1.125" stroke-linecap="round"/>
<path d="M10.875 7.5C10.875 8.53552 10.0355 9.375 9 9.375C7.96448 9.375 7.125 8.53552 7.125 7.5C7.125 6.46447 7.96448 5.625 9 5.625C10.0355 5.625 10.875 6.46447 10.875 7.5Z" stroke="#A3A3A3" stroke-width="1.125"/>
<path d="M9.94305 13.8702C9.69007 14.1138 9.35198 14.25 9.00015 14.25C8.64825 14.25 8.31015 14.1138 8.05717 13.8702C5.74072 11.6256 2.63639 9.11812 4.15028 5.4778C4.96882 3.50949 6.93371 2.25 9.00015 2.25C11.0666 2.25 13.0314 3.5095 13.85 5.4778C15.362 9.11355 12.2652 11.6333 9.94305 13.8702Z" stroke="#A3A3A3" stroke-width="1.125"/>
</svg>
