<svg width="18" height="19" viewBox="0 0 18 19" fill="none" xmlns="http://www.w3.org/2000/svg">
<path d="M1.5 9.75C1.5 7.09689 1.5 5.77033 2.2896 4.88467C2.41589 4.74302 2.55509 4.61201 2.7056 4.49315C3.6466 3.75 5.05607 3.75 7.875 3.75H10.125C12.9439 3.75 14.3534 3.75 15.2944 4.49315C15.4449 4.61201 15.5841 4.74302 15.7104 4.88467C16.5 5.77033 16.5 7.09689 16.5 9.75C16.5 12.4031 16.5 13.7297 15.7104 14.6153C15.5841 14.757 15.4449 14.8879 15.2944 15.0068C14.3534 15.75 12.9439 15.75 10.125 15.75H7.875C5.05607 15.75 3.6466 15.75 2.7056 15.0068C2.55509 14.8879 2.41589 14.757 2.2896 14.6153C1.5 13.7297 1.5 12.4031 1.5 9.75Z" stroke="#A3A3A3" stroke-width="1.125" stroke-linecap="round" stroke-linejoin="round"/>
<path d="M10.9131 9.75C10.9131 10.7855 10.0736 11.625 9.03809 11.625C8.00257 11.625 7.16309 10.7855 7.16309 9.75C7.16309 8.71448 8.00257 7.875 9.03809 7.875C10.0736 7.875 10.9131 8.71448 10.9131 9.75Z" stroke="#A3A3A3" stroke-width="1.125"/>
<path d="M3.75 9.75H4.5" stroke="#A3A3A3" stroke-width="1.125" stroke-linecap="round"/>
<path d="M13.5 9.75H14.25" stroke="#A3A3A3" stroke-width="1.125" stroke-linecap="round"/>
</svg>
