<svg width="440" height="250" viewBox="0 0 440 250" fill="none" xmlns="http://www.w3.org/2000/svg">
<g clip-path="url(#clip0_15897_6801)">
<g filter="url(#filter0_di_15897_6801)">
<path d="M119 31C122.85 31 126 27.85 126 24C126 20.15 122.85 17 119 17C115.15 17 112 20.15 112 24C112 27.85 115.15 31 119 31Z" fill="url(#paint0_linear_15897_6801)"/>
<path d="M119 31C122.85 31 126 27.85 126 24C126 20.15 122.85 17 119 17C115.15 17 112 20.15 112 24C112 27.85 115.15 31 119 31Z" stroke="url(#paint1_linear_15897_6801)" stroke-linecap="round" stroke-linejoin="round"/>
</g>
<g filter="url(#filter1_di_15897_6801)">
<path d="M127.838 68.2708C127.064 70.3301 128.115 72.6483 130.174 73.4224C132.234 74.1965 134.552 73.1449 135.326 71.0856C136.1 69.0263 135.049 66.7081 132.989 65.934C130.93 65.1599 128.612 66.2115 127.838 68.2708Z" fill="url(#paint2_linear_15897_6801)"/>
<path d="M127.838 68.2708C127.064 70.3301 128.115 72.6483 130.174 73.4224C132.234 74.1965 134.552 73.1449 135.326 71.0856C136.1 69.0263 135.049 66.7081 132.989 65.934C130.93 65.1599 128.612 66.2115 127.838 68.2708Z" stroke="url(#paint3_linear_15897_6801)" stroke-linecap="round" stroke-linejoin="round"/>
</g>
<g filter="url(#filter2_di_15897_6801)">
<path d="M323.157 102.59C325.357 102.59 327.157 100.79 327.157 98.59C327.157 96.39 325.357 94.5896 323.157 94.5896C320.957 94.5896 319.157 96.39 319.157 98.59C319.157 100.79 320.957 102.59 323.157 102.59Z" fill="url(#paint4_linear_15897_6801)"/>
<path d="M323.157 102.59C325.357 102.59 327.157 100.79 327.157 98.59C327.157 96.39 325.357 94.5896 323.157 94.5896C320.957 94.5896 319.157 96.39 319.157 98.59C319.157 100.79 320.957 102.59 323.157 102.59Z" stroke="url(#paint5_linear_15897_6801)" stroke-linecap="round" stroke-linejoin="round"/>
</g>
<g filter="url(#filter3_di_15897_6801)">
<path d="M175.189 25.9253C174.765 23.7665 172.652 22.3469 170.493 22.7706C168.334 23.1943 166.915 25.3073 167.339 27.4661C167.762 29.6249 169.875 31.0445 172.034 30.6208C174.193 30.1971 175.612 28.0841 175.189 25.9253Z" fill="url(#paint6_linear_15897_6801)"/>
<path d="M175.189 25.9253C174.765 23.7665 172.652 22.3469 170.493 22.7706C168.334 23.1943 166.915 25.3073 167.339 27.4661C167.762 29.6249 169.875 31.0445 172.034 30.6208C174.193 30.1971 175.612 28.0841 175.189 25.9253Z" stroke="url(#paint7_linear_15897_6801)" stroke-linecap="round" stroke-linejoin="round"/>
</g>
<g filter="url(#filter4_di_15897_6801)">
<path d="M297.93 144.673C297.476 145.675 297.925 146.866 298.927 147.32C299.929 147.774 301.12 147.325 301.574 146.323C302.027 145.321 301.579 144.13 300.576 143.676C299.574 143.223 298.383 143.671 297.93 144.673Z" fill="url(#paint8_linear_15897_6801)"/>
<path d="M297.93 144.673C297.476 145.675 297.925 146.866 298.927 147.32C299.929 147.774 301.12 147.325 301.574 146.323C302.027 145.321 301.579 144.13 300.576 143.676C299.574 143.223 298.383 143.671 297.93 144.673Z" stroke="url(#paint9_linear_15897_6801)" stroke-linecap="round" stroke-linejoin="round"/>
</g>
<g filter="url(#filter5_di_15897_6801)">
<path d="M287.931 74.6734C287.477 75.6755 287.926 76.8666 288.928 77.3203C289.93 77.774 291.121 77.3253 291.574 76.3233C292.028 75.3212 291.58 74.1301 290.577 73.6764C289.575 73.2227 288.384 73.6713 287.931 74.6734Z" fill="url(#paint10_linear_15897_6801)"/>
<path d="M287.931 74.6734C287.477 75.6755 287.926 76.8666 288.928 77.3203C289.93 77.774 291.121 77.3253 291.574 76.3233C292.028 75.3212 291.58 74.1301 290.577 73.6764C289.575 73.2227 288.384 73.6713 287.931 74.6734Z" stroke="url(#paint11_linear_15897_6801)" stroke-linecap="round" stroke-linejoin="round"/>
</g>
<g filter="url(#filter6_di_15897_6801)">
<path d="M145.228 145.364C144.34 144.715 143.082 144.911 142.433 145.799C141.784 146.687 141.98 147.945 142.868 148.594C143.756 149.243 145.014 149.047 145.663 148.159C146.312 147.271 146.116 146.013 145.228 145.364Z" fill="url(#paint12_linear_15897_6801)"/>
<path d="M145.228 145.364C144.34 144.715 143.082 144.911 142.433 145.799C141.784 146.687 141.98 147.945 142.868 148.594C143.756 149.243 145.014 149.047 145.663 148.159C146.312 147.271 146.116 146.013 145.228 145.364Z" stroke="url(#paint13_linear_15897_6801)" stroke-linecap="round" stroke-linejoin="round"/>
</g>
<g filter="url(#filter7_di_15897_6801)">
<path d="M326 38C327.1 38 328 37.1 328 36C328 34.9 327.1 34 326 34C324.9 34 324 34.9 324 36C324 37.1 324.9 38 326 38Z" fill="url(#paint14_linear_15897_6801)"/>
<path d="M326 38C327.1 38 328 37.1 328 36C328 34.9 327.1 34 326 34C324.9 34 324 34.9 324 36C324 37.1 324.9 38 326 38Z" stroke="url(#paint15_linear_15897_6801)" stroke-linecap="round" stroke-linejoin="round"/>
</g>
<g filter="url(#filter8_di_15897_6801)">
<path d="M221.044 26.2873C220.832 25.2079 219.775 24.4981 218.696 24.71C217.617 24.9218 216.907 25.9783 217.119 27.0577C217.331 28.1371 218.387 28.8469 219.466 28.6351C220.546 28.4232 221.256 27.3667 221.044 26.2873Z" fill="url(#paint16_linear_15897_6801)"/>
<path d="M221.044 26.2873C220.832 25.2079 219.775 24.4981 218.696 24.71C217.617 24.9218 216.907 25.9783 217.119 27.0577C217.331 28.1371 218.387 28.8469 219.466 28.6351C220.546 28.4232 221.256 27.3667 221.044 26.2873Z" stroke="url(#paint17_linear_15897_6801)" stroke-linecap="round" stroke-linejoin="round"/>
</g>
<g filter="url(#filter9_di_15897_6801)">
<path d="M264.98 137.439C264.754 137.94 264.978 138.535 265.479 138.762C265.98 138.989 266.576 138.765 266.802 138.264C267.029 137.763 266.805 137.167 266.304 136.94C265.803 136.713 265.207 136.938 264.98 137.439Z" fill="url(#paint18_linear_15897_6801)"/>
<path d="M264.98 137.439C264.754 137.94 264.978 138.535 265.479 138.762C265.98 138.989 266.576 138.765 266.802 138.264C267.029 137.763 266.805 137.167 266.304 136.94C265.803 136.713 265.207 136.938 264.98 137.439Z" stroke="url(#paint19_linear_15897_6801)" stroke-linecap="round" stroke-linejoin="round"/>
</g>
<g filter="url(#filter10_di_15897_6801)">
<path d="M149.044 114.59C148.6 114.266 147.971 114.363 147.647 114.808C147.322 115.252 147.42 115.88 147.864 116.205C148.308 116.529 148.937 116.432 149.262 115.988C149.586 115.543 149.488 114.915 149.044 114.59Z" fill="url(#paint20_linear_15897_6801)"/>
<path d="M149.044 114.59C148.6 114.266 147.971 114.363 147.647 114.808C147.322 115.252 147.42 115.88 147.864 116.205C148.308 116.529 148.937 116.432 149.262 115.988C149.586 115.543 149.488 114.915 149.044 114.59Z" stroke="url(#paint21_linear_15897_6801)" stroke-linecap="round" stroke-linejoin="round"/>
</g>
<g filter="url(#filter11_di_15897_6801)">
<path d="M249.568 3C250.118 3 250.568 2.55 250.568 2C250.568 1.45 250.118 1 249.568 1C249.018 1 248.568 1.45 248.568 2C248.568 2.55 249.018 3 249.568 3Z" fill="url(#paint22_linear_15897_6801)"/>
<path d="M249.568 3C250.118 3 250.568 2.55 250.568 2C250.568 1.45 250.118 1 249.568 1C249.018 1 248.568 1.45 248.568 2C248.568 2.55 249.018 3 249.568 3Z" stroke="url(#paint23_linear_15897_6801)" stroke-linecap="round" stroke-linejoin="round"/>
</g>
<g filter="url(#filter12_d_15897_6801)">
<path d="M262 106C262 81.6995 242.301 62 218 62C193.699 62 174 81.6995 174 106C174 130.301 193.699 150 218 150C242.301 150 262 130.301 262 106Z" fill="white"/>
<path d="M218 139.333C236.334 139.333 251.334 124.333 251.334 106C251.334 87.6667 236.334 72.6667 218 72.6667C199.667 72.6667 184.667 87.6667 184.667 106C184.667 124.333 199.667 139.333 218 139.333Z" fill="url(#paint24_linear_15897_6801)"/>
<g filter="url(#filter13_di_15897_6801)">
<path d="M203.833 106L213.266 115.433L232.166 96.5659" stroke="white" stroke-width="5" stroke-linecap="round" stroke-linejoin="round"/>
</g>
</g>
</g>
<path d="M118.188 213V198.455H123.927C125.03 198.455 125.97 198.665 126.746 199.087C127.523 199.503 128.115 200.083 128.522 200.827C128.934 201.565 129.14 202.418 129.14 203.384C129.14 204.349 128.931 205.202 128.515 205.94C128.098 206.679 127.494 207.254 126.704 207.666C125.918 208.078 124.966 208.284 123.849 208.284H120.191V205.82H123.351C123.943 205.82 124.431 205.718 124.814 205.514C125.203 205.306 125.492 205.019 125.681 204.655C125.875 204.286 125.972 203.862 125.972 203.384C125.972 202.901 125.875 202.479 125.681 202.119C125.492 201.755 125.203 201.473 124.814 201.274C124.426 201.071 123.934 200.969 123.337 200.969H121.263V213H118.188ZM133.898 213.206C133.202 213.206 132.582 213.085 132.037 212.844C131.493 212.598 131.062 212.235 130.745 211.757C130.432 211.274 130.276 210.673 130.276 209.953C130.276 209.347 130.387 208.838 130.61 208.426C130.832 208.014 131.135 207.683 131.519 207.432C131.903 207.181 132.338 206.991 132.826 206.864C133.318 206.736 133.834 206.646 134.374 206.594C135.009 206.527 135.52 206.466 135.908 206.409C136.296 206.348 136.578 206.258 136.753 206.139C136.929 206.021 137.016 205.846 137.016 205.614V205.571C137.016 205.121 136.874 204.773 136.59 204.527C136.311 204.281 135.913 204.158 135.397 204.158C134.852 204.158 134.419 204.278 134.097 204.52C133.775 204.757 133.562 205.055 133.458 205.415L130.66 205.188C130.802 204.525 131.081 203.952 131.498 203.469C131.914 202.981 132.452 202.607 133.11 202.347C133.773 202.081 134.54 201.949 135.411 201.949C136.017 201.949 136.597 202.02 137.151 202.162C137.71 202.304 138.205 202.524 138.635 202.822C139.071 203.121 139.414 203.504 139.665 203.973C139.916 204.437 140.042 204.993 140.042 205.642V213H137.172V211.487H137.087C136.912 211.828 136.678 212.129 136.384 212.389C136.09 212.645 135.738 212.846 135.326 212.993C134.914 213.135 134.438 213.206 133.898 213.206ZM134.765 211.118C135.21 211.118 135.603 211.03 135.944 210.855C136.285 210.675 136.552 210.434 136.746 210.131C136.94 209.828 137.037 209.484 137.037 209.101V207.943C136.943 208.005 136.813 208.062 136.647 208.114C136.486 208.161 136.304 208.206 136.1 208.249C135.896 208.286 135.693 208.322 135.489 208.355C135.286 208.384 135.101 208.41 134.935 208.433C134.58 208.485 134.27 208.568 134.005 208.682C133.74 208.795 133.534 208.949 133.387 209.143C133.24 209.333 133.167 209.57 133.167 209.854C133.167 210.266 133.316 210.58 133.614 210.798C133.917 211.011 134.301 211.118 134.765 211.118ZM143.866 217.091C143.483 217.091 143.123 217.06 142.787 216.999C142.455 216.942 142.181 216.868 141.963 216.778L142.645 214.52C143 214.629 143.319 214.688 143.604 214.697C143.892 214.707 144.141 214.641 144.349 214.499C144.562 214.357 144.735 214.115 144.868 213.774L145.045 213.312L141.132 202.091H144.314L146.572 210.102H146.686L148.966 202.091H152.169L147.929 214.179C147.725 214.766 147.448 215.277 147.098 215.713C146.752 216.153 146.314 216.492 145.784 216.729C145.254 216.97 144.614 217.091 143.866 217.091ZM153.717 213V202.091H156.601V204.016H156.729C156.956 203.376 157.335 202.872 157.865 202.503C158.395 202.134 159.03 201.949 159.768 201.949C160.516 201.949 161.153 202.136 161.679 202.51C162.204 202.879 162.555 203.381 162.73 204.016H162.844C163.066 203.391 163.469 202.891 164.051 202.517C164.638 202.138 165.332 201.949 166.132 201.949C167.15 201.949 167.976 202.273 168.611 202.922C169.25 203.566 169.569 204.48 169.569 205.663V213H166.551V206.26C166.551 205.654 166.39 205.199 166.068 204.896C165.746 204.593 165.344 204.442 164.861 204.442C164.311 204.442 163.883 204.617 163.575 204.967C163.267 205.313 163.113 205.77 163.113 206.338V213H160.18V206.196C160.18 205.661 160.026 205.235 159.719 204.918C159.416 204.6 159.015 204.442 158.518 204.442C158.182 204.442 157.879 204.527 157.609 204.697C157.344 204.863 157.133 205.098 156.977 205.401C156.821 205.699 156.743 206.049 156.743 206.452V213H153.717ZM176.931 213.213C175.809 213.213 174.843 212.986 174.033 212.531C173.228 212.072 172.608 211.423 172.172 210.585C171.737 209.742 171.519 208.746 171.519 207.595C171.519 206.473 171.737 205.488 172.172 204.641C172.608 203.793 173.221 203.133 174.012 202.659C174.807 202.186 175.74 201.949 176.81 201.949C177.53 201.949 178.2 202.065 178.82 202.297C179.445 202.524 179.99 202.867 180.454 203.327C180.922 203.786 181.287 204.364 181.547 205.06C181.808 205.751 181.938 206.561 181.938 207.489V208.32H172.726V206.445H179.09C179.09 206.009 178.995 205.623 178.806 205.287C178.617 204.951 178.354 204.688 178.018 204.499C177.686 204.304 177.3 204.207 176.86 204.207C176.401 204.207 175.993 204.314 175.638 204.527C175.288 204.735 175.013 205.017 174.814 205.372C174.616 205.723 174.514 206.113 174.509 206.544V208.327C174.509 208.866 174.608 209.333 174.807 209.726C175.011 210.119 175.297 210.422 175.667 210.635C176.036 210.848 176.474 210.955 176.981 210.955C177.317 210.955 177.625 210.907 177.904 210.812C178.183 210.718 178.422 210.576 178.621 210.386C178.82 210.197 178.972 209.965 179.076 209.69L181.874 209.875C181.732 210.547 181.441 211.134 181.001 211.636C180.565 212.134 180.001 212.522 179.31 212.801C178.624 213.076 177.831 213.213 176.931 213.213ZM186.938 206.693V213H183.912V202.091H186.796V204.016H186.924C187.165 203.381 187.57 202.879 188.138 202.51C188.706 202.136 189.395 201.949 190.205 201.949C190.963 201.949 191.623 202.115 192.187 202.446C192.75 202.777 193.188 203.251 193.501 203.866C193.813 204.477 193.969 205.206 193.969 206.054V213H190.944V206.594C190.948 205.926 190.778 205.405 190.432 205.031C190.087 204.652 189.611 204.463 189.005 204.463C188.598 204.463 188.238 204.551 187.925 204.726C187.617 204.901 187.376 205.157 187.201 205.493C187.03 205.824 186.943 206.224 186.938 206.693ZM202.156 202.091V204.364H195.587V202.091H202.156ZM197.078 199.477H200.104V209.648C200.104 209.927 200.146 210.145 200.232 210.301C200.317 210.453 200.435 210.559 200.587 210.621C200.743 210.682 200.923 210.713 201.127 210.713C201.269 210.713 201.411 210.701 201.553 210.678C201.695 210.649 201.804 210.628 201.879 210.614L202.355 212.865C202.204 212.912 201.991 212.967 201.716 213.028C201.441 213.095 201.108 213.135 200.715 213.149C199.985 213.178 199.346 213.08 198.797 212.858C198.253 212.635 197.829 212.29 197.526 211.821C197.223 211.352 197.074 210.76 197.078 210.045V199.477ZM216.704 202.638C216.647 202.065 216.403 201.62 215.972 201.303C215.541 200.985 214.956 200.827 214.218 200.827C213.716 200.827 213.292 200.898 212.947 201.04C212.601 201.177 212.336 201.369 212.151 201.615C211.971 201.861 211.881 202.141 211.881 202.453C211.872 202.714 211.926 202.941 212.045 203.135C212.168 203.329 212.336 203.497 212.549 203.639C212.762 203.777 213.008 203.897 213.287 204.001C213.567 204.101 213.865 204.186 214.182 204.257L215.489 204.57C216.124 204.712 216.706 204.901 217.236 205.138C217.767 205.375 218.226 205.666 218.614 206.011C219.002 206.357 219.303 206.764 219.516 207.233C219.734 207.702 219.845 208.239 219.85 208.845C219.845 209.735 219.618 210.507 219.168 211.161C218.723 211.809 218.079 212.313 217.236 212.673C216.398 213.028 215.387 213.206 214.204 213.206C213.029 213.206 212.007 213.026 211.135 212.666C210.269 212.306 209.592 211.774 209.104 211.068C208.621 210.358 208.368 209.48 208.344 208.433H211.32C211.353 208.921 211.493 209.328 211.739 209.655C211.99 209.977 212.324 210.221 212.741 210.386C213.162 210.547 213.638 210.628 214.168 210.628C214.689 210.628 215.141 210.552 215.525 210.401C215.913 210.249 216.214 210.038 216.427 209.768C216.64 209.499 216.746 209.188 216.746 208.838C216.746 208.511 216.649 208.237 216.455 208.014C216.266 207.792 215.986 207.602 215.617 207.446C215.252 207.29 214.805 207.148 214.275 207.02L212.691 206.622C211.465 206.324 210.496 205.857 209.786 205.223C209.076 204.589 208.723 203.734 208.728 202.659C208.723 201.778 208.957 201.009 209.431 200.351C209.909 199.693 210.565 199.179 211.398 198.81C212.232 198.44 213.179 198.256 214.239 198.256C215.319 198.256 216.261 198.44 217.066 198.81C217.876 199.179 218.505 199.693 218.955 200.351C219.405 201.009 219.637 201.771 219.651 202.638H216.704ZM228.857 208.355V202.091H231.883V213H228.978V211.018H228.865C228.618 211.658 228.209 212.171 227.636 212.56C227.068 212.948 226.374 213.142 225.555 213.142C224.826 213.142 224.184 212.976 223.63 212.645C223.076 212.313 222.643 211.842 222.33 211.232C222.023 210.621 221.866 209.889 221.862 209.037V202.091H224.887V208.497C224.892 209.141 225.065 209.65 225.406 210.024C225.747 210.398 226.204 210.585 226.776 210.585C227.141 210.585 227.482 210.502 227.799 210.337C228.116 210.166 228.372 209.915 228.566 209.584C228.765 209.252 228.862 208.843 228.857 208.355ZM239.232 213.213C238.115 213.213 237.153 212.976 236.349 212.503C235.548 212.025 234.933 211.362 234.502 210.514C234.076 209.667 233.863 208.691 233.863 207.588C233.863 206.471 234.078 205.491 234.509 204.648C234.945 203.8 235.563 203.14 236.363 202.666C237.163 202.188 238.115 201.949 239.218 201.949C240.17 201.949 241.003 202.122 241.718 202.467C242.433 202.813 242.999 203.298 243.415 203.923C243.832 204.548 244.062 205.282 244.104 206.125H241.249C241.169 205.58 240.956 205.143 240.61 204.811C240.269 204.475 239.822 204.307 239.268 204.307C238.799 204.307 238.389 204.435 238.039 204.69C237.693 204.941 237.423 205.308 237.229 205.791C237.035 206.274 236.938 206.859 236.938 207.545C236.938 208.241 237.033 208.833 237.222 209.321C237.416 209.809 237.689 210.18 238.039 210.436C238.389 210.692 238.799 210.82 239.268 210.82C239.613 210.82 239.923 210.749 240.198 210.607C240.477 210.464 240.707 210.259 240.887 209.989C241.072 209.714 241.192 209.385 241.249 209.001H244.104C244.057 209.835 243.83 210.569 243.422 211.203C243.02 211.833 242.464 212.325 241.753 212.68C241.043 213.036 240.203 213.213 239.232 213.213ZM250.97 213.213C249.853 213.213 248.892 212.976 248.087 212.503C247.287 212.025 246.671 211.362 246.24 210.514C245.814 209.667 245.601 208.691 245.601 207.588C245.601 206.471 245.816 205.491 246.247 204.648C246.683 203.8 247.301 203.14 248.101 202.666C248.901 202.188 249.853 201.949 250.956 201.949C251.908 201.949 252.741 202.122 253.456 202.467C254.171 202.813 254.737 203.298 255.154 203.923C255.57 204.548 255.8 205.282 255.843 206.125H252.987C252.907 205.58 252.694 205.143 252.348 204.811C252.007 204.475 251.56 204.307 251.006 204.307C250.537 204.307 250.128 204.435 249.777 204.69C249.432 204.941 249.162 205.308 248.968 205.791C248.773 206.274 248.676 206.859 248.676 207.545C248.676 208.241 248.771 208.833 248.96 209.321C249.155 209.809 249.427 210.18 249.777 210.436C250.128 210.692 250.537 210.82 251.006 210.82C251.352 210.82 251.662 210.749 251.936 210.607C252.216 210.464 252.445 210.259 252.625 209.989C252.81 209.714 252.931 209.385 252.987 209.001H255.843C255.795 209.835 255.568 210.569 255.161 211.203C254.758 211.833 254.202 212.325 253.492 212.68C252.781 213.036 251.941 213.213 250.97 213.213ZM262.751 213.213C261.629 213.213 260.663 212.986 259.854 212.531C259.049 212.072 258.428 211.423 257.993 210.585C257.557 209.742 257.339 208.746 257.339 207.595C257.339 206.473 257.557 205.488 257.993 204.641C258.428 203.793 259.041 203.133 259.832 202.659C260.628 202.186 261.56 201.949 262.631 201.949C263.35 201.949 264.02 202.065 264.64 202.297C265.265 202.524 265.81 202.867 266.274 203.327C266.743 203.786 267.107 204.364 267.368 205.06C267.628 205.751 267.758 206.561 267.758 207.489V208.32H258.547V206.445H264.91C264.91 206.009 264.816 205.623 264.626 205.287C264.437 204.951 264.174 204.688 263.838 204.499C263.506 204.304 263.121 204.207 262.68 204.207C262.221 204.207 261.814 204.314 261.459 204.527C261.108 204.735 260.834 205.017 260.635 205.372C260.436 205.723 260.334 206.113 260.329 206.544V208.327C260.329 208.866 260.429 209.333 260.628 209.726C260.831 210.119 261.118 210.422 261.487 210.635C261.856 210.848 262.294 210.955 262.801 210.955C263.137 210.955 263.445 210.907 263.724 210.812C264.004 210.718 264.243 210.576 264.442 210.386C264.64 210.197 264.792 209.965 264.896 209.69L267.694 209.875C267.552 210.547 267.261 211.134 266.821 211.636C266.385 212.134 265.822 212.522 265.131 212.801C264.444 213.076 263.651 213.213 262.751 213.213ZM278.809 205.202L276.04 205.372C275.992 205.135 275.89 204.922 275.734 204.733C275.578 204.539 275.372 204.385 275.116 204.271C274.865 204.153 274.565 204.094 274.214 204.094C273.746 204.094 273.35 204.193 273.028 204.392C272.706 204.586 272.545 204.847 272.545 205.173C272.545 205.434 272.649 205.654 272.858 205.834C273.066 206.014 273.424 206.158 273.93 206.267L275.905 206.665C276.965 206.883 277.756 207.233 278.277 207.716C278.798 208.199 279.058 208.833 279.058 209.619C279.058 210.334 278.847 210.962 278.426 211.501C278.009 212.041 277.436 212.463 276.707 212.766C275.983 213.064 275.147 213.213 274.2 213.213C272.756 213.213 271.605 212.912 270.748 212.311C269.896 211.705 269.397 210.881 269.25 209.839L272.226 209.683C272.316 210.124 272.533 210.46 272.879 210.692C273.225 210.919 273.667 211.033 274.207 211.033C274.738 211.033 275.164 210.931 275.486 210.727C275.812 210.519 275.978 210.251 275.983 209.925C275.978 209.65 275.862 209.425 275.635 209.25C275.407 209.07 275.057 208.933 274.584 208.838L272.694 208.462C271.629 208.249 270.836 207.879 270.315 207.354C269.799 206.828 269.541 206.158 269.541 205.344C269.541 204.643 269.73 204.039 270.109 203.533C270.493 203.026 271.03 202.635 271.721 202.361C272.417 202.086 273.232 201.949 274.165 201.949C275.542 201.949 276.627 202.24 277.417 202.822C278.213 203.405 278.677 204.198 278.809 205.202ZM290.04 205.202L287.27 205.372C287.223 205.135 287.121 204.922 286.965 204.733C286.808 204.539 286.602 204.385 286.347 204.271C286.096 204.153 285.795 204.094 285.445 204.094C284.976 204.094 284.581 204.193 284.259 204.392C283.937 204.586 283.776 204.847 283.776 205.173C283.776 205.434 283.88 205.654 284.088 205.834C284.297 206.014 284.654 206.158 285.161 206.267L287.135 206.665C288.196 206.883 288.986 207.233 289.507 207.716C290.028 208.199 290.289 208.833 290.289 209.619C290.289 210.334 290.078 210.962 289.656 211.501C289.24 212.041 288.667 212.463 287.938 212.766C287.213 213.064 286.378 213.213 285.431 213.213C283.986 213.213 282.836 212.912 281.979 212.311C281.127 211.705 280.627 210.881 280.48 209.839L283.456 209.683C283.546 210.124 283.764 210.46 284.11 210.692C284.455 210.919 284.898 211.033 285.438 211.033C285.968 211.033 286.394 210.931 286.716 210.727C287.043 210.519 287.209 210.251 287.213 209.925C287.209 209.65 287.093 209.425 286.865 209.25C286.638 209.07 286.288 208.933 285.814 208.838L283.925 208.462C282.86 208.249 282.066 207.879 281.546 207.354C281.03 206.828 280.771 206.158 280.771 205.344C280.771 204.643 280.961 204.039 281.34 203.533C281.723 203.026 282.261 202.635 282.952 202.361C283.648 202.086 284.462 201.949 285.395 201.949C286.773 201.949 287.857 202.24 288.648 202.822C289.443 203.405 289.907 204.198 290.04 205.202ZM298.06 202.091V204.364H291.327V202.091H298.06ZM292.868 213V201.303C292.868 200.512 293.022 199.856 293.33 199.335C293.643 198.814 294.069 198.424 294.608 198.163C295.148 197.903 295.761 197.773 296.448 197.773C296.912 197.773 297.336 197.808 297.719 197.879C298.108 197.95 298.396 198.014 298.586 198.071L298.046 200.344C297.928 200.306 297.781 200.27 297.606 200.237C297.435 200.204 297.26 200.188 297.08 200.188C296.635 200.188 296.325 200.292 296.15 200.5C295.974 200.704 295.887 200.99 295.887 201.359V213H292.868ZM306.904 208.355V202.091H309.93V213H307.025V211.018H306.911C306.665 211.658 306.256 212.171 305.683 212.56C305.115 212.948 304.421 213.142 303.602 213.142C302.873 213.142 302.231 212.976 301.677 212.645C301.123 212.313 300.69 211.842 300.377 211.232C300.07 210.621 299.913 209.889 299.909 209.037V202.091H302.934V208.497C302.939 209.141 303.112 209.65 303.453 210.024C303.794 210.398 304.25 210.585 304.823 210.585C305.188 210.585 305.529 210.502 305.846 210.337C306.163 210.166 306.419 209.915 306.613 209.584C306.812 209.252 306.909 208.843 306.904 208.355ZM315.376 198.455V213H312.35V198.455H315.376ZM321.414 198.455L321.137 208.639H318.538L318.254 198.455H321.414ZM319.838 213.185C319.369 213.185 318.966 213.019 318.63 212.688C318.294 212.351 318.128 211.949 318.133 211.48C318.128 211.016 318.294 210.618 318.63 210.287C318.966 209.955 319.369 209.79 319.838 209.79C320.287 209.79 320.683 209.955 321.024 210.287C321.365 210.618 321.537 211.016 321.542 211.48C321.537 211.793 321.454 212.079 321.294 212.339C321.137 212.595 320.931 212.801 320.676 212.957C320.42 213.109 320.141 213.185 319.838 213.185Z" fill="#16A34A"/>
<path d="M110.583 239.909C110.583 240.996 110.384 241.931 109.987 242.713C109.589 243.492 109.044 244.092 108.351 244.513C107.662 244.93 106.878 245.139 105.999 245.139C105.118 245.139 104.331 244.93 103.638 244.513C102.948 244.092 102.405 243.49 102.007 242.708C101.609 241.926 101.411 240.993 101.411 239.909C101.411 238.822 101.609 237.889 102.007 237.11C102.405 236.328 102.948 235.728 103.638 235.31C104.331 234.889 105.118 234.679 105.999 234.679C106.878 234.679 107.662 234.889 108.351 235.31C109.044 235.728 109.589 236.328 109.987 237.11C110.384 237.889 110.583 238.822 110.583 239.909ZM109.062 239.909C109.062 239.08 108.928 238.383 108.659 237.816C108.394 237.246 108.029 236.815 107.565 236.523C107.105 236.228 106.583 236.081 105.999 236.081C105.413 236.081 104.889 236.228 104.428 236.523C103.968 236.815 103.603 237.246 103.335 237.816C103.069 238.383 102.937 239.08 102.937 239.909C102.937 240.738 103.069 241.437 103.335 242.007C103.603 242.574 103.968 243.005 104.428 243.3C104.889 243.591 105.413 243.737 105.999 243.737C106.583 243.737 107.105 243.591 107.565 243.3C108.029 243.005 108.394 242.574 108.659 242.007C108.928 241.437 109.062 240.738 109.062 239.909ZM112.379 245V237.364H113.816V238.577H113.896C114.035 238.166 114.28 237.843 114.631 237.607C114.986 237.369 115.387 237.249 115.834 237.249C115.927 237.249 116.037 237.253 116.163 237.259C116.292 237.266 116.393 237.274 116.466 237.284V238.706C116.406 238.689 116.3 238.671 116.148 238.651C115.995 238.628 115.843 238.616 115.69 238.616C115.339 238.616 115.026 238.691 114.751 238.84C114.479 238.986 114.263 239.19 114.104 239.452C113.945 239.71 113.866 240.005 113.866 240.337V245H112.379ZM120.337 245.149C119.721 245.149 119.171 244.992 118.687 244.677C118.206 244.359 117.828 243.906 117.553 243.32C117.282 242.73 117.146 242.022 117.146 241.197C117.146 240.371 117.283 239.665 117.558 239.079C117.837 238.492 118.218 238.043 118.702 237.732C119.186 237.42 119.734 237.264 120.347 237.264C120.821 237.264 121.203 237.344 121.491 237.503C121.783 237.659 122.008 237.841 122.167 238.05C122.329 238.259 122.455 238.442 122.545 238.602H122.634V234.818H124.121V245H122.669V243.812H122.545C122.455 243.974 122.326 244.16 122.157 244.369C121.991 244.577 121.763 244.76 121.471 244.915C121.179 245.071 120.801 245.149 120.337 245.149ZM120.666 243.881C121.093 243.881 121.454 243.769 121.749 243.543C122.048 243.315 122.273 242.998 122.426 242.594C122.581 242.189 122.659 241.719 122.659 241.182C122.659 240.652 122.583 240.187 122.43 239.79C122.278 239.392 122.054 239.082 121.759 238.86C121.464 238.638 121.1 238.527 120.666 238.527C120.218 238.527 119.845 238.643 119.547 238.875C119.249 239.107 119.023 239.424 118.871 239.825C118.722 240.226 118.647 240.678 118.647 241.182C118.647 241.692 118.723 242.151 118.876 242.559C119.028 242.967 119.254 243.29 119.552 243.528C119.854 243.764 120.225 243.881 120.666 243.881ZM129.534 245.154C128.781 245.154 128.133 244.993 127.59 244.672C127.05 244.347 126.632 243.891 126.337 243.305C126.045 242.715 125.899 242.024 125.899 241.232C125.899 240.449 126.045 239.76 126.337 239.163C126.632 238.567 127.043 238.101 127.57 237.766C128.1 237.432 128.72 237.264 129.429 237.264C129.86 237.264 130.278 237.335 130.682 237.478C131.086 237.621 131.449 237.844 131.771 238.149C132.092 238.454 132.346 238.85 132.532 239.337C132.717 239.821 132.81 240.41 132.81 241.102V241.629H126.74V240.516H131.353C131.353 240.125 131.274 239.778 131.115 239.477C130.956 239.172 130.732 238.931 130.443 238.756C130.158 238.58 129.824 238.492 129.439 238.492C129.022 238.492 128.657 238.595 128.345 238.8C128.037 239.003 127.799 239.268 127.63 239.596C127.464 239.921 127.381 240.274 127.381 240.655V241.525C127.381 242.035 127.47 242.469 127.649 242.827C127.832 243.185 128.085 243.459 128.41 243.648C128.735 243.833 129.114 243.926 129.549 243.926C129.83 243.926 130.087 243.886 130.319 243.807C130.551 243.724 130.752 243.601 130.921 243.439C131.09 243.277 131.219 243.076 131.309 242.837L132.715 243.091C132.603 243.505 132.401 243.868 132.109 244.18C131.821 244.488 131.458 244.728 131.02 244.901C130.586 245.07 130.09 245.154 129.534 245.154ZM134.459 245V237.364H135.896V238.577H135.976C136.115 238.166 136.36 237.843 136.711 237.607C137.066 237.369 137.467 237.249 137.915 237.249C138.007 237.249 138.117 237.253 138.243 237.259C138.372 237.266 138.473 237.274 138.546 237.284V238.706C138.486 238.689 138.38 238.671 138.228 238.651C138.075 238.628 137.923 238.616 137.77 238.616C137.419 238.616 137.106 238.691 136.831 238.84C136.559 238.986 136.343 239.19 136.184 239.452C136.025 239.71 135.946 240.005 135.946 240.337V245H134.459ZM145.193 234.818V245H143.657V234.818H145.193ZM150.726 245H147.43V234.818H150.831C151.828 234.818 152.685 235.022 153.401 235.43C154.117 235.834 154.665 236.416 155.047 237.175C155.431 237.93 155.623 238.837 155.623 239.894C155.623 240.955 155.429 241.866 155.042 242.629C154.657 243.391 154.1 243.978 153.371 244.388C152.642 244.796 151.76 245 150.726 245ZM148.966 243.658H150.642C151.417 243.658 152.062 243.512 152.576 243.22C153.089 242.925 153.474 242.499 153.729 241.942C153.984 241.382 154.112 240.7 154.112 239.894C154.112 239.095 153.984 238.418 153.729 237.861C153.477 237.304 153.101 236.881 152.601 236.593C152.1 236.305 151.479 236.161 150.736 236.161H148.966V243.658ZM158.394 243.737C158.122 243.737 157.888 243.641 157.693 243.449C157.497 243.253 157.399 243.018 157.399 242.743C157.399 242.471 157.497 242.239 157.693 242.047C157.888 241.851 158.122 241.754 158.394 241.754C158.666 241.754 158.899 241.851 159.095 242.047C159.29 242.239 159.388 242.471 159.388 242.743C159.388 242.925 159.342 243.093 159.249 243.245C159.159 243.394 159.04 243.513 158.891 243.603C158.742 243.692 158.576 243.737 158.394 243.737ZM158.394 238.636C158.122 238.636 157.888 238.54 157.693 238.348C157.497 238.152 157.399 237.917 157.399 237.642C157.399 237.37 157.497 237.138 157.693 236.946C157.888 236.75 158.122 236.653 158.394 236.653C158.666 236.653 158.899 236.75 159.095 236.946C159.29 237.138 159.388 237.37 159.388 237.642C159.388 237.824 159.342 237.992 159.249 238.144C159.159 238.293 159.04 238.413 158.891 238.502C158.742 238.592 158.576 238.636 158.394 238.636Z" fill="#4B5563"/>
<path d="M167.331 234.679C167.818 234.682 168.292 234.768 168.753 234.938C169.217 235.103 169.635 235.375 170.006 235.753C170.377 236.127 170.672 236.629 170.891 237.259C171.11 237.889 171.219 238.668 171.219 239.596C171.222 240.471 171.13 241.253 170.941 241.942C170.755 242.629 170.488 243.209 170.14 243.683C169.792 244.156 169.373 244.518 168.882 244.766C168.392 245.015 167.84 245.139 167.227 245.139C166.584 245.139 166.014 245.013 165.517 244.761C165.023 244.509 164.623 244.165 164.318 243.727C164.014 243.29 163.826 242.789 163.757 242.226H165.571C165.664 242.63 165.853 242.952 166.138 243.19C166.426 243.426 166.789 243.543 167.227 243.543C167.933 243.543 168.476 243.237 168.858 242.624C169.239 242.01 169.429 241.159 169.429 240.068H169.36C169.197 240.36 168.987 240.612 168.728 240.824C168.47 241.033 168.176 241.193 167.848 241.306C167.523 241.419 167.179 241.475 166.814 241.475C166.218 241.475 165.681 241.333 165.203 241.048C164.729 240.763 164.353 240.371 164.075 239.874C163.8 239.377 163.661 238.809 163.657 238.169C163.657 237.506 163.81 236.911 164.115 236.384C164.423 235.854 164.852 235.436 165.402 235.131C165.952 234.823 166.595 234.672 167.331 234.679ZM167.336 236.17C166.978 236.17 166.655 236.258 166.367 236.434C166.082 236.606 165.856 236.842 165.691 237.14C165.528 237.435 165.447 237.765 165.447 238.129C165.45 238.491 165.532 238.819 165.691 239.114C165.853 239.409 166.073 239.642 166.352 239.815C166.634 239.987 166.955 240.073 167.316 240.073C167.585 240.073 167.835 240.022 168.067 239.919C168.299 239.816 168.501 239.674 168.674 239.491C168.849 239.306 168.985 239.095 169.081 238.86C169.181 238.625 169.229 238.376 169.225 238.114C169.225 237.766 169.143 237.445 168.977 237.15C168.814 236.855 168.591 236.618 168.306 236.439C168.024 236.26 167.701 236.17 167.336 236.17ZM179.034 243.449L173.203 237.627L174.326 236.499L180.153 242.325L179.034 243.449ZM174.326 243.449L173.203 242.325L179.034 236.499L180.153 237.627L174.326 243.449ZM186.058 245.194C185.239 245.194 184.537 244.987 183.95 244.572C183.367 244.155 182.918 243.553 182.603 242.768C182.291 241.979 182.135 241.029 182.135 239.919C182.139 238.809 182.296 237.864 182.608 237.085C182.923 236.303 183.372 235.706 183.955 235.295C184.542 234.884 185.243 234.679 186.058 234.679C186.873 234.679 187.574 234.884 188.161 235.295C188.748 235.706 189.197 236.303 189.508 237.085C189.823 237.867 189.981 238.812 189.981 239.919C189.981 241.033 189.823 241.984 189.508 242.773C189.197 243.558 188.748 244.158 188.161 244.572C187.578 244.987 186.877 245.194 186.058 245.194ZM186.058 243.638C186.694 243.638 187.196 243.325 187.564 242.698C187.936 242.068 188.121 241.142 188.121 239.919C188.121 239.11 188.037 238.431 187.868 237.881C187.699 237.33 187.46 236.916 187.152 236.638C186.843 236.356 186.479 236.215 186.058 236.215C185.425 236.215 184.924 236.53 184.557 237.16C184.189 237.786 184.003 238.706 184 239.919C183.996 240.731 184.078 241.414 184.243 241.967C184.412 242.521 184.651 242.938 184.959 243.22C185.267 243.499 185.634 243.638 186.058 243.638ZM193.452 240.526V245H191.652V234.818H193.412V238.661H193.502C193.681 238.23 193.957 237.891 194.332 237.642C194.71 237.39 195.19 237.264 195.774 237.264C196.304 237.264 196.766 237.375 197.161 237.597C197.555 237.819 197.86 238.144 198.076 238.572C198.294 238.999 198.404 239.521 198.404 240.138V245H196.604V240.416C196.604 239.902 196.471 239.503 196.206 239.218C195.944 238.93 195.576 238.786 195.103 238.786C194.784 238.786 194.499 238.855 194.247 238.994C193.999 239.13 193.803 239.327 193.661 239.586C193.522 239.844 193.452 240.158 193.452 240.526ZM200.318 245V234.818H202.117V238.626H202.192C202.285 238.441 202.416 238.244 202.585 238.035C202.754 237.823 202.983 237.642 203.271 237.493C203.559 237.34 203.927 237.264 204.375 237.264C204.965 237.264 205.496 237.415 205.97 237.717C206.448 238.015 206.826 238.457 207.104 239.044C207.386 239.627 207.527 240.343 207.527 241.192C207.527 242.03 207.389 242.743 207.114 243.33C206.839 243.916 206.464 244.364 205.99 244.672C205.516 244.98 204.979 245.134 204.38 245.134C203.942 245.134 203.579 245.061 203.291 244.915C203.002 244.77 202.77 244.594 202.595 244.388C202.422 244.18 202.288 243.982 202.192 243.797H202.088V245H200.318ZM202.083 241.182C202.083 241.676 202.152 242.108 202.291 242.479C202.434 242.851 202.638 243.141 202.903 243.349C203.171 243.555 203.496 243.658 203.877 243.658C204.275 243.658 204.608 243.552 204.877 243.339C205.145 243.124 205.347 242.831 205.483 242.46C205.622 242.085 205.692 241.659 205.692 241.182C205.692 240.708 205.624 240.287 205.488 239.919C205.352 239.551 205.15 239.263 204.882 239.054C204.613 238.845 204.278 238.741 203.877 238.741C203.493 238.741 203.166 238.842 202.898 239.044C202.63 239.246 202.426 239.53 202.286 239.894C202.151 240.259 202.083 240.688 202.083 241.182ZM209.057 245V237.364H210.802V238.636H210.881C211.02 238.196 211.259 237.856 211.597 237.617C211.938 237.375 212.328 237.254 212.765 237.254C212.865 237.254 212.976 237.259 213.098 237.269C213.224 237.276 213.329 237.287 213.412 237.304V238.96C213.335 238.933 213.214 238.91 213.049 238.89C212.886 238.867 212.729 238.855 212.576 238.855C212.248 238.855 211.953 238.926 211.691 239.069C211.433 239.208 211.229 239.402 211.08 239.651C210.931 239.899 210.856 240.186 210.856 240.511V245H209.057ZM220.643 239.382L219.002 239.561C218.956 239.395 218.875 239.24 218.759 239.094C218.646 238.948 218.493 238.83 218.301 238.741C218.109 238.651 217.874 238.607 217.595 238.607C217.221 238.607 216.906 238.688 216.651 238.85C216.399 239.013 216.274 239.223 216.278 239.482C216.274 239.704 216.356 239.884 216.521 240.023C216.69 240.163 216.969 240.277 217.357 240.366L218.659 240.645C219.382 240.801 219.919 241.048 220.27 241.386C220.625 241.724 220.804 242.166 220.807 242.713C220.804 243.194 220.663 243.618 220.384 243.986C220.109 244.35 219.726 244.635 219.236 244.841C218.745 245.046 218.182 245.149 217.546 245.149C216.611 245.149 215.859 244.954 215.288 244.562C214.718 244.168 214.379 243.62 214.269 242.917L216.024 242.748C216.104 243.093 216.273 243.353 216.531 243.528C216.79 243.704 217.126 243.792 217.541 243.792C217.968 243.792 218.311 243.704 218.57 243.528C218.832 243.353 218.962 243.136 218.962 242.877C218.962 242.658 218.878 242.478 218.709 242.335C218.543 242.193 218.285 242.083 217.933 242.007L216.631 241.734C215.898 241.581 215.356 241.324 215.005 240.963C214.654 240.598 214.48 240.138 214.483 239.581C214.48 239.11 214.607 238.703 214.866 238.358C215.128 238.01 215.491 237.741 215.955 237.553C216.422 237.36 216.961 237.264 217.57 237.264C218.465 237.264 219.17 237.455 219.683 237.836C220.2 238.217 220.52 238.732 220.643 239.382ZM222.191 245V243.857L226.129 238.92V238.855H222.321V237.364H228.331V238.592L224.583 243.444V243.509H228.461V245H222.191ZM230.152 247.864V237.364H231.922V238.626H232.027C232.119 238.441 232.25 238.244 232.419 238.035C232.588 237.823 232.817 237.642 233.105 237.493C233.394 237.34 233.762 237.264 234.209 237.264C234.799 237.264 235.331 237.415 235.805 237.717C236.282 238.015 236.66 238.457 236.938 239.044C237.22 239.627 237.361 240.343 237.361 241.192C237.361 242.03 237.224 242.743 236.948 243.33C236.673 243.916 236.299 244.364 235.825 244.672C235.351 244.98 234.814 245.134 234.214 245.134C233.777 245.134 233.414 245.061 233.125 244.915C232.837 244.77 232.605 244.594 232.429 244.388C232.257 244.18 232.123 243.982 232.027 243.797H231.952V247.864H230.152ZM231.917 241.182C231.917 241.676 231.987 242.108 232.126 242.479C232.268 242.851 232.472 243.141 232.737 243.349C233.006 243.555 233.331 243.658 233.712 243.658C234.11 243.658 234.443 243.552 234.711 243.339C234.98 243.124 235.182 242.831 235.318 242.46C235.457 242.085 235.527 241.659 235.527 241.182C235.527 240.708 235.459 240.287 235.323 239.919C235.187 239.551 234.985 239.263 234.716 239.054C234.448 238.845 234.113 238.741 233.712 238.741C233.327 238.741 233.001 238.842 232.733 239.044C232.464 239.246 232.26 239.53 232.121 239.894C231.985 240.259 231.917 240.688 231.917 241.182ZM240.259 245L238.102 237.364H239.936L241.279 242.733H241.348L242.72 237.364H244.535L245.907 242.703H245.982L247.304 237.364H249.144L246.981 245H245.107L243.675 239.839H243.571L242.139 245H240.259ZM250.301 245V243.857L254.238 238.92V238.855H250.43V237.364H256.441V238.592L252.692 243.444V243.509H256.57V245H250.301ZM261.424 245.149C260.658 245.149 259.997 244.99 259.44 244.672C258.886 244.35 258.46 243.896 258.162 243.31C257.864 242.72 257.715 242.025 257.715 241.227C257.715 240.441 257.864 239.752 258.162 239.158C258.464 238.562 258.885 238.098 259.425 237.766C259.965 237.432 260.6 237.264 261.329 237.264C261.8 237.264 262.244 237.34 262.661 237.493C263.082 237.642 263.454 237.874 263.775 238.189C264.1 238.504 264.355 238.905 264.541 239.392C264.726 239.876 264.819 240.453 264.819 241.122V241.674H258.56V240.461H263.094C263.091 240.116 263.016 239.81 262.87 239.541C262.724 239.269 262.521 239.056 262.259 238.9C262 238.744 261.699 238.666 261.354 238.666C260.986 238.666 260.663 238.756 260.384 238.935C260.106 239.11 259.889 239.342 259.733 239.631C259.581 239.916 259.503 240.229 259.5 240.57V241.629C259.5 242.073 259.581 242.455 259.743 242.773C259.906 243.088 260.133 243.33 260.424 243.499C260.716 243.664 261.057 243.747 261.448 243.747C261.71 243.747 261.947 243.711 262.159 243.638C262.371 243.562 262.555 243.451 262.711 243.305C262.867 243.159 262.985 242.978 263.064 242.763L264.745 242.952C264.639 243.396 264.436 243.784 264.138 244.115C263.843 244.443 263.465 244.698 263.005 244.881C262.544 245.06 262.017 245.149 261.424 245.149ZM269.722 245.149C268.957 245.149 268.296 244.99 267.739 244.672C267.185 244.35 266.759 243.896 266.461 243.31C266.163 242.72 266.014 242.025 266.014 241.227C266.014 240.441 266.163 239.752 266.461 239.158C266.763 238.562 267.184 238.098 267.724 237.766C268.264 237.432 268.899 237.264 269.628 237.264C270.099 237.264 270.543 237.34 270.96 237.493C271.381 237.642 271.752 237.874 272.074 238.189C272.399 238.504 272.654 238.905 272.84 239.392C273.025 239.876 273.118 240.453 273.118 241.122V241.674H266.859V240.461H271.393C271.39 240.116 271.315 239.81 271.169 239.541C271.023 239.269 270.819 239.056 270.558 238.9C270.299 238.744 269.997 238.666 269.653 238.666C269.285 238.666 268.962 238.756 268.683 238.935C268.405 239.11 268.188 239.342 268.032 239.631C267.88 239.916 267.802 240.229 267.798 240.57V241.629C267.798 242.073 267.88 242.455 268.042 242.773C268.204 243.088 268.431 243.33 268.723 243.499C269.015 243.664 269.356 243.747 269.747 243.747C270.009 243.747 270.246 243.711 270.458 243.638C270.67 243.562 270.854 243.451 271.01 243.305C271.166 243.159 271.283 242.978 271.363 242.763L273.043 242.952C272.937 243.396 272.735 243.784 272.437 244.115C272.142 244.443 271.764 244.698 271.303 244.881C270.843 245.06 270.316 245.149 269.722 245.149ZM278.508 237.364V238.756H273.994V237.364H278.508ZM275.123 245V236.643C275.123 236.129 275.229 235.701 275.441 235.36C275.656 235.019 275.945 234.763 276.306 234.594C276.667 234.425 277.068 234.341 277.509 234.341C277.821 234.341 278.097 234.366 278.339 234.415C278.581 234.465 278.76 234.51 278.876 234.55L278.518 235.942C278.442 235.919 278.346 235.895 278.23 235.872C278.114 235.846 277.985 235.832 277.842 235.832C277.507 235.832 277.271 235.914 277.131 236.076C276.995 236.235 276.927 236.464 276.927 236.762V245H275.123ZM281.559 242.604L281.554 240.431H281.842L284.586 237.364H286.689L283.313 241.122H282.941L281.559 242.604ZM279.918 245V234.818H281.718V245H279.918ZM284.71 245L282.225 241.525L283.438 240.257L286.863 245H284.71ZM292.67 247.864V243.797H292.595C292.503 243.982 292.368 244.18 292.193 244.388C292.017 244.594 291.785 244.77 291.497 244.915C291.208 245.061 290.845 245.134 290.408 245.134C289.808 245.134 289.271 244.98 288.797 244.672C288.323 244.364 287.949 243.916 287.674 243.33C287.398 242.743 287.261 242.03 287.261 241.192C287.261 240.343 287.4 239.627 287.679 239.044C287.96 238.457 288.34 238.015 288.817 237.717C289.294 237.415 289.826 237.264 290.413 237.264C290.86 237.264 291.228 237.34 291.517 237.493C291.805 237.642 292.034 237.823 292.203 238.035C292.372 238.244 292.503 238.441 292.595 238.626H292.705V237.364H294.475V247.864H292.67ZM290.91 243.658C291.291 243.658 291.616 243.555 291.884 243.349C292.153 243.141 292.357 242.851 292.496 242.479C292.635 242.108 292.705 241.676 292.705 241.182C292.705 240.688 292.635 240.259 292.496 239.894C292.36 239.53 292.158 239.246 291.889 239.044C291.624 238.842 291.298 238.741 290.91 238.741C290.509 238.741 290.174 238.845 289.906 239.054C289.637 239.263 289.435 239.551 289.299 239.919C289.163 240.287 289.095 240.708 289.095 241.182C289.095 241.659 289.163 242.085 289.299 242.46C289.438 242.831 289.642 243.124 289.911 243.339C290.183 243.552 290.516 243.658 290.91 243.658ZM299.924 245.139C299.184 245.139 298.528 245.015 297.955 244.766C297.385 244.518 296.937 244.178 296.612 243.747C296.291 243.313 296.132 242.821 296.135 242.271C296.132 241.843 296.225 241.45 296.414 241.092C296.603 240.734 296.858 240.436 297.179 240.197C297.504 239.955 297.865 239.801 298.263 239.735V239.665C297.739 239.549 297.315 239.283 296.99 238.865C296.669 238.444 296.51 237.959 296.513 237.408C296.51 236.885 296.656 236.417 296.951 236.006C297.246 235.595 297.65 235.272 298.164 235.037C298.677 234.798 299.264 234.679 299.924 234.679C300.576 234.679 301.158 234.798 301.669 235.037C302.182 235.272 302.587 235.595 302.882 236.006C303.18 236.417 303.329 236.885 303.329 237.408C303.329 237.959 303.165 238.444 302.837 238.865C302.512 239.283 302.093 239.549 301.579 239.665V239.735C301.977 239.801 302.335 239.955 302.653 240.197C302.974 240.436 303.23 240.734 303.419 241.092C303.611 241.45 303.707 241.843 303.707 242.271C303.707 242.821 303.545 243.313 303.22 243.747C302.895 244.178 302.447 244.518 301.877 244.766C301.311 245.015 300.659 245.139 299.924 245.139ZM299.924 243.717C300.305 243.717 300.636 243.653 300.918 243.523C301.2 243.391 301.418 243.205 301.574 242.967C301.73 242.728 301.809 242.453 301.813 242.141C301.809 241.817 301.725 241.53 301.559 241.281C301.397 241.029 301.173 240.832 300.888 240.69C300.606 240.547 300.285 240.476 299.924 240.476C299.559 240.476 299.234 240.547 298.949 240.69C298.664 240.832 298.439 241.029 298.273 241.281C298.111 241.53 298.031 241.817 298.034 242.141C298.031 242.453 298.107 242.728 298.263 242.967C298.419 243.202 298.638 243.386 298.919 243.518C299.204 243.651 299.539 243.717 299.924 243.717ZM299.924 239.079C300.235 239.079 300.51 239.016 300.749 238.89C300.991 238.764 301.181 238.588 301.321 238.363C301.46 238.138 301.531 237.877 301.534 237.582C301.531 237.291 301.461 237.036 301.326 236.817C301.19 236.595 301.001 236.424 300.759 236.305C300.517 236.182 300.238 236.121 299.924 236.121C299.602 236.121 299.319 236.182 299.073 236.305C298.831 236.424 298.643 236.595 298.507 236.817C298.374 237.036 298.309 237.291 298.313 237.582C298.309 237.877 298.376 238.138 298.512 238.363C298.651 238.585 298.841 238.761 299.083 238.89C299.329 239.016 299.609 239.079 299.924 239.079ZM308.692 245.149C307.946 245.149 307.3 244.985 306.753 244.657C306.206 244.329 305.782 243.87 305.481 243.28C305.182 242.69 305.033 242 305.033 241.212C305.033 240.423 305.182 239.732 305.481 239.138C305.782 238.545 306.206 238.085 306.753 237.756C307.3 237.428 307.946 237.264 308.692 237.264C309.438 237.264 310.084 237.428 310.631 237.756C311.178 238.085 311.601 238.545 311.899 239.138C312.2 239.732 312.351 240.423 312.351 241.212C312.351 242 312.2 242.69 311.899 243.28C311.601 243.87 311.178 244.329 310.631 244.657C310.084 244.985 309.438 245.149 308.692 245.149ZM308.702 243.707C309.107 243.707 309.445 243.596 309.716 243.374C309.988 243.149 310.19 242.847 310.323 242.469C310.459 242.092 310.527 241.671 310.527 241.207C310.527 240.739 310.459 240.317 310.323 239.939C310.19 239.558 309.988 239.254 309.716 239.029C309.445 238.804 309.107 238.691 308.702 238.691C308.288 238.691 307.943 238.804 307.668 239.029C307.396 239.254 307.192 239.558 307.057 239.939C306.924 240.317 306.858 240.739 306.858 241.207C306.858 241.671 306.924 242.092 307.057 242.469C307.192 242.847 307.396 243.149 307.668 243.374C307.943 243.596 308.288 243.707 308.702 243.707ZM316.713 245.134C316.113 245.134 315.576 244.98 315.102 244.672C314.628 244.364 314.253 243.916 313.978 243.33C313.703 242.743 313.566 242.03 313.566 241.192C313.566 240.343 313.705 239.627 313.983 239.044C314.265 238.457 314.644 238.015 315.122 237.717C315.599 237.415 316.131 237.264 316.718 237.264C317.165 237.264 317.533 237.34 317.821 237.493C318.11 237.642 318.338 237.823 318.507 238.035C318.676 238.244 318.807 238.441 318.9 238.626H318.975V234.818H320.779V245H319.009V243.797H318.9C318.807 243.982 318.673 244.18 318.497 244.388C318.322 244.594 318.09 244.77 317.801 244.915C317.513 245.061 317.15 245.134 316.713 245.134ZM317.215 243.658C317.596 243.658 317.921 243.555 318.189 243.349C318.458 243.141 318.661 242.851 318.801 242.479C318.94 242.108 319.009 241.676 319.009 241.182C319.009 240.688 318.94 240.259 318.801 239.894C318.665 239.53 318.463 239.246 318.194 239.044C317.929 238.842 317.603 238.741 317.215 238.741C316.814 238.741 316.479 238.845 316.21 239.054C315.942 239.263 315.74 239.551 315.604 239.919C315.468 240.287 315.4 240.708 315.4 241.182C315.4 241.659 315.468 242.085 315.604 242.46C315.743 242.831 315.947 243.124 316.215 243.339C316.487 243.552 316.82 243.658 317.215 243.658ZM323.05 245L327.38 236.429V236.359H322.354V234.818H329.29V236.394L324.964 245H323.05ZM334.439 245.194C333.62 245.194 332.918 244.987 332.331 244.572C331.748 244.155 331.298 243.553 330.984 242.768C330.672 241.979 330.516 241.029 330.516 239.919C330.52 238.809 330.677 237.864 330.989 237.085C331.303 236.303 331.753 235.706 332.336 235.295C332.922 234.884 333.623 234.679 334.439 234.679C335.254 234.679 335.955 234.884 336.542 235.295C337.128 235.706 337.578 236.303 337.889 237.085C338.204 237.867 338.361 238.812 338.361 239.919C338.361 241.033 338.204 241.984 337.889 242.773C337.578 243.558 337.128 244.158 336.542 244.572C335.958 244.987 335.257 245.194 334.439 245.194ZM334.439 243.638C335.075 243.638 335.577 243.325 335.945 242.698C336.316 242.068 336.502 241.142 336.502 239.919C336.502 239.11 336.418 238.431 336.248 237.881C336.079 237.33 335.841 236.916 335.533 236.638C335.224 236.356 334.86 236.215 334.439 236.215C333.806 236.215 333.305 236.53 332.937 237.16C332.57 237.786 332.384 238.706 332.381 239.919C332.377 240.731 332.458 241.414 332.624 241.967C332.793 242.521 333.032 242.938 333.34 243.22C333.648 243.499 334.015 243.638 334.439 243.638Z" fill="#374151"/>
<defs>
<filter id="filter0_di_15897_6801" x="107.5" y="16.5" width="23" height="23" filterUnits="userSpaceOnUse" color-interpolation-filters="sRGB">
<feFlood flood-opacity="0" result="BackgroundImageFix"/>
<feColorMatrix in="SourceAlpha" type="matrix" values="0 0 0 0 0 0 0 0 0 0 0 0 0 0 0 0 0 0 127 0" result="hardAlpha"/>
<feOffset dy="4"/>
<feGaussianBlur stdDeviation="2"/>
<feComposite in2="hardAlpha" operator="out"/>
<feColorMatrix type="matrix" values="0 0 0 0 0 0 0 0 0 0 0 0 0 0 0 0 0 0 0.06 0"/>
<feBlend mode="normal" in2="BackgroundImageFix" result="effect1_dropShadow_15897_6801"/>
<feBlend mode="normal" in="SourceGraphic" in2="effect1_dropShadow_15897_6801" result="shape"/>
<feColorMatrix in="SourceAlpha" type="matrix" values="0 0 0 0 0 0 0 0 0 0 0 0 0 0 0 0 0 0 127 0" result="hardAlpha"/>
<feOffset dx="2" dy="2"/>
<feGaussianBlur stdDeviation="2"/>
<feComposite in2="hardAlpha" operator="arithmetic" k2="-1" k3="1"/>
<feColorMatrix type="matrix" values="0 0 0 0 1 0 0 0 0 1 0 0 0 0 1 0 0 0 0.28 0"/>
<feBlend mode="normal" in2="shape" result="effect2_innerShadow_15897_6801"/>
</filter>
<filter id="filter1_di_15897_6801" x="123.083" y="65.1792" width="16.998" height="16.998" filterUnits="userSpaceOnUse" color-interpolation-filters="sRGB">
<feFlood flood-opacity="0" result="BackgroundImageFix"/>
<feColorMatrix in="SourceAlpha" type="matrix" values="0 0 0 0 0 0 0 0 0 0 0 0 0 0 0 0 0 0 127 0" result="hardAlpha"/>
<feOffset dy="4"/>
<feGaussianBlur stdDeviation="2"/>
<feComposite in2="hardAlpha" operator="out"/>
<feColorMatrix type="matrix" values="0 0 0 0 0 0 0 0 0 0 0 0 0 0 0 0 0 0 0.06 0"/>
<feBlend mode="normal" in2="BackgroundImageFix" result="effect1_dropShadow_15897_6801"/>
<feBlend mode="normal" in="SourceGraphic" in2="effect1_dropShadow_15897_6801" result="shape"/>
<feColorMatrix in="SourceAlpha" type="matrix" values="0 0 0 0 0 0 0 0 0 0 0 0 0 0 0 0 0 0 127 0" result="hardAlpha"/>
<feOffset dx="2" dy="2"/>
<feGaussianBlur stdDeviation="2"/>
<feComposite in2="hardAlpha" operator="arithmetic" k2="-1" k3="1"/>
<feColorMatrix type="matrix" values="0 0 0 0 1 0 0 0 0 1 0 0 0 0 1 0 0 0 0.28 0"/>
<feBlend mode="normal" in2="shape" result="effect2_innerShadow_15897_6801"/>
</filter>
<filter id="filter2_di_15897_6801" x="314.657" y="94.0896" width="17" height="17.0005" filterUnits="userSpaceOnUse" color-interpolation-filters="sRGB">
<feFlood flood-opacity="0" result="BackgroundImageFix"/>
<feColorMatrix in="SourceAlpha" type="matrix" values="0 0 0 0 0 0 0 0 0 0 0 0 0 0 0 0 0 0 127 0" result="hardAlpha"/>
<feOffset dy="4"/>
<feGaussianBlur stdDeviation="2"/>
<feComposite in2="hardAlpha" operator="out"/>
<feColorMatrix type="matrix" values="0 0 0 0 0 0 0 0 0 0 0 0 0 0 0 0 0 0 0.06 0"/>
<feBlend mode="normal" in2="BackgroundImageFix" result="effect1_dropShadow_15897_6801"/>
<feBlend mode="normal" in="SourceGraphic" in2="effect1_dropShadow_15897_6801" result="shape"/>
<feColorMatrix in="SourceAlpha" type="matrix" values="0 0 0 0 0 0 0 0 0 0 0 0 0 0 0 0 0 0 127 0" result="hardAlpha"/>
<feOffset dx="2" dy="2"/>
<feGaussianBlur stdDeviation="2"/>
<feComposite in2="hardAlpha" operator="arithmetic" k2="-1" k3="1"/>
<feColorMatrix type="matrix" values="0 0 0 0 1 0 0 0 0 1 0 0 0 0 1 0 0 0 0.28 0"/>
<feBlend mode="normal" in2="shape" result="effect2_innerShadow_15897_6801"/>
</filter>
<filter id="filter3_di_15897_6801" x="162.764" y="22.1958" width="17" height="17" filterUnits="userSpaceOnUse" color-interpolation-filters="sRGB">
<feFlood flood-opacity="0" result="BackgroundImageFix"/>
<feColorMatrix in="SourceAlpha" type="matrix" values="0 0 0 0 0 0 0 0 0 0 0 0 0 0 0 0 0 0 127 0" result="hardAlpha"/>
<feOffset dy="4"/>
<feGaussianBlur stdDeviation="2"/>
<feComposite in2="hardAlpha" operator="out"/>
<feColorMatrix type="matrix" values="0 0 0 0 0 0 0 0 0 0 0 0 0 0 0 0 0 0 0.06 0"/>
<feBlend mode="normal" in2="BackgroundImageFix" result="effect1_dropShadow_15897_6801"/>
<feBlend mode="normal" in="SourceGraphic" in2="effect1_dropShadow_15897_6801" result="shape"/>
<feColorMatrix in="SourceAlpha" type="matrix" values="0 0 0 0 0 0 0 0 0 0 0 0 0 0 0 0 0 0 127 0" result="hardAlpha"/>
<feOffset dx="2" dy="2"/>
<feGaussianBlur stdDeviation="2"/>
<feComposite in2="hardAlpha" operator="arithmetic" k2="-1" k3="1"/>
<feColorMatrix type="matrix" values="0 0 0 0 1 0 0 0 0 1 0 0 0 0 1 0 0 0 0.28 0"/>
<feBlend mode="normal" in2="shape" result="effect2_innerShadow_15897_6801"/>
</filter>
<filter id="filter4_di_15897_6801" x="293.253" y="142.999" width="12.998" height="12.998" filterUnits="userSpaceOnUse" color-interpolation-filters="sRGB">
<feFlood flood-opacity="0" result="BackgroundImageFix"/>
<feColorMatrix in="SourceAlpha" type="matrix" values="0 0 0 0 0 0 0 0 0 0 0 0 0 0 0 0 0 0 127 0" result="hardAlpha"/>
<feOffset dy="4"/>
<feGaussianBlur stdDeviation="2"/>
<feComposite in2="hardAlpha" operator="out"/>
<feColorMatrix type="matrix" values="0 0 0 0 0 0 0 0 0 0 0 0 0 0 0 0 0 0 0.06 0"/>
<feBlend mode="normal" in2="BackgroundImageFix" result="effect1_dropShadow_15897_6801"/>
<feBlend mode="normal" in="SourceGraphic" in2="effect1_dropShadow_15897_6801" result="shape"/>
<feColorMatrix in="SourceAlpha" type="matrix" values="0 0 0 0 0 0 0 0 0 0 0 0 0 0 0 0 0 0 127 0" result="hardAlpha"/>
<feOffset dx="2" dy="2"/>
<feGaussianBlur stdDeviation="2"/>
<feComposite in2="hardAlpha" operator="arithmetic" k2="-1" k3="1"/>
<feColorMatrix type="matrix" values="0 0 0 0 1 0 0 0 0 1 0 0 0 0 1 0 0 0 0.28 0"/>
<feBlend mode="normal" in2="shape" result="effect2_innerShadow_15897_6801"/>
</filter>
<filter id="filter5_di_15897_6801" x="283.254" y="72.9993" width="12.998" height="12.9983" filterUnits="userSpaceOnUse" color-interpolation-filters="sRGB">
<feFlood flood-opacity="0" result="BackgroundImageFix"/>
<feColorMatrix in="SourceAlpha" type="matrix" values="0 0 0 0 0 0 0 0 0 0 0 0 0 0 0 0 0 0 127 0" result="hardAlpha"/>
<feOffset dy="4"/>
<feGaussianBlur stdDeviation="2"/>
<feComposite in2="hardAlpha" operator="out"/>
<feColorMatrix type="matrix" values="0 0 0 0 0 0 0 0 0 0 0 0 0 0 0 0 0 0 0.06 0"/>
<feBlend mode="normal" in2="BackgroundImageFix" result="effect1_dropShadow_15897_6801"/>
<feBlend mode="normal" in="SourceGraphic" in2="effect1_dropShadow_15897_6801" result="shape"/>
<feColorMatrix in="SourceAlpha" type="matrix" values="0 0 0 0 0 0 0 0 0 0 0 0 0 0 0 0 0 0 127 0" result="hardAlpha"/>
<feOffset dx="2" dy="2"/>
<feGaussianBlur stdDeviation="2"/>
<feComposite in2="hardAlpha" operator="arithmetic" k2="-1" k3="1"/>
<feColorMatrix type="matrix" values="0 0 0 0 1 0 0 0 0 1 0 0 0 0 1 0 0 0 0.28 0"/>
<feBlend mode="normal" in2="shape" result="effect2_innerShadow_15897_6801"/>
</filter>
<filter id="filter6_di_15897_6801" x="137.55" y="144.481" width="12.9961" height="12.9961" filterUnits="userSpaceOnUse" color-interpolation-filters="sRGB">
<feFlood flood-opacity="0" result="BackgroundImageFix"/>
<feColorMatrix in="SourceAlpha" type="matrix" values="0 0 0 0 0 0 0 0 0 0 0 0 0 0 0 0 0 0 127 0" result="hardAlpha"/>
<feOffset dy="4"/>
<feGaussianBlur stdDeviation="2"/>
<feComposite in2="hardAlpha" operator="out"/>
<feColorMatrix type="matrix" values="0 0 0 0 0 0 0 0 0 0 0 0 0 0 0 0 0 0 0.06 0"/>
<feBlend mode="normal" in2="BackgroundImageFix" result="effect1_dropShadow_15897_6801"/>
<feBlend mode="normal" in="SourceGraphic" in2="effect1_dropShadow_15897_6801" result="shape"/>
<feColorMatrix in="SourceAlpha" type="matrix" values="0 0 0 0 0 0 0 0 0 0 0 0 0 0 0 0 0 0 127 0" result="hardAlpha"/>
<feOffset dx="2" dy="2"/>
<feGaussianBlur stdDeviation="2"/>
<feComposite in2="hardAlpha" operator="arithmetic" k2="-1" k3="1"/>
<feColorMatrix type="matrix" values="0 0 0 0 1 0 0 0 0 1 0 0 0 0 1 0 0 0 0.28 0"/>
<feBlend mode="normal" in2="shape" result="effect2_innerShadow_15897_6801"/>
</filter>
<filter id="filter7_di_15897_6801" x="319.5" y="33.5" width="13" height="13" filterUnits="userSpaceOnUse" color-interpolation-filters="sRGB">
<feFlood flood-opacity="0" result="BackgroundImageFix"/>
<feColorMatrix in="SourceAlpha" type="matrix" values="0 0 0 0 0 0 0 0 0 0 0 0 0 0 0 0 0 0 127 0" result="hardAlpha"/>
<feOffset dy="4"/>
<feGaussianBlur stdDeviation="2"/>
<feComposite in2="hardAlpha" operator="out"/>
<feColorMatrix type="matrix" values="0 0 0 0 0 0 0 0 0 0 0 0 0 0 0 0 0 0 0.06 0"/>
<feBlend mode="normal" in2="BackgroundImageFix" result="effect1_dropShadow_15897_6801"/>
<feBlend mode="normal" in="SourceGraphic" in2="effect1_dropShadow_15897_6801" result="shape"/>
<feColorMatrix in="SourceAlpha" type="matrix" values="0 0 0 0 0 0 0 0 0 0 0 0 0 0 0 0 0 0 127 0" result="hardAlpha"/>
<feOffset dx="2" dy="2"/>
<feGaussianBlur stdDeviation="2"/>
<feComposite in2="hardAlpha" operator="arithmetic" k2="-1" k3="1"/>
<feColorMatrix type="matrix" values="0 0 0 0 1 0 0 0 0 1 0 0 0 0 1 0 0 0 0.28 0"/>
<feBlend mode="normal" in2="shape" result="effect2_innerShadow_15897_6801"/>
</filter>
<filter id="filter8_di_15897_6801" x="212.582" y="24.1726" width="13" height="13" filterUnits="userSpaceOnUse" color-interpolation-filters="sRGB">
<feFlood flood-opacity="0" result="BackgroundImageFix"/>
<feColorMatrix in="SourceAlpha" type="matrix" values="0 0 0 0 0 0 0 0 0 0 0 0 0 0 0 0 0 0 127 0" result="hardAlpha"/>
<feOffset dy="4"/>
<feGaussianBlur stdDeviation="2"/>
<feComposite in2="hardAlpha" operator="out"/>
<feColorMatrix type="matrix" values="0 0 0 0 0 0 0 0 0 0 0 0 0 0 0 0 0 0 0.06 0"/>
<feBlend mode="normal" in2="BackgroundImageFix" result="effect1_dropShadow_15897_6801"/>
<feBlend mode="normal" in="SourceGraphic" in2="effect1_dropShadow_15897_6801" result="shape"/>
<feColorMatrix in="SourceAlpha" type="matrix" values="0 0 0 0 0 0 0 0 0 0 0 0 0 0 0 0 0 0 127 0" result="hardAlpha"/>
<feOffset dx="2" dy="2"/>
<feGaussianBlur stdDeviation="2"/>
<feComposite in2="hardAlpha" operator="arithmetic" k2="-1" k3="1"/>
<feColorMatrix type="matrix" values="0 0 0 0 1 0 0 0 0 1 0 0 0 0 1 0 0 0 0.28 0"/>
<feBlend mode="normal" in2="shape" result="effect2_innerShadow_15897_6801"/>
</filter>
<filter id="filter9_di_15897_6801" x="260.392" y="136.351" width="10.999" height="10.9995" filterUnits="userSpaceOnUse" color-interpolation-filters="sRGB">
<feFlood flood-opacity="0" result="BackgroundImageFix"/>
<feColorMatrix in="SourceAlpha" type="matrix" values="0 0 0 0 0 0 0 0 0 0 0 0 0 0 0 0 0 0 127 0" result="hardAlpha"/>
<feOffset dy="4"/>
<feGaussianBlur stdDeviation="2"/>
<feComposite in2="hardAlpha" operator="out"/>
<feColorMatrix type="matrix" values="0 0 0 0 0 0 0 0 0 0 0 0 0 0 0 0 0 0 0.06 0"/>
<feBlend mode="normal" in2="BackgroundImageFix" result="effect1_dropShadow_15897_6801"/>
<feBlend mode="normal" in="SourceGraphic" in2="effect1_dropShadow_15897_6801" result="shape"/>
<feColorMatrix in="SourceAlpha" type="matrix" values="0 0 0 0 0 0 0 0 0 0 0 0 0 0 0 0 0 0 127 0" result="hardAlpha"/>
<feOffset dx="2" dy="2"/>
<feGaussianBlur stdDeviation="2"/>
<feComposite in2="hardAlpha" operator="arithmetic" k2="-1" k3="1"/>
<feColorMatrix type="matrix" values="0 0 0 0 1 0 0 0 0 1 0 0 0 0 1 0 0 0 0.28 0"/>
<feBlend mode="normal" in2="shape" result="effect2_innerShadow_15897_6801"/>
</filter>
<filter id="filter10_di_15897_6801" x="142.955" y="113.899" width="10.998" height="10.9978" filterUnits="userSpaceOnUse" color-interpolation-filters="sRGB">
<feFlood flood-opacity="0" result="BackgroundImageFix"/>
<feColorMatrix in="SourceAlpha" type="matrix" values="0 0 0 0 0 0 0 0 0 0 0 0 0 0 0 0 0 0 127 0" result="hardAlpha"/>
<feOffset dy="4"/>
<feGaussianBlur stdDeviation="2"/>
<feComposite in2="hardAlpha" operator="out"/>
<feColorMatrix type="matrix" values="0 0 0 0 0 0 0 0 0 0 0 0 0 0 0 0 0 0 0.06 0"/>
<feBlend mode="normal" in2="BackgroundImageFix" result="effect1_dropShadow_15897_6801"/>
<feBlend mode="normal" in="SourceGraphic" in2="effect1_dropShadow_15897_6801" result="shape"/>
<feColorMatrix in="SourceAlpha" type="matrix" values="0 0 0 0 0 0 0 0 0 0 0 0 0 0 0 0 0 0 127 0" result="hardAlpha"/>
<feOffset dx="2" dy="2"/>
<feGaussianBlur stdDeviation="2"/>
<feComposite in2="hardAlpha" operator="arithmetic" k2="-1" k3="1"/>
<feColorMatrix type="matrix" values="0 0 0 0 1 0 0 0 0 1 0 0 0 0 1 0 0 0 0.28 0"/>
<feBlend mode="normal" in2="shape" result="effect2_innerShadow_15897_6801"/>
</filter>
<filter id="filter11_di_15897_6801" x="244.068" y="0.5" width="11" height="11" filterUnits="userSpaceOnUse" color-interpolation-filters="sRGB">
<feFlood flood-opacity="0" result="BackgroundImageFix"/>
<feColorMatrix in="SourceAlpha" type="matrix" values="0 0 0 0 0 0 0 0 0 0 0 0 0 0 0 0 0 0 127 0" result="hardAlpha"/>
<feOffset dy="4"/>
<feGaussianBlur stdDeviation="2"/>
<feComposite in2="hardAlpha" operator="out"/>
<feColorMatrix type="matrix" values="0 0 0 0 0 0 0 0 0 0 0 0 0 0 0 0 0 0 0.06 0"/>
<feBlend mode="normal" in2="BackgroundImageFix" result="effect1_dropShadow_15897_6801"/>
<feBlend mode="normal" in="SourceGraphic" in2="effect1_dropShadow_15897_6801" result="shape"/>
<feColorMatrix in="SourceAlpha" type="matrix" values="0 0 0 0 0 0 0 0 0 0 0 0 0 0 0 0 0 0 127 0" result="hardAlpha"/>
<feOffset dx="2" dy="2"/>
<feGaussianBlur stdDeviation="2"/>
<feComposite in2="hardAlpha" operator="arithmetic" k2="-1" k3="1"/>
<feColorMatrix type="matrix" values="0 0 0 0 1 0 0 0 0 1 0 0 0 0 1 0 0 0 0.28 0"/>
<feBlend mode="normal" in2="shape" result="effect2_innerShadow_15897_6801"/>
</filter>
<filter id="filter12_d_15897_6801" x="154" y="42" width="128" height="128" filterUnits="userSpaceOnUse" color-interpolation-filters="sRGB">
<feFlood flood-opacity="0" result="BackgroundImageFix"/>
<feColorMatrix in="SourceAlpha" type="matrix" values="0 0 0 0 0 0 0 0 0 0 0 0 0 0 0 0 0 0 127 0" result="hardAlpha"/>
<feOffset/>
<feGaussianBlur stdDeviation="10"/>
<feComposite in2="hardAlpha" operator="out"/>
<feColorMatrix type="matrix" values="0 0 0 0 0 0 0 0 0 0 0 0 0 0 0 0 0 0 0.06 0"/>
<feBlend mode="normal" in2="BackgroundImageFix" result="effect1_dropShadow_15897_6801"/>
<feBlend mode="normal" in="SourceGraphic" in2="effect1_dropShadow_15897_6801" result="shape"/>
</filter>
<filter id="filter13_di_15897_6801" x="195.333" y="92.0659" width="45.333" height="35.8672" filterUnits="userSpaceOnUse" color-interpolation-filters="sRGB">
<feFlood flood-opacity="0" result="BackgroundImageFix"/>
<feColorMatrix in="SourceAlpha" type="matrix" values="0 0 0 0 0 0 0 0 0 0 0 0 0 0 0 0 0 0 127 0" result="hardAlpha"/>
<feOffset dy="4"/>
<feGaussianBlur stdDeviation="3"/>
<feComposite in2="hardAlpha" operator="out"/>
<feColorMatrix type="matrix" values="0 0 0 0 0 0 0 0 0 0 0 0 0 0 0 0 0 0 0.1 0"/>
<feBlend mode="normal" in2="BackgroundImageFix" result="effect1_dropShadow_15897_6801"/>
<feBlend mode="normal" in="SourceGraphic" in2="effect1_dropShadow_15897_6801" result="shape"/>
<feColorMatrix in="SourceAlpha" type="matrix" values="0 0 0 0 0 0 0 0 0 0 0 0 0 0 0 0 0 0 127 0" result="hardAlpha"/>
<feOffset dy="10"/>
<feGaussianBlur stdDeviation="7.5"/>
<feComposite in2="hardAlpha" operator="arithmetic" k2="-1" k3="1"/>
<feColorMatrix type="matrix" values="0 0 0 0 0 0 0 0 0 0 0 0 0 0 0 0 0 0 0.1 0"/>
<feBlend mode="normal" in2="shape" result="effect2_innerShadow_15897_6801"/>
</filter>
<linearGradient id="paint0_linear_15897_6801" x1="112" y1="17" x2="126" y2="31" gradientUnits="userSpaceOnUse">
<stop stop-color="#22C55E"/>
<stop offset="1" stop-color="#159645"/>
</linearGradient>
<linearGradient id="paint1_linear_15897_6801" x1="112" y1="17" x2="126.07" y2="31.07" gradientUnits="userSpaceOnUse">
<stop stop-opacity="0.24"/>
<stop offset="1" stop-color="white" stop-opacity="0"/>
</linearGradient>
<linearGradient id="paint2_linear_15897_6801" x1="136.733" y1="67.3414" x2="126.43" y2="72.015" gradientUnits="userSpaceOnUse">
<stop stop-color="#22C55E"/>
<stop offset="1" stop-color="#159645"/>
</linearGradient>
<linearGradient id="paint3_linear_15897_6801" x1="136.733" y1="67.3414" x2="126.379" y2="72.0384" gradientUnits="userSpaceOnUse">
<stop stop-opacity="0.24"/>
<stop offset="1" stop-color="white" stop-opacity="0"/>
</linearGradient>
<linearGradient id="paint4_linear_15897_6801" x1="319.157" y1="94.5896" x2="327.157" y2="102.59" gradientUnits="userSpaceOnUse">
<stop stop-color="#22C55E"/>
<stop offset="1" stop-color="#159645"/>
</linearGradient>
<linearGradient id="paint5_linear_15897_6801" x1="319.157" y1="94.5896" x2="327.197" y2="102.63" gradientUnits="userSpaceOnUse">
<stop stop-opacity="0.24"/>
<stop offset="1" stop-color="white" stop-opacity="0"/>
</linearGradient>
<linearGradient id="paint6_linear_15897_6801" x1="168.109" y1="31.3912" x2="174.418" y2="22.0002" gradientUnits="userSpaceOnUse">
<stop stop-color="#22C55E"/>
<stop offset="1" stop-color="#159645"/>
</linearGradient>
<linearGradient id="paint7_linear_15897_6801" x1="168.109" y1="31.3912" x2="174.45" y2="21.9532" gradientUnits="userSpaceOnUse">
<stop stop-opacity="0.24"/>
<stop offset="1" stop-color="white" stop-opacity="0"/>
</linearGradient>
<linearGradient id="paint8_linear_15897_6801" x1="302.398" y1="144.501" x2="297.105" y2="146.495" gradientUnits="userSpaceOnUse">
<stop stop-color="#22C55E"/>
<stop offset="1" stop-color="#159645"/>
</linearGradient>
<linearGradient id="paint9_linear_15897_6801" x1="302.398" y1="144.501" x2="297.078" y2="146.505" gradientUnits="userSpaceOnUse">
<stop stop-opacity="0.24"/>
<stop offset="1" stop-color="white" stop-opacity="0"/>
</linearGradient>
<linearGradient id="paint10_linear_15897_6801" x1="292.399" y1="74.5013" x2="287.106" y2="76.4954" gradientUnits="userSpaceOnUse">
<stop stop-color="#22C55E"/>
<stop offset="1" stop-color="#159645"/>
</linearGradient>
<linearGradient id="paint11_linear_15897_6801" x1="292.399" y1="74.5013" x2="287.079" y2="76.5053" gradientUnits="userSpaceOnUse">
<stop stop-opacity="0.24"/>
<stop offset="1" stop-color="white" stop-opacity="0"/>
</linearGradient>
<linearGradient id="paint12_linear_15897_6801" x1="144.483" y1="149.774" x2="143.613" y2="144.184" gradientUnits="userSpaceOnUse">
<stop stop-color="#22C55E"/>
<stop offset="1" stop-color="#159645"/>
</linearGradient>
<linearGradient id="paint13_linear_15897_6801" x1="144.483" y1="149.774" x2="143.609" y2="144.156" gradientUnits="userSpaceOnUse">
<stop stop-opacity="0.24"/>
<stop offset="1" stop-color="white" stop-opacity="0"/>
</linearGradient>
<linearGradient id="paint14_linear_15897_6801" x1="324" y1="34" x2="328" y2="38" gradientUnits="userSpaceOnUse">
<stop stop-color="#22C55E"/>
<stop offset="1" stop-color="#159645"/>
</linearGradient>
<linearGradient id="paint15_linear_15897_6801" x1="324" y1="34" x2="328.02" y2="38.02" gradientUnits="userSpaceOnUse">
<stop stop-opacity="0.24"/>
<stop offset="1" stop-color="white" stop-opacity="0"/>
</linearGradient>
<linearGradient id="paint16_linear_15897_6801" x1="217.504" y1="29.0203" x2="220.659" y2="24.3247" gradientUnits="userSpaceOnUse">
<stop stop-color="#22C55E"/>
<stop offset="1" stop-color="#159645"/>
</linearGradient>
<linearGradient id="paint17_linear_15897_6801" x1="217.504" y1="29.0203" x2="220.674" y2="24.3013" gradientUnits="userSpaceOnUse">
<stop stop-opacity="0.24"/>
<stop offset="1" stop-color="white" stop-opacity="0"/>
</linearGradient>
<linearGradient id="paint18_linear_15897_6801" x1="267.215" y1="137.353" x2="264.568" y2="138.35" gradientUnits="userSpaceOnUse">
<stop stop-color="#22C55E"/>
<stop offset="1" stop-color="#159645"/>
</linearGradient>
<linearGradient id="paint19_linear_15897_6801" x1="267.215" y1="137.353" x2="264.555" y2="138.355" gradientUnits="userSpaceOnUse">
<stop stop-opacity="0.24"/>
<stop offset="1" stop-color="white" stop-opacity="0"/>
</linearGradient>
<linearGradient id="paint20_linear_15897_6801" x1="148.672" y1="116.795" x2="148.237" y2="114" gradientUnits="userSpaceOnUse">
<stop stop-color="#22C55E"/>
<stop offset="1" stop-color="#159645"/>
</linearGradient>
<linearGradient id="paint21_linear_15897_6801" x1="148.672" y1="116.795" x2="148.234" y2="113.986" gradientUnits="userSpaceOnUse">
<stop stop-opacity="0.24"/>
<stop offset="1" stop-color="white" stop-opacity="0"/>
</linearGradient>
<linearGradient id="paint22_linear_15897_6801" x1="248.568" y1="1" x2="250.568" y2="3" gradientUnits="userSpaceOnUse">
<stop stop-color="#22C55E"/>
<stop offset="1" stop-color="#159645"/>
</linearGradient>
<linearGradient id="paint23_linear_15897_6801" x1="248.568" y1="1" x2="250.578" y2="3.01" gradientUnits="userSpaceOnUse">
<stop stop-opacity="0.24"/>
<stop offset="1" stop-color="white" stop-opacity="0"/>
</linearGradient>
<linearGradient id="paint24_linear_15897_6801" x1="184.667" y1="72.6667" x2="251.334" y2="139.333" gradientUnits="userSpaceOnUse">
<stop stop-color="#22C55E"/>
<stop offset="1" stop-color="#159645"/>
</linearGradient>
<clipPath id="clip0_15897_6801">
<rect width="226" height="170" fill="white" transform="translate(107)"/>
</clipPath>
</defs>
</svg>
