<svg width="50" height="12" viewBox="0 0 50 12" fill="none" xmlns="http://www.w3.org/2000/svg">
<path d="M5.026 11.668C4.22333 11.668 3.50933 11.5 2.884 11.164C2.268 10.828 1.78267 10.366 1.428 9.778C1.07333 9.19 0.896 8.52267 0.896 7.776V1.07H2.8V7.678C2.8 8.10733 2.89333 8.49467 3.08 8.84C3.276 9.18533 3.542 9.456 3.878 9.652C4.214 9.83867 4.59667 9.932 5.026 9.932C5.46467 9.932 5.84733 9.83867 6.174 9.652C6.51 9.456 6.77133 9.18533 6.958 8.84C7.154 8.49467 7.252 8.10733 7.252 7.678V1.07H9.156V7.776C9.156 8.52267 8.97867 9.19 8.624 9.778C8.26933 10.366 7.77933 10.828 7.154 11.164C6.538 11.5 5.82867 11.668 5.026 11.668ZM11.6168 11.5V1.07H15.5088C16.2182 1.07 16.8435 1.20067 17.3848 1.462C17.9355 1.714 18.3648 2.08733 18.6728 2.582C18.9808 3.06733 19.1348 3.66 19.1348 4.36C19.1348 5.05067 18.9762 5.64333 18.6588 6.138C18.3508 6.62333 17.9262 6.99667 17.3848 7.258C16.8435 7.51933 16.2182 7.65 15.5088 7.65H13.5208V11.5H11.6168ZM13.5208 5.97H15.5368C15.8822 5.97 16.1808 5.90467 16.4328 5.774C16.6848 5.634 16.8808 5.44267 17.0208 5.2C17.1608 4.95733 17.2308 4.67733 17.2308 4.36C17.2308 4.03333 17.1608 3.75333 17.0208 3.52C16.8808 3.27733 16.6848 3.09067 16.4328 2.96C16.1808 2.82 15.8822 2.75 15.5368 2.75H13.5208V5.97ZM23.103 11.5V2.75H20.401V1.07H27.681V2.75H25.021V11.5H23.103ZM34.117 11.668C33.3517 11.668 32.6377 11.5327 31.975 11.262C31.3123 10.9913 30.7337 10.6133 30.239 10.128C29.7443 9.64267 29.357 9.07333 29.077 8.42C28.8063 7.75733 28.671 7.04333 28.671 6.278C28.671 5.50333 28.8063 4.78933 29.077 4.136C29.3477 3.48267 29.7303 2.91333 30.225 2.428C30.7197 1.94267 31.2983 1.56933 31.961 1.308C32.6237 1.03733 33.3423 0.902 34.117 0.902C34.8917 0.902 35.6103 1.03733 36.273 1.308C36.9357 1.57867 37.5143 1.95667 38.009 2.442C38.5037 2.918 38.8863 3.48267 39.157 4.136C39.437 4.78933 39.577 5.50333 39.577 6.278C39.577 7.04333 39.437 7.75733 39.157 8.42C38.877 9.07333 38.4897 9.64267 37.995 10.128C37.5003 10.6133 36.9217 10.9913 36.259 11.262C35.6057 11.5327 34.8917 11.668 34.117 11.668ZM34.117 9.932C34.6303 9.932 35.1017 9.84333 35.531 9.666C35.9603 9.47933 36.3337 9.22267 36.651 8.896C36.9777 8.56933 37.225 8.182 37.393 7.734C37.5703 7.286 37.659 6.80067 37.659 6.278C37.659 5.75533 37.5703 5.27467 37.393 4.836C37.225 4.388 36.9777 4.00067 36.651 3.674C36.3337 3.338 35.9603 3.08133 35.531 2.904C35.1017 2.72667 34.6303 2.638 34.117 2.638C33.613 2.638 33.1463 2.72667 32.717 2.904C32.2877 3.08133 31.9097 3.338 31.583 3.674C31.2657 4.00067 31.0183 4.388 30.841 4.836C30.6637 5.27467 30.575 5.75533 30.575 6.278C30.575 6.80067 30.6637 7.286 30.841 7.734C31.0183 8.182 31.2657 8.56933 31.583 8.896C31.9097 9.22267 32.2877 9.47933 32.717 9.666C33.1463 9.84333 33.613 9.932 34.117 9.932ZM41.83 11.5V1.07H45.708C46.4174 1.07 47.0427 1.20067 47.584 1.462C48.1347 1.714 48.564 2.08733 48.872 2.582C49.18 3.06733 49.334 3.66 49.334 4.36C49.334 5.07867 49.1614 5.69 48.816 6.194C48.48 6.698 48.0227 7.07133 47.444 7.314L49.838 11.5H47.682L45.12 6.922L46.352 7.65H43.734V11.5H41.83ZM43.734 5.97H45.736C46.0814 5.97 46.38 5.90467 46.632 5.774C46.884 5.634 47.08 5.44267 47.22 5.2C47.36 4.95733 47.43 4.67733 47.43 4.36C47.43 4.03333 47.36 3.75333 47.22 3.52C47.08 3.27733 46.884 3.09067 46.632 2.96C46.38 2.82 46.0814 2.75 45.736 2.75H43.734V5.97Z" fill="white"/>
</svg>
