<?xml version="1.0" encoding="iso-8859-1"?>
<!-- Uploaded to: SVG Repo, www.svgrepo.com, Generator: SVG Repo Mixer Tools -->
<svg fill="#000000" height="150px" width="150px" version="1.1" id="Capa_1" xmlns="http://www.w3.org/2000/svg" xmlns:xlink="http://www.w3.org/1999/xlink" 
	 viewBox="0 0 511.998 511.998" xml:space="preserve">
<g>
	<g>
		<path d="M475.983,163.543h-24.886c-7.249-42.102-27.969-80.667-59.586-110.215C354.714,18.939,306.589,0,255.999,0
			c-50.593,0-98.718,18.939-135.513,53.328C88.87,82.877,68.154,121.44,60.904,163.542H36.015c-12.149,0-21.998,9.849-21.998,21.998
			v175.987c0,12.149,9.849,21.998,21.998,21.998h87.993c12.149,0,21.998-9.849,21.998-21.998V185.54
			c0-12.149-9.849-21.998-21.998-21.998H105.76c15.512-68.647,77.454-119.545,150.239-119.545
			c72.784,0,134.725,50.898,150.24,119.546h-18.25c-12.149,0-21.998,9.849-21.998,21.998v175.987
			c0,12.149,9.849,21.998,21.998,21.998h21.998v49.829c0,11.018-8.964,19.982-19.982,19.982h-37.943
			c-3.023-8.538-11.146-14.666-20.72-14.666h-75.343c-12.149,0-21.998,9.849-21.998,21.998V490c0,12.149,9.849,21.998,21.998,21.998
			h75.344c9.574,0,17.695-6.127,20.72-14.666h37.943c35.278,0,63.979-28.701,63.979-63.979v-49.829h21.998
			c12.149,0,21.998-9.849,21.998-21.998V185.542C497.981,173.391,488.132,163.543,475.983,163.543z M102.009,339.53H58.014V207.54
			h22.28c0.043,0,0.086,0.004,0.129,0.004c0.031,0,0.059-0.004,0.088-0.004h21.498V339.53z M453.984,339.53h-43.997V207.54h43.997
			V339.53z"/>
	</g>
</g>
</svg>