<svg width="34" height="35" viewBox="0 0 34 35" fill="none" xmlns="http://www.w3.org/2000/svg">
<path d="M0.5 8.5C0.5 4.35786 3.85786 1 8 1H26C30.1421 1 33.5 4.35786 33.5 8.5V26.5C33.5 30.6421 30.1421 34 26 34H8C3.85786 34 0.5 30.6421 0.5 26.5V8.5Z" fill="#171717"/>
<path d="M0.5 8.5C0.5 4.35786 3.85786 1 8 1H26C30.1421 1 33.5 4.35786 33.5 8.5V26.5C33.5 30.6421 30.1421 34 26 34H8C3.85786 34 0.5 30.6421 0.5 26.5V8.5Z" stroke="#262626"/>
<path d="M24.4213 13.9744C24.3316 13.6405 24.1558 13.336 23.9115 13.0914C23.6672 12.8467 23.3629 12.6705 23.0291 12.5805C21.8004 12.25 16.875 12.25 16.875 12.25C16.875 12.25 11.9496 12.25 10.7209 12.5787C10.3869 12.6685 10.0825 12.8446 9.83814 13.0892C9.59377 13.3339 9.41808 13.6386 9.32871 13.9727C9 15.2031 9 17.7695 9 17.7695C9 17.7695 9 20.3359 9.32871 21.5646C9.50977 22.2432 10.0441 22.7775 10.7209 22.9586C11.9496 23.2891 16.875 23.2891 16.875 23.2891C16.875 23.2891 21.8004 23.2891 23.0291 22.9586C23.7076 22.7775 24.2402 22.2432 24.4213 21.5646C24.75 20.3359 24.75 17.7695 24.75 17.7695C24.75 17.7695 24.75 15.2031 24.4213 13.9744ZM15.3105 20.125V15.4141L19.3887 17.752L15.3105 20.125Z" fill="#D4D4D4"/>
</svg>
